<?xml version="1.0" encoding="UTF-8"?>
<svg version="1.1" xmlns="http://www.w3.org/2000/svg" width="512" height="512">
<path d="M0 0 C4.46708486 0.52999312 5.95302248 2.13127255 8.6875 5.4375 C10.80367937 8.31290545 12.77827151 11.27429741 14.75 14.25 C20.7736731 23.20928819 27.12628771 31.86654701 33.6875 40.4375 C35.72924562 37.37488157 37.09883193 34.34712166 38.625 31 C42.38495938 23.17940679 47.52294951 17.45889692 53.6875 11.4375 C54.72583984 10.36822266 54.72583984 10.36822266 55.78515625 9.27734375 C64.54651587 0.80383168 74.26976046 -0.11191196 85.96948242 0.03491211 C101.84571816 0.53830843 101.84571816 0.53830843 107.0078125 5.8046875 C110.83115707 10.68909114 113.87532215 16.12953816 117.0625 21.4375 C123.94467782 32.78647496 131.226758 43.79556688 138.79785156 54.69921875 C140.77763759 57.56811798 142.7315526 60.45327468 144.6796875 63.34375 C145.34025146 64.32182617 146.00081543 65.29990234 146.68139648 66.30761719 C147.92843512 68.15538351 149.17296387 70.00484766 150.41430664 71.85644531 C156.23005209 80.44077643 162.59882368 88.49458923 169.6875 96.0625 C170.17605469 96.58972656 170.66460937 97.11695312 171.16796875 97.66015625 C172.33811965 98.92208369 173.51233217 100.18024324 174.6875 101.4375 C175.44933594 100.65890625 176.21117187 99.8803125 176.99609375 99.078125 C181.60222352 94.55890334 185.76345357 91.58613812 192.265625 91.33984375 C193.14734375 91.35144531 194.0290625 91.36304687 194.9375 91.375 C196.27554688 91.38853516 196.27554688 91.38853516 197.640625 91.40234375 C198.31609375 91.41394531 198.9915625 91.42554687 199.6875 91.4375 C199.66131592 90.51001953 199.63513184 89.58253906 199.6081543 88.62695312 C199.52242984 85.15283385 199.46001241 81.67985414 199.4128418 78.20507812 C199.38784993 76.70750077 199.35384373 75.21004349 199.31030273 73.71289062 C198.88505224 58.70404955 198.88505224 58.70404955 203.31176758 52.88818359 C206.95029279 49.05142817 210.50581786 45.9780001 215.6875 44.4375 C216.6775 44.4375 217.6675 44.4375 218.6875 44.4375 C218.65011719 43.29023437 218.61273438 42.14296875 218.57421875 40.9609375 C218.57810714 34.34290494 219.41816628 27.80841725 220.23168945 21.25146484 C220.50178769 19.04791544 220.75204665 16.84263809 221.00195312 14.63671875 C221.17327279 13.22901932 221.34575675 11.821461 221.51953125 10.4140625 C221.74733276 8.51261475 221.74733276 8.51261475 221.97973633 6.57275391 C222.68889196 3.43133391 223.09164741 2.26072875 225.6875 0.4375 C228.53417807 -0.1374726 230.73588397 0.15639371 233.6875 0.4375 C238.60688681 7.81658021 235.22814111 20.12438237 234.25 28.5 C234.04793945 30.33208008 234.04793945 30.33208008 233.84179688 32.20117188 C232.82228105 41.1679379 232.82228105 41.1679379 231.6875 43.4375 C232.8425 43.64375 233.9975 43.85 235.1875 44.0625 C241.03741869 45.56646846 245.51707523 48.48810086 249.11328125 53.375 C254.68684683 63.7943116 250.10228589 78.07126085 248.21337891 89.19482422 C247.81211962 91.56474658 247.42309261 93.9364583 247.03515625 96.30859375 C245.79832489 103.74759567 244.46234721 111.0244968 242.25219727 118.25073242 C241.4373041 121.40637364 241.47158755 124.19881321 241.6875 127.4375 C246.31578346 121.06830258 248.83534412 116.79890148 248.5625 108.75 C248.6875 105.4375 248.6875 105.4375 249.75 103.5 C252.80726176 101.8234371 255.2781288 102.07221023 258.6875 102.4375 C260.79108381 103.98012813 261.52804159 105.11858317 262.6875 107.4375 C263.55018262 116.60658382 262.92005913 123.74013012 257.6875 131.4375 C257.0171875 132.20320312 256.346875 132.96890625 255.65625 133.7578125 C253.27937244 136.99300695 252.45081444 139.87769126 251.4375 143.75 C251.10234375 145.00425781 250.7671875 146.25851563 250.421875 147.55078125 C250.17953125 148.50339844 249.9371875 149.45601562 249.6875 150.4375 C254.83851252 145.78016499 258.03368787 140.2973255 261.49414062 134.32421875 C264.94244449 128.69932592 264.94244449 128.69932592 268.85546875 127.32421875 C271.6875 127.4375 271.6875 127.4375 274.5625 129 C276.6875 131.4375 276.6875 131.4375 277.1328125 134.03515625 C276.50039784 138.86702615 274.24679772 142.23145769 271.6875 146.3125 C271.21054687 147.09625 270.73359375 147.88 270.2421875 148.6875 C269.06888564 150.61171505 267.88395474 152.52762729 266.6875 154.4375 C269.60239991 154.74997756 269.60239991 154.74997756 271.1171875 153.29296875 C277.87722037 145.49152542 282.17266157 135.99123785 281.95703125 125.54296875 C281.06785233 118.59706388 276.7756827 114.3905371 271.9140625 109.765625 C263.58473603 101.05636434 257.35264472 91.15098082 257.50769043 78.86611938 C257.81053812 74.775671 258.91386148 71.01447513 260.109375 67.10546875 C260.37369324 66.21272751 260.63801147 65.31998627 260.91033936 64.40019226 C264.25164859 53.28931482 267.97318767 42.29818842 271.72070312 31.3190918 C272.95748232 27.69138814 274.18221845 24.05975656 275.40625 20.42773438 C276.19199995 18.11434261 276.97843172 15.80118228 277.765625 13.48828125 C278.31249969 11.86361687 278.31249969 11.86361687 278.87042236 10.20613098 C279.21127869 9.21296371 279.55213501 8.21979645 279.90332031 7.1965332 C280.20054993 6.32277542 280.49777954 5.44901764 280.80401611 4.54878235 C281.6875 2.4375 281.6875 2.4375 283.6875 0.4375 C290.76118421 -0.23618421 290.76118421 -0.23618421 293.75 1.9375 C296.16474 8.37680668 292.70597905 15.95657529 290.51953125 22.10546875 C290.20223557 23.02097 289.88493988 23.93647125 289.55802917 24.87971497 C288.5461185 27.79746221 287.5240912 30.71150774 286.5 33.625 C282.51319839 44.9933343 278.58586068 56.36156482 275.19921875 67.92578125 C274.9431636 68.78052536 274.68710846 69.63526947 274.42329407 70.51591492 C272.39654585 77.61943678 271.60117141 83.61549625 275.22265625 90.265625 C278.7023994 95.42492417 283.19566374 99.80874965 287.46484375 104.3125 C294.37556279 111.90901559 296.99543505 120.34958587 296.9140625 130.48046875 C296.44634612 136.5849739 294.44054011 142.02015882 291.6875 147.4375 C292.50130127 147.4799585 293.31510254 147.52241699 294.15356445 147.56616211 C302.06302389 148.03212155 309.91928943 148.74311011 317.79296875 149.62890625 C318.77210236 149.73890961 319.75123596 149.84891296 320.76004028 149.96224976 C324.82491102 150.42183855 328.88923316 150.88591784 332.95288086 151.35620117 C352.31376252 154.13959769 352.31376252 154.13959769 371.5 151.875 C376.39855849 150.62980288 379.81656993 150.03034243 384.6875 151.4375 C387.25421163 154.00421163 387.04276365 155.95575983 387.24609375 159.46484375 C386.6875 161.4375 386.6875 161.4375 384.68359375 163.05078125 C380.9535203 164.77721681 377.3103898 165.77920146 373.3125 166.6875 C372.60222656 166.873125 371.89195312 167.05875 371.16015625 167.25 C353.96966967 171.19633779 333.16998479 165.83779611 315.89550781 163.94604492 C312.10003972 163.53155616 308.30397619 163.12290519 304.5078125 162.71484375 C303.35451447 162.58673813 302.20121643 162.45863251 301.01296997 162.3266449 C294.86128542 161.66816998 288.87425623 161.30396407 282.6875 161.4375 C280.93359805 164.74386305 280.31855494 167.39621396 279.875 171.125 C278.05610553 182.64000117 271.21319796 191.3189015 261.9375 198.125 C250.30846078 205.83670425 237.58205743 209.69314871 223.6875 210.4375 C222.55828125 210.51677734 222.55828125 210.51677734 221.40625 210.59765625 C205.95876993 211.18980965 190.59668659 206.76428329 178.875 196.5 C178.27042969 195.91347656 177.66585938 195.32695312 177.04296875 194.72265625 C175.87786463 193.32282756 175.87786463 193.32282756 174.6875 193.4375 C174.44 194.63375 174.1925 195.83 173.9375 197.0625 C172.91121515 201.15318468 171.28571799 204.07510025 168.6875 207.4375 C168.130625 208.200625 167.57375 208.96375 167 209.75 C163.46391912 212.33038334 160.01612426 212.75867954 155.6875 212.4375 C152.38679783 211.24645968 149.66355002 209.52596027 147.296875 206.88671875 C145.23957053 205.03414603 143.48850467 204.6547671 140.8125 204 C135.91534624 202.63849146 132.61843832 200.82818554 129.375 196.8125 C127.54630197 195.11036663 127.54630197 195.11036663 123.9375 194.625 C117.07328693 193.11083535 112.72598053 187.92983353 108.6875 182.4375 C108.213125 183.22125 107.73875 184.005 107.25 184.8125 C104.24865232 187.88705128 102.28782239 188.68484844 98.12890625 189.41796875 C93.72995553 189.45316036 90.39959549 187.64178108 86.6875 185.4375 C85.676875 184.839375 84.66625 184.24125 83.625 183.625 C81.6875 181.4375 81.6875 181.4375 81.1875 177.875 C81.6875 174.4375 81.6875 174.4375 82.75 172.5 C85.73623337 170.86238815 88.35313234 171.19500053 91.6875 171.4375 C92.3475 171.7675 93.0075 172.0975 93.6875 172.4375 C88.40801428 159.28209963 88.40801428 159.28209963 78.6875 149.4375 C76.00665596 148.7966413 73.44904323 148.6676286 70.6875 148.4375 C70.9040625 149.9534375 70.9040625 149.9534375 71.125 151.5 C71.310625 152.799375 71.49625 154.09875 71.6875 155.4375 C71.935 156.654375 72.1825 157.87125 72.4375 159.125 C72.6875 162.4375 72.6875 162.4375 71.75 164.875 C69.12613373 166.86277747 66.88080916 167.11644686 63.62109375 166.9609375 C61.6875 166.4375 61.6875 166.4375 59.3125 163.6875 C58.10416667 161.27083333 56.89583333 158.85416667 55.6875 156.4375 C55.21441406 157.48808594 54.74132812 158.53867188 54.25390625 159.62109375 C46.21383949 176.93054481 34.5643972 185.92334455 16.9375 192.625 C6.0195922 196.57380725 -5.08993924 199.61377186 -16.46875 201.90625 C-17.72139648 202.16083984 -18.97404297 202.41542969 -20.26464844 202.67773438 C-22.75404262 203.17574123 -25.24689174 203.65684344 -27.74316406 204.11914062 C-34.26811268 205.41500455 -38.81192734 206.39163612 -43.3125 211.4375 C-48.57080893 220.05252816 -46.89263895 231.24415045 -44.6875 240.5625 C-40.39274443 257.1626299 -29.41706867 265.64355921 -16.3125 275.4375 C-13.7758669 272.95038902 -11.40392637 270.41095768 -9.125 267.6875 C2.02498538 255.0127303 2.02498538 255.0127303 8.0625 254.625 C11.6875 255.4375 11.6875 255.4375 13.75 257.625 C14.85959693 260.9537908 14.82981118 262.1364143 13.6875 265.4375 C11.78920919 267.41045883 9.96285874 269.13224188 7.875 270.875 C3.6944159 274.41008981 0.45485851 277.67335497 -2.3125 282.4375 C-2.3125 283.0975 -2.3125 283.7575 -2.3125 284.4375 C1.74541327 286.8025771 1.74541327 286.8025771 6.3125 287.4375 C10.41002285 285.71222722 12.25794684 282.37448564 14.06640625 278.4296875 C14.45699219 277.40101563 14.84757813 276.37234375 15.25 275.3125 C17.82026731 268.55396104 17.82026731 268.55396104 20.6875 266.4375 C24.0968712 266.07221023 26.56773824 265.8234371 29.625 267.5 C31.35706006 270.65846247 31.08998858 272.87260111 30.6875 276.4375 C28.53636664 283.09750611 24.70686336 288.77019766 20.6875 294.4375 C22.47657154 294.92626697 24.2689592 295.40289669 26.0625 295.875 C27.06023437 296.14183594 28.05796875 296.40867187 29.0859375 296.68359375 C52.8365964 301.65526096 92.84220195 301.83325812 114.6875 290.4375 C121.91514632 283.81794892 126.1618402 272.05168684 126.82592773 262.43237305 C127.56253532 245.49760252 126.03325414 227.06810414 114.30078125 213.72265625 C113.47964844 212.86542969 112.65851563 212.00820312 111.8125 211.125 C107.07550158 206.16470873 107.07550158 206.16470873 106.9375 202.5 C107.6875 199.4375 107.6875 199.4375 108.75 197.5 C112.14028126 195.6408135 113.85362935 195.69546052 117.6875 196.4375 C131.44468189 206.5730916 138.30754872 224.10244459 141.0234375 240.4609375 C142.5561417 251.9355068 141.59624001 263.07027158 139.6875 274.4375 C140.67762085 274.21815796 140.67762085 274.21815796 141.68774414 273.99438477 C144.70791176 273.32691369 147.7289415 272.66342664 150.75 272 C152.30750977 271.65485352 152.30750977 271.65485352 153.89648438 271.30273438 C161.42057852 269.65459947 168.70938029 268.29634676 176.4375 268.1875 C177.54609375 268.16171875 178.6546875 268.1359375 179.796875 268.109375 C182.6875 268.4375 182.6875 268.4375 184.55078125 269.76953125 C186.35341846 272.41463808 186.13175609 274.32770738 185.6875 277.4375 C183.44869467 280.39885375 182.07417541 281.33873471 178.4453125 282.265625 C176.64707031 282.47445312 176.64707031 282.47445312 174.8125 282.6875 C173.02199219 282.91179687 173.02199219 282.91179687 171.1953125 283.140625 C168.00299667 283.41079872 164.88885718 283.4962405 161.6875 283.4375 C161.6875 284.0975 161.6875 284.7575 161.6875 285.4375 C162.37972656 285.55609375 163.07195312 285.6746875 163.78515625 285.796875 C167.02134493 286.51118852 170.00514846 287.56846131 173.125 288.6875 C179.57751008 290.91033123 186.09879228 292.60531336 192.75 294.125 C193.62261475 294.32706055 194.49522949 294.52912109 195.39428711 294.73730469 C198.15149648 295.35007453 200.91342063 295.90633325 203.6875 296.4375 C204.67621094 296.63021484 205.66492188 296.82292969 206.68359375 297.02148438 C217.93946102 298.93120286 229.1815243 298.66002493 240.5625 298.5625 C242.6184852 298.55244549 244.67447519 298.54332403 246.73046875 298.53515625 C251.71626617 298.51334925 256.70182884 298.4789569 261.6875 298.4375 C260.58668091 297.75349121 260.58668091 297.75349121 259.46362305 297.05566406 C244.38306572 287.59149493 232.50199875 275.89296095 227.07421875 258.46875 C226.5883432 255.91667638 226.47990607 253.47237185 226.4375 250.875 C226.41171875 249.92496094 226.3859375 248.97492188 226.359375 247.99609375 C226.6875 245.4375 226.6875 245.4375 227.984375 243.625 C230.86343068 241.61758503 233.3116535 242.01551919 236.6875 242.4375 C239.53165559 245.35650179 240.26399503 248.13219632 241.0625 252.0625 C244.48972076 266.69958867 252.30860345 275.34471527 264.6875 283.4375 C272.18587535 287.98554607 279.77757474 291.03276019 288.1875 293.375 C288.92170166 293.58672852 289.65590332 293.79845703 290.41235352 294.01660156 C301.95086534 296.96431408 313.95270183 295.40977901 325.57421875 293.72265625 C326.83788773 293.54745956 328.1015567 293.37226288 329.40351868 293.1917572 C332.72262905 292.73029204 336.04042405 292.2610434 339.35778809 291.78729248 C344.03008716 291.12186096 348.70436681 290.47051849 353.37861633 289.81895447 C355.85452839 289.47303063 358.32997649 289.12376299 360.80485535 288.77052307 C366.13889406 288.01829928 371.47545514 287.30359975 376.83129883 286.72436523 C378.12466911 286.58296364 378.12466911 286.58296364 379.44416809 286.43870544 C381.6875 286.4375 381.6875 286.4375 384.875 288 C386.6875 290.4375 386.6875 290.4375 387.3125 293.4375 C386.6875 296.4375 386.6875 296.4375 384.89013672 298.49780273 C380.11594848 301.38932016 375.29919392 301.76579417 369.8203125 302.47265625 C368.64502487 302.63667938 367.46973724 302.80070251 366.25883484 302.96969604 C362.44547046 303.49662842 358.62937552 303.99918893 354.8125 304.5 C352.20132561 304.85358105 349.59024156 305.20782991 346.97924805 305.56274414 C329.24940195 307.94779367 311.52665188 310.06889161 293.6875 311.4375 C292.20769653 311.57236816 292.20769653 311.57236816 290.69799805 311.70996094 C282.97615417 312.36312553 275.28941972 312.55121226 267.54296875 312.6484375 C266.44092606 312.6628035 265.33888336 312.67716949 264.20344543 312.69197083 C259.60824514 312.74926934 255.01315473 312.80381977 250.41772461 312.83886719 C234.7850604 312.9677414 219.59417497 313.16623688 204.6875 318.4375 C205.0175 318.97375 205.3475 319.51 205.6875 320.0625 C206.95248755 323.06684544 207.03136442 325.20517442 206.6875 328.4375 C204.37933384 331.5475508 201.93283725 332.12210156 198.2421875 332.953125 C197.16936523 333.20126953 196.09654297 333.44941406 194.99121094 333.70507812 C193.35587402 334.06762695 193.35587402 334.06762695 191.6875 334.4375 C189.73147275 334.8893365 187.77573577 335.34243173 185.8203125 335.796875 C182.85570736 336.483984 179.89127625 337.16982857 176.921875 337.8359375 C165.98574595 340.39426075 155.35783767 343.9558104 144.6875 347.4375 C154.31248992 347.53130792 163.93731603 347.60181439 173.56266785 347.64474869 C178.03494727 347.66538324 182.5069079 347.69324241 186.97900391 347.73925781 C206.06402657 347.93044392 224.60587717 348.05715443 243.35829163 343.94499207 C246.45375173 343.27054771 249.56454468 342.69261238 252.67907715 342.11395264 C254.50592224 341.77227152 256.32929314 341.41216116 258.15234375 341.05078125 C266.0858619 339.67446926 273.89900532 339.26792706 281.94287109 339.18457031 C283.57621399 339.1624926 283.57621399 339.1624926 285.24255371 339.13996887 C288.81530648 339.09336693 292.38808554 339.05382231 295.9609375 339.015625 C297.18458637 339.00176506 298.40823524 338.98790512 299.66896439 338.97362518 C306.13033897 338.90063039 312.59174354 338.83305835 319.05322266 338.77001953 C324.40363739 338.71698607 329.75380589 338.65492198 335.10400391 338.58349609 C341.57221734 338.49759064 348.04042809 338.42634 354.50893021 338.36611176 C356.97382899 338.34081912 359.43868093 338.31044141 361.90345383 338.27494049 C365.3385013 338.22672524 368.77320956 338.19740995 372.20849609 338.17285156 C373.23085358 338.15428604 374.25321106 338.13572052 375.30654907 338.11659241 C376.24005188 338.11374741 377.17355469 338.1109024 378.13534546 338.10797119 C378.94681723 338.09913029 379.75828899 338.09028938 380.59435081 338.08118057 C383.22158521 338.528418 384.07244827 339.35630528 385.6875 341.4375 C386.64847201 344.32041602 386.91371077 345.81107018 385.875 348.6875 C384.6875 350.4375 384.6875 350.4375 382.6875 351.4375 C372.09977848 352.72823134 361.36781881 352.60933051 350.71942902 352.66729546 C347.75607198 352.68399991 344.79282731 352.70724246 341.82952881 352.73219299 C333.41408091 352.80217129 324.99858902 352.8628144 316.58300781 352.91430664 C311.40555443 352.94644051 306.22823702 352.98778682 301.05089569 353.03450203 C299.10087311 353.05030527 297.15081953 353.06272386 295.20075226 353.07140923 C278.14209851 353.1485029 261.74138341 354.56194625 245 358 C242.80888938 358.44027589 240.61749073 358.87912124 238.42578125 359.31640625 C237.48774658 359.5079126 236.54971191 359.69941895 235.58325195 359.89672852 C229.92678143 360.95305448 224.49570898 361.56482064 218.73828125 361.5703125 C218.06770691 361.57176773 217.39713257 361.57322296 216.70623779 361.57472229 C214.47077041 361.5769876 212.23545271 361.57060919 210 361.5625 C209.22324921 361.56061676 208.44649841 361.55873352 207.64620972 361.55679321 C201.3264343 361.539208 195.00705706 361.49138711 188.6875 361.4375 C187.60025635 361.42889954 186.5130127 361.42029907 185.39282227 361.41143799 C178.34877772 361.35371839 171.30535763 361.27485853 164.2618103 361.17303467 C161.92644218 361.14109142 159.59100366 361.11392695 157.25552368 361.09161377 C153.9525211 361.05834972 150.65032486 361.00615309 147.34765625 360.94921875 C146.35852234 360.94281876 145.36938843 360.93641876 144.35028076 360.92982483 C139.05795284 360.81632041 135.26391436 360.39814016 130.6875 357.4375 C127.8989368 354.3581508 126.7622372 351.22971435 126.375 347.125 C126.6875 344.4375 126.6875 344.4375 127.6875 342.4375 C126.83671875 342.93636719 125.9859375 343.43523437 125.109375 343.94921875 C119.02740454 346.52480893 112.3894726 345.55365351 105.9375 345.25 C104.45365995 345.19143225 102.9697711 345.13409007 101.48583984 345.07788086 C97.42585525 344.91924888 93.36711073 344.738388 89.30822754 344.55395508 C85.67601393 344.39255344 82.0432248 344.24658506 78.41040039 344.09968567 C73.71075033 343.90781917 69.01163656 343.70398896 64.3125 343.5 C63.42904907 343.46274811 62.54559814 343.42549622 61.63537598 343.38711548 C27.96287793 341.94328076 27.96287793 341.94328076 13.0625 338.375 C11.72880371 338.06453735 11.72880371 338.06453735 10.36816406 337.74780273 C-2.28774298 334.64717104 -14.50164049 330.00958798 -26.73046875 325.55712891 C-44.43292074 319.14912732 -62.88986656 315.35471971 -81.30078125 311.578125 C-82.41746941 311.34747597 -82.41746941 311.34747597 -83.55671692 311.11216736 C-87.16786256 310.36665624 -90.78047011 309.63256897 -94.39868164 308.92211914 C-103.53303042 307.08669453 -111.88658255 305.26099415 -117.9296875 297.6328125 C-125.22801838 286.0461968 -126.84917283 274.00148479 -124.125 260.75 C-120.97748394 248.42222878 -113.10058597 240.5013082 -102.4375 234 C-97.05 230.80625 -97.05 230.80625 -94.3125 229.4375 C-94.54839844 228.45330078 -94.54839844 228.45330078 -94.7890625 227.44921875 C-96.46244878 217.82100368 -96.77419531 207.90148248 -91.50390625 199.41796875 C-90.25993646 197.35012389 -89.64524024 195.8229195 -89.3125 193.4375 C-89.46686523 192.82608154 -89.62123047 192.21466309 -89.78027344 191.5847168 C-92.47240929 180.72355405 -91.02457997 167.41947626 -86.3125 157.4375 C-85.88839844 156.5196875 -85.46429688 155.601875 -85.02734375 154.65625 C-73.47832551 131.75123333 -51.09407243 117.33333664 -27.38012695 109.32788086 C-0.25608311 100.66522811 28.10316726 100.28461878 53.83984375 113.43701172 C62.91717478 118.35230011 70.1098175 124.66171611 77.18359375 132.0546875 C80.47782448 135.18960286 83.53414556 136.64726102 87.6875 138.4375 C92.43983332 141.60572221 95.43266504 145.82928005 98.6875 150.4375 C98.70167969 149.73109375 98.71585938 149.0246875 98.73046875 148.296875 C99.11211802 140.08625832 100.70215794 132.65759682 102.9597168 124.77050781 C104.65364068 118.59797527 106.63386702 111.11962267 103.49169922 105.17529297 C102.02116296 103.10372296 100.43232733 101.28313957 98.6875 99.4375 C98.16929687 98.86515625 97.65109375 98.2928125 97.1171875 97.703125 C92.82800803 93.18601812 88.00057222 89.33565267 83.140625 85.453125 C81.19754385 83.85658062 79.4158014 82.25797747 77.6875 80.4375 C75.52995947 81.43921525 73.71751087 82.41291045 71.87109375 83.92578125 C67.39454899 87.02492762 61.56165257 87.82798518 56.21484375 87.1015625 C47.3729661 84.52331344 42.03499204 78.10086072 37.0625 70.6875 C36.01798371 69.16984516 34.9723739 67.65294246 33.92578125 66.13671875 C33.39291504 65.35989746 32.86004883 64.58307617 32.31103516 63.78271484 C29.67958803 59.9815598 26.96538202 56.24142957 24.25 52.5 C23.71181641 51.7560498 23.17363281 51.01209961 22.61914062 50.24560547 C19.87188646 46.44807506 17.11888041 42.65475909 14.36328125 38.86328125 C11.65354782 35.13325798 8.96349706 31.38953746 6.27929688 27.64111328 C4.66873994 25.4115294 3.03110583 23.2037206 1.390625 20.99609375 C0.3637615 19.5813253 -0.66231483 18.16598509 -1.6875 16.75 C-2.17041504 16.11497559 -2.65333008 15.47995117 -3.15087891 14.82568359 C-5.59900773 11.39209852 -6.32455864 9.97520574 -6.2265625 5.60546875 C-5.00170146 1.3603307 -4.41889684 0.58362788 0 0 Z M58.515625 25.90625 C53.30407573 32.19305723 53.30407573 32.19305723 49.6875 39.4375 C50.97285653 43.29356959 52.59220647 44.0783987 55.875 46.4375 C56.97245758 47.23807291 58.06876511 48.04022417 59.1640625 48.84375 C59.7405957 49.26527344 60.31712891 49.68679687 60.91113281 50.12109375 C70.06918643 56.90782067 78.93451771 64.14134145 87.6875 71.4375 C88.22874512 71.88706055 88.76999023 72.33662109 89.32763672 72.79980469 C116.55729317 95.48990487 116.55729317 95.48990487 118.625 107.9375 C119.23269073 117.1093903 116.56663504 126.63124808 114 135.375 C110.29842468 148.57532679 114.18722628 163.62602702 120.6875 175.4375 C122.1725 176.4275 122.1725 176.4275 123.6875 177.4375 C123.57921875 175.52324219 123.57921875 175.52324219 123.46875 173.5703125 C123.37497083 171.90104331 123.28122243 170.23177238 123.1875 168.5625 C123.11595703 167.29986328 123.11595703 167.29986328 123.04296875 166.01171875 C122.97529297 164.80322266 122.97529297 164.80322266 122.90625 163.5703125 C122.86435547 162.82668457 122.82246094 162.08305664 122.77929688 161.31689453 C122.7161929 160.02494125 122.6875 158.73099349 122.6875 157.4375 C124.14542884 157.38350264 125.60392712 157.34470823 127.0625 157.3125 C127.87460938 157.28929687 128.68671875 157.26609375 129.5234375 157.2421875 C131.6875 157.4375 131.6875 157.4375 133.6875 159.4375 C134.27360026 161.9460091 134.76222319 164.40174004 135.1875 166.9375 C135.44637246 168.38936611 135.7054869 169.84118909 135.96484375 171.29296875 C136.20593388 172.67444346 136.44683441 174.05595127 136.6875 175.4375 C137.03332522 177.37650624 137.38581264 179.31435854 137.75 181.25 C137.88535156 181.99894531 138.02070313 182.74789062 138.16015625 183.51953125 C138.66291532 185.74107817 138.66291532 185.74107817 140.6875 188.4375 C140.71686502 184.62501655 140.73442035 180.81256274 140.75 177 C140.76256836 175.39608398 140.76256836 175.39608398 140.77539062 173.75976562 C140.79436841 167.55402896 140.42642342 161.59519513 139.6875 155.4375 C140.125 152.375 140.125 152.375 140.6875 150.4375 C142.14492463 150.35653197 143.60362807 150.29832226 145.0625 150.25 C145.87460937 150.21519531 146.68671875 150.18039063 147.5234375 150.14453125 C148.23757813 150.24121094 148.95171875 150.33789062 149.6875 150.4375 C152.17030099 154.16170148 152.34387935 157.47427368 152.75 161.8125 C152.83378906 162.64015869 152.91757812 163.46781738 153.00390625 164.32055664 C153.7125523 171.72743037 154.06417495 179.14426818 154.25805664 186.58154297 C154.28633545 187.41959473 154.31461426 188.25764648 154.34375 189.12109375 C154.37178711 190.22795532 154.37178711 190.22795532 154.40039062 191.35717773 C154.72584907 193.71536772 155.52193206 195.37652695 156.6875 197.4375 C157.3475 197.4375 158.0075 197.4375 158.6875 197.4375 C161.52310132 191.76629735 160.86307772 183.92769895 161.00390625 177.68359375 C161.0350779 176.50410912 161.0350779 176.50410912 161.06687927 175.30079651 C161.13148588 172.82560693 161.19083946 170.3503251 161.25 167.875 C161.29327011 166.18163165 161.33688687 164.48827213 161.38085938 162.79492188 C161.48707391 158.67587218 161.58858247 154.55673113 161.6875 150.4375 C162.6775 150.1075 163.6675 149.7775 164.6875 149.4375 C165.73145727 147.05443768 165.73145727 147.05443768 166.5 144.125 C168.54767275 137.49784206 171.44982498 131.55421528 174.6875 125.4375 C175.0175 124.7775 175.3475 124.1175 175.6875 123.4375 C173.78022449 119.51915167 171.34547572 117.00147919 168.0625 114.1875 C142.96672001 92.06980099 126.11514642 62.24249455 108.7265625 34.0078125 C107.70598755 32.35785278 107.70598755 32.35785278 106.66479492 30.67456055 C105.32846061 28.51291384 103.99767752 26.34782319 102.6730957 24.17895508 C102.06812256 23.20079834 101.46314941 22.2226416 100.83984375 21.21484375 C100.30351318 20.34077881 99.76718262 19.46671387 99.21459961 18.56616211 C96.85413851 15.2758567 95.03273553 14.49702337 91.0625 13.8125 C89.60589991 13.66870401 88.14726452 13.54449845 86.6875 13.4375 C85.95917969 13.38335937 85.23085937 13.32921875 84.48046875 13.2734375 C73.00480393 12.8312928 65.91370256 17.49692442 58.515625 25.90625 Z M212.8125 62.625 C211.22898406 66.58378986 211.43986864 70.22776692 211.6875 74.4375 C212.81929688 74.34210938 213.95109375 74.24671875 215.1171875 74.1484375 C216.59891612 74.03590115 218.08068945 73.92395242 219.5625 73.8125 C220.30886719 73.74804688 221.05523437 73.68359375 221.82421875 73.6171875 C223.7745047 73.47662635 225.73219467 73.44990151 227.6875 73.4375 C229.6875 75.4375 229.6875 75.4375 229.6875 84.4375 C223.7475 85.7575 217.8075 87.0775 211.6875 88.4375 C211.6875 91.4075 211.6875 94.3775 211.6875 97.4375 C212.88375 97.293125 214.08 97.14875 215.3125 97 C216.04210937 96.91234375 216.77171875 96.8246875 217.5234375 96.734375 C219.34069183 96.48507657 221.14293807 96.12961887 222.9375 95.75 C226.02165373 95.39952798 227.1864009 95.65100064 229.6875 97.4375 C230.3475 98.4275 231.0075 99.4175 231.6875 100.4375 C232.40572765 96.13348263 233.11759046 91.82847392 233.82373047 87.52246094 C234.06452209 86.05961144 234.30701067 84.59704017 234.55126953 83.13476562 C234.90329944 81.02545986 235.24909087 78.91520861 235.59375 76.8046875 C235.80322266 75.53737793 236.01269531 74.27006836 236.22851562 72.96435547 C237.16798598 67.0974442 237.16798598 67.0974442 235.6640625 61.57421875 C232.32787703 57.76907239 232.32787703 57.76907239 227.734375 56.19921875 C221.05998986 55.98354984 217.28811886 57.40344466 212.8125 62.625 Z M48.6875 57.4375 C49.25976683 63.54167952 53.07299806 69.47530985 57.6875 73.4375 C60.1875 73.9375 60.1875 73.9375 62.6875 73.4375 C64.33621427 71.9661866 64.33621427 71.9661866 65.6875 70.4375 C63.04486555 68.2669073 60.39787597 66.1016943 57.75 63.9375 C56.99525391 63.31746094 56.24050781 62.69742188 55.46289062 62.05859375 C54.74423828 61.47207031 54.02558594 60.88554688 53.28515625 60.28125 C52.62008057 59.73662109 51.95500488 59.19199219 51.26977539 58.63085938 C49.88474288 57.33714229 49.88474288 57.33714229 48.6875 57.4375 Z M188.6875 107.4375 C186.52237677 109.19225062 186.52237677 109.19225062 186.45703125 111.3125 C186.47121094 112.01375 186.48539062 112.715 186.5 113.4375 C186.50644531 114.13875 186.51289063 114.84 186.51953125 115.5625 C186.58043867 117.52806373 186.58043867 117.52806373 187.6875 119.4375 C190.9608498 119.13992275 193.22220347 118.73931397 196 116.9375 C198.44818275 113.31056259 198.50389961 109.73374913 198.6875 105.4375 C194.25680552 104.04499602 192.3972976 104.7303504 188.6875 107.4375 Z M219.625 108.875 C217.72041016 109.27525391 217.72041016 109.27525391 215.77734375 109.68359375 C212.83333954 110.1185469 212.83333954 110.1185469 211.6875 111.4375 C211.64657063 113.77047433 211.64508277 116.10455225 211.6875 118.4375 C217.2290502 120.40013236 220.89608017 120.45353857 226.6875 119.4375 C227.0175 118.2 227.3475 116.9625 227.6875 115.6875 C227.873125 114.99140625 228.05875 114.2953125 228.25 113.578125 C228.82099349 111.14848139 228.82099349 111.14848139 228.6875 107.4375 C225.57777591 107.4375 222.66169703 108.22935434 219.625 108.875 Z M-62 145.5625 C-70.92735204 154.7840198 -77.13544233 165.45903543 -77.3671875 178.51953125 C-76.87559374 192.33331593 -70.37059106 205.92963274 -60.3125 215.4375 C-60.02117187 214.65246094 -59.72984375 213.86742187 -59.4296875 213.05859375 C-56.37427514 205.22789855 -53.57098901 198.18739909 -45.609375 194.46484375 C-39.48147514 191.85260616 -33.00410348 190.70401766 -26.49984741 189.43011475 C-22.80289782 188.70315545 -19.11422307 187.9367709 -15.42578125 187.16796875 C-14.70989334 187.01894104 -13.99400543 186.86991333 -13.25642395 186.71636963 C13.23779817 181.42045906 13.23779817 181.42045906 33.6875 165.4375 C33.0387793 165.50461182 32.39005859 165.57172363 31.72167969 165.64086914 C25.40055058 166.23556425 19.11005413 166.55326603 12.765625 166.68359375 C11.57350403 166.7085643 11.57350403 166.7085643 10.3572998 166.73403931 C7.06185399 166.80014025 3.76639495 166.86179215 0.47070312 166.91430664 C-20.67967178 167.20380086 -20.67967178 167.20380086 -40.96875 172.609375 C-44.32481374 173.79518419 -46.79273782 173.88683134 -50.3125 173.4375 C-52.3125 171.4375 -52.3125 171.4375 -52.625 168.5 C-52.26973745 165.01842702 -51.88320013 164.5964175 -49.3125 162.4375 C-36.62033451 154.33358213 -18.74027956 154.98739564 -4.25 154.875 C24.56843544 155.10326106 24.56843544 155.10326106 49.3984375 142.2421875 C53.4853681 139.02006816 57.60315642 138.14694329 62.6875 137.4375 C49.98469656 123.505393 31.21849924 117.51159919 12.83178711 116.51416016 C-14.73636978 115.59030748 -42.02760494 126.87599887 -62 145.5625 Z M184.6875 134.4375 C182.59084672 137.59684056 181.08978207 140.92163336 179.6875 144.4375 C179.31753906 145.34371094 178.94757813 146.24992188 178.56640625 147.18359375 C177.41944328 151.42990553 177.35769414 155.37161764 177.375 159.75 C177.35888672 160.55373047 177.34277344 161.35746094 177.32617188 162.18554688 C177.31806284 172.26507748 180.26624626 178.95028892 187.23046875 186.20703125 C190.77617171 189.42578545 194.28983501 191.57869315 198.6875 193.4375 C199.72003906 193.91316406 199.72003906 193.91316406 200.7734375 194.3984375 C213.88088189 199.41146009 230.91064218 197.38681918 243.6875 192.4375 C247.25193857 190.70511641 250.47045164 188.74577764 253.6875 186.4375 C254.76 185.695 255.8325 184.9525 256.9375 184.1875 C260.71080496 180.41419504 263.1367181 176.09584282 265.6875 171.4375 C265.08035156 171.13714844 264.47320312 170.83679688 263.84765625 170.52734375 C257.3826186 167.26559781 257.3826186 167.26559781 255.33984375 164.83203125 C253.75347321 163.2077374 253.75347321 163.2077374 251.3828125 163.3203125 C250.53460938 163.40023437 249.68640625 163.48015625 248.8125 163.5625 C245.03057113 163.65622127 243.97780476 163.62498849 240.6875 161.5 C237.30380209 156.31871258 236.49268901 151.23829979 236.9375 145.125 C236.855 143.908125 236.7725 142.69125 236.6875 141.4375 C233.92795872 139.09780012 233.92795872 139.09780012 230.6875 137.4375 C229.6875 136.10416667 228.6875 134.77083333 227.6875 133.4375 C226.6975 133.4375 225.7075 133.4375 224.6875 133.4375 C224.70321045 134.44651367 224.7189209 135.45552734 224.73510742 136.49511719 C224.7894768 140.24471021 224.82387532 143.9942685 224.85229492 147.74414062 C224.86736565 149.36594506 224.88782593 150.98770884 224.91381836 152.609375 C224.95027829 154.94281046 224.96724314 157.27570631 224.98046875 159.609375 C224.99595261 160.33243835 225.01143646 161.05550171 225.02738953 161.80047607 C225.0284328 164.93317674 224.85928468 167.11970936 223.35668945 169.89941406 C221.6875 171.4375 221.6875 171.4375 218.6875 171.875 C215.6875 171.4375 215.6875 171.4375 214.03198242 170.39331055 C211.96310493 167.38372682 212.20676558 164.23814567 212.17578125 160.70703125 C212.15783005 159.95661057 212.13987885 159.20618988 212.12138367 158.43302917 C212.06724813 156.0387431 212.03337584 153.64465669 212 151.25 C211.96682964 149.62562323 211.93234024 148.00127283 211.89648438 146.37695312 C211.8115203 142.39727944 211.74472535 138.4176653 211.6875 134.4375 C205.26345225 140.78104262 200.88604112 147.33471651 197.44921875 155.6875 C196.6875 157.4375 196.6875 157.4375 195.6875 158.4375 C192.25 158.625 192.25 158.625 188.6875 158.4375 C188.0275 157.7775 187.3675 157.1175 186.6875 156.4375 C186.6875 149.27113926 188.94566776 144.30331287 192.3125 138.0390625 C193.7786896 135.43679488 193.7786896 135.43679488 194.6875 132.4375 C190.46793471 132.4375 188.40285358 132.4660879 184.6875 134.4375 Z M-81.3125 210.4375 C-82.88846305 212.01346305 -82.59668746 213.56002067 -82.6875 215.75 C-82.48614482 229.94553997 -71.86628216 245.30492899 -62.48828125 255.3515625 C-60.17773267 257.56670243 -57.95237913 259.62071727 -55.3125 261.4375 C-53.8275 260.9425 -53.8275 260.9425 -52.3125 260.4375 C-52.63863281 259.71046875 -52.96476562 258.9834375 -53.30078125 258.234375 C-55.60355125 252.93596615 -57.49158035 247.99945261 -58.5625 242.3125 C-59.92190502 236.4495912 -62.57388219 233.37542842 -66.7578125 229.1640625 C-70.27055721 225.41498634 -73.1134536 221.29564139 -76.03735352 217.08251953 C-77.69145419 214.70310021 -79.25820737 212.49179263 -81.3125 210.4375 Z M-104.25 252.875 C-110.49314509 259.52626589 -111.90488639 265.13536837 -111.65625 274.1484375 C-110.97628428 280.65447318 -109.00144061 286.19752379 -104.3125 290.875 C-101.35093138 293.02576453 -98.7313325 294.01930958 -95.1796875 294.859375 C-93.58398926 295.23727173 -93.58398926 295.23727173 -91.95605469 295.62280273 C-86.38630826 296.86819565 -80.80667041 298.0631452 -75.22192383 299.23925781 C-54.51480766 303.60202331 -34.43444438 308.52547702 -14.50369263 315.68988037 C6.95408977 323.40316412 26.82786682 328.21798002 49.6875 329.4375 C50.47211609 329.48026062 51.25673218 329.52302124 52.06512451 329.56707764 C58.48007847 329.91610661 64.89587198 330.24578856 71.3125 330.5625 C72.21664642 330.60724457 73.12079285 330.65198914 74.05233765 330.6980896 C84.60691923 331.21143658 95.11799789 331.57608036 105.6875 331.4375 C102.29117836 329.4358381 99.28956752 328.99054474 95.390625 328.5859375 C94.18535156 328.45703125 92.98007813 328.328125 91.73828125 328.1953125 C90.48402344 328.06898438 89.22976562 327.94265625 87.9375 327.8125 C86.66777344 327.6784375 85.39804688 327.544375 84.08984375 327.40625 C80.95638432 327.07641217 77.82235271 326.75377406 74.6875 326.4375 C73.55908203 320.79296875 73.55908203 320.79296875 74.71484375 317.59375 C76.6875 315.4375 76.6875 315.4375 79.62890625 314.84375 C109.03702515 315.60512525 109.03702515 315.60512525 119.6875 323.4375 C120.47769531 324.47132813 121.26789063 325.50515625 122.08203125 326.5703125 C125.17777904 329.74172111 127.79998819 329.93040458 132.15234375 330.12890625 C134.64357124 330.1169865 137.1348131 330.0729772 139.625 330 C141.49961914 329.99709961 141.49961914 329.99709961 143.41210938 329.99414062 C149.8748979 329.90147186 155.00081411 329.61560314 160.6875 326.4375 C157.01190613 323.98710409 153.27805307 323.1094762 149.05859375 322.01171875 C148.19549088 321.78225052 147.332388 321.55278229 146.44313049 321.31636047 C143.67178308 320.58064216 140.89849964 319.85255834 138.125 319.125 C135.4165725 318.40952515 132.70857821 317.69245547 130.00097656 316.97386169 C128.20164469 316.49793327 126.40133967 316.02566934 124.60009766 315.55702209 C120.31346144 314.43550315 116.06210457 313.26451997 111.83789062 311.92553711 C102.11636257 308.88536083 94.53851329 308.01273681 84.3125 309.625 C58.52737436 312.91961133 32.33724389 313.55452856 7.6875 304.4375 C6.51574219 304.00566406 5.34398437 303.57382812 4.13671875 303.12890625 C-9.12360945 297.82777844 -20.86436326 290.0439983 -31.796875 280.92895508 C-36.61903318 276.95516638 -39.23500138 276.28956854 -45.3125 276.6875 C-56.18904455 276.77462853 -65.35469309 271.07180608 -73.0390625 263.8046875 C-77.69425408 258.89441693 -80.98824605 253.22897623 -84.29272461 247.36547852 C-85.24862467 245.69281227 -86.27477115 244.06066855 -87.3125 242.4375 C-93.50282813 242.4375 -100.03850691 248.84301317 -104.25 252.875 Z M131.6875 290.4375 C128.39869996 294.11512369 125.85319799 298.01843795 123.6875 302.4375 C124.8520874 302.74453857 126.0166748 303.05157715 127.21655273 303.36791992 C131.57533972 304.52055803 135.92969898 305.68922543 140.28295898 306.86254883 C142.1603862 307.36621735 144.03895574 307.86564919 145.91870117 308.3605957 C148.63518539 309.0766745 151.34706715 309.80836911 154.05859375 310.54296875 C154.88709335 310.7577739 155.71559296 310.97257904 156.56919861 311.19389343 C164.85241772 313.46980438 171.94809157 316.95752274 177.6875 323.4375 C181.28142602 319.94625758 184.48371606 316.29847039 187.6875 312.4375 C189.00293863 311.08650897 190.32925118 309.74544331 191.6875 308.4375 C187.81733219 307.1266079 183.93776359 305.90525224 180.01171875 304.7734375 C151.72762889 296.4642526 151.72762889 296.4642526 139.6875 288.4375 C136.20680494 288.4375 134.73717342 288.7353567 131.6875 290.4375 Z " fill="#487BE8" transform="translate(125.3125,-0.4375)"/>
<path d="M0 0 C5.08637486 3.7852092 8.3103499 9.29887777 9.46875 15.515625 C9.71372631 17.67958241 9.8993035 19.8249556 10 22 C11.43666016 22.05607422 11.43666016 22.05607422 12.90234375 22.11328125 C49.25647555 23.79805247 49.25647555 23.79805247 60.79296875 34.6328125 C63.41343574 37.60097899 63.14833656 40.1422865 63.19287109 43.9909668 C63.20893402 45.24955002 63.22499695 46.50813324 63.24154663 47.80485535 C63.25303607 49.18630294 63.26364428 50.56775809 63.2734375 51.94921875 C63.27876118 52.64473154 63.28408485 53.34024433 63.28956985 54.05683327 C63.31630339 57.74124677 63.33567386 61.42562644 63.35009766 65.11010742 C63.36341508 68.15305795 63.39122467 71.19533438 63.43212891 74.23803711 C63.48158221 77.91681783 63.50623445 81.594989 63.51332474 85.27408791 C63.52001765 86.67228662 63.53518879 88.07047278 63.55921555 89.46848106 C63.69064591 97.58153033 63.76532817 102.98794504 58 109 C43.26245655 122.541734 15.61354604 121.2142441 -3.0625 121.1875 C-3.8393515 121.18689575 -4.616203 121.1862915 -5.41659546 121.18566895 C-47.70000735 121.09627599 -47.70000735 121.09627599 -63 109 C-67.38667829 104.27408525 -68.11938494 99.46862123 -68.16113281 93.22509766 C-68.17074036 92.06354156 -68.1803479 90.90198547 -68.19024658 89.70523071 C-68.19449646 88.4541452 -68.19874634 87.20305969 -68.203125 85.9140625 C-68.20882507 84.62438568 -68.21452515 83.33470886 -68.22039795 82.00595093 C-68.23088665 79.27740079 -68.23674335 76.54887994 -68.24023438 73.8203125 C-68.24571724 70.33452847 -68.26974928 66.8491354 -68.29820633 63.36347389 C-68.32137639 60.02617786 -68.32328487 56.68893477 -68.328125 53.3515625 C-68.3404718 52.10452545 -68.3528186 50.8574884 -68.36553955 49.57266235 C-68.33422243 37.38578257 -68.33422243 37.38578257 -63.484375 32.4609375 C-50.17404353 24.12699122 -32.28991019 22.93712353 -17 22 C-16.96132812 21.05640625 -16.96132812 21.05640625 -16.921875 20.09375 C-16.42417125 12.58294789 -14.85531543 7.0868275 -9.6875 1.5 C-6.11886888 -0.49179412 -4.02859136 -0.64745218 0 0 Z M-4 22 C-4.18175781 23.27617187 -4.36351562 24.55234375 -4.55078125 25.8671875 C-4.80400107 27.5365626 -5.05794494 29.20582798 -5.3125 30.875 C-5.43044922 31.71675781 -5.54839844 32.55851562 -5.66992188 33.42578125 C-5.79560547 34.23144531 -5.92128906 35.03710938 -6.05078125 35.8671875 C-6.16075439 36.61081543 -6.27072754 37.35444336 -6.3840332 38.12060547 C-7 40 -7 40 -10 42 C-13.6875 41.625 -13.6875 41.625 -17 41 C-17.66 39.35 -18.32 37.7 -19 36 C-29.77978583 36.34167308 -39.60362498 38.29392176 -50 41 C-47.74846497 43.25153503 -46.85834595 43.42974521 -43.81640625 44.03515625 C-42.97674316 44.2043457 -42.13708008 44.37353516 -41.27197266 44.54785156 C-39.93078369 44.80260254 -39.93078369 44.80260254 -38.5625 45.0625 C-37.65032715 45.2387793 -36.7381543 45.41505859 -35.79833984 45.59667969 C-24.7759276 47.67504578 -14.21614271 48.14736538 -3 48 C-1.85056342 45.70112683 -1.87101094 44.37909386 -1.8671875 41.82421875 C-1.86589844 40.99599609 -1.86460938 40.16777344 -1.86328125 39.31445312 C-1.86908203 38.01411133 -1.86908203 38.01411133 -1.875 36.6875 C-1.87113281 35.83220703 -1.86726563 34.97691406 -1.86328125 34.09570312 C-1.86972372 29.93709131 -1.94677495 26.05408054 -3 22 C-3.33 22 -3.66 22 -4 22 Z M12 36 C11.67 39.96 11.34 43.92 11 48 C29.72322578 47.7009236 29.72322578 47.7009236 46 41 C43.50145233 40.34807312 41.0013863 39.70336936 38.5 39.0625 C37.80390625 38.88009766 37.1078125 38.69769531 36.390625 38.50976562 C29.79412787 36.830102 23.33546371 35.842563 16.5 35.9375 C14.2725 35.9684375 14.2725 35.9684375 12 36 Z M-54 55 C-54.12361242 61.0505426 -54.2143458 67.10035017 -54.2746582 73.15185547 C-54.29980019 75.21025393 -54.33391876 77.26856314 -54.37719727 79.32666016 C-54.4378627 82.28570569 -54.46621261 85.24357103 -54.48828125 88.203125 C-54.51408768 89.12305237 -54.5398941 90.04297974 -54.56648254 90.99078369 C-54.62969022 96.29392299 -54.62969022 96.29392299 -51.65673828 100.53759766 C-27.28668829 113.95209862 14.01336086 110.19660992 39.87109375 103.1953125 C43.63381138 101.75786981 47.12310629 99.87689371 50 97 C50.08874135 93.89748799 50.11518455 90.8173188 50.09765625 87.71484375 C50.0962413 86.78402481 50.09482635 85.85320587 50.09336853 84.8941803 C50.08775172 81.90858809 50.0751964 78.92306971 50.0625 75.9375 C50.05748716 73.91862087 50.05292388 71.89974057 50.04882812 69.88085938 C50.03777683 64.92054428 50.02050095 59.96028468 50 55 C49.45796432 55.11462585 48.91592865 55.22925171 48.35746765 55.34735107 C38.2088979 57.47794918 28.17867465 59.54988 17.8125 60.25 C16.801875 60.32444336 15.79125 60.39888672 14.75 60.47558594 C2.10462053 61.34726553 -10.23476238 61.17695076 -22.875 60.25 C-24.25461914 60.1576709 -24.25461914 60.1576709 -25.66210938 60.06347656 C-35.27473305 59.26408308 -44.60308259 57.09367109 -54 55 Z " fill="#487BE8" transform="translate(97,390)"/>
<path d="M0 0 C8.87011525 3.3321597 17.41016833 7.57033666 21.8125 16.375 C22.27395874 20.98958744 22.55869403 24.0162076 19.625 27.75 C16.93486414 30.26079347 15.19136147 31.15974562 11.8125 32.375 C12.52535156 32.72691406 13.23820312 33.07882812 13.97265625 33.44140625 C22.50391969 37.8390831 29.53646812 42.49370227 33.14453125 51.7265625 C35.09459371 59.45838909 35.13613671 66.98310194 31.125 74 C27.25064987 79.5347859 23.4783031 82.77520725 16.8125 84.375 C11.96715145 84.72109632 8.33175525 84.1386118 3.8125 82.375 C3.48378906 83.02726562 3.15507812 83.67953125 2.81640625 84.3515625 C-1.42189095 92.13900288 -6.06276417 96.62053161 -14.5078125 99.51171875 C-23.4670077 101.61361062 -32.9001719 101.51866405 -41.1875 97.375 C-42.095 96.9625 -43.0025 96.55 -43.9375 96.125 C-48.00927828 92.95806133 -50.23932176 88.43507989 -51.1875 83.375 C-51.25374507 81.62613019 -51.27302595 79.87497252 -51.25 78.125 C-51.24097656 77.23296875 -51.23195313 76.3409375 -51.22265625 75.421875 C-51.21105469 74.74640625 -51.19945312 74.0709375 -51.1875 73.375 C-51.82816406 74.26703125 -52.46882813 75.1590625 -53.12890625 76.078125 C-54.00192197 77.26092049 -54.87565867 78.44318408 -55.75 79.625 C-56.16830078 80.21152344 -56.58660156 80.79804688 -57.01757812 81.40234375 C-60.77808473 86.43520221 -64.68359718 89.7284182 -71.06640625 90.90625 C-76.93712032 90.83788652 -80.64369295 90.4755088 -85.1875 86.375 C-91.16759178 79.89656724 -91.72614236 73.79330887 -91.5 65.23828125 C-90.78225602 56.3651713 -87.28293203 48.86053968 -81.1875 42.375 C-80.1975 41.715 -79.2075 41.055 -78.1875 40.375 C-78.8475 39.776875 -79.5075 39.17875 -80.1875 38.5625 C-83.14947474 33.84185276 -83.00504249 29.805818 -82.1875 24.375 C-79.59762563 15.90810303 -73.86137914 9.63013385 -66.2265625 5.25 C-58.94174823 1.94161274 -49.96137119 0.74902208 -42.3203125 3.3515625 C-34.99014223 6.81480237 -34.99014223 6.81480237 -33.1875 11.375 C-32.5275 11.375 -31.8675 11.375 -31.1875 11.375 C-30.960625 10.653125 -30.73375 9.93125 -30.5 9.1875 C-24.62598135 -3.39968283 -11.75993583 -3.63129802 0 0 Z M-19.07421875 15.37890625 C-22.47786695 21.48158775 -22.57685337 27.99347579 -22.8125 34.8125 C-22.85117187 35.73482422 -22.88984375 36.65714844 -22.9296875 37.60742188 C-23.02318676 39.86309143 -23.1089391 42.11876916 -23.1875 44.375 C-29.8125 45.5 -29.8125 45.5 -33.1875 44.375 C-34.44529821 41.56345106 -35.12027176 38.85963436 -35.54296875 35.8125 C-36.52419815 28.81759735 -38.35202753 24.5376849 -43.1875 19.375 C-43.93 18.529375 -44.6725 17.68375 -45.4375 16.8125 C-49.74308963 14.56185087 -53.56774347 15.21820703 -58.1875 16.375 C-63.48348727 19.12106747 -67.27804309 22.64662926 -69.1875 28.375 C-68.20910156 28.60574219 -67.23070312 28.83648437 -66.22265625 29.07421875 C-51.46050397 32.69412902 -51.46050397 32.69412902 -45.1875 37.375 C-43.58024365 40.58951269 -44.13001815 43.81112536 -44.1875 47.375 C-45.445625 47.519375 -46.70375 47.66375 -48 47.8125 C-49.22976563 47.95558594 -49.22976563 47.95558594 -50.484375 48.1015625 C-52.30342466 48.28557041 -54.12742005 48.42544769 -55.953125 48.5234375 C-63.47985819 48.96494978 -69.06670031 50.33632662 -74.5625 55.6875 C-77.75752869 60.97158591 -78.76556765 66.24748288 -78.1875 72.375 C-76.82864884 74.77583438 -76.82864884 74.77583438 -75.1875 76.375 C-71.59457908 76.13589143 -70.43200944 75.65331057 -68.01171875 72.8984375 C-67.30660156 71.85945313 -66.60148437 70.82046875 -65.875 69.75 C-59.49809935 60.74794414 -52.38554513 54.05454386 -41.4375 51.5 C-38.22111957 51.37629306 -36.80954925 51.59200651 -34.1875 53.375 C-33.88254122 58.55929924 -34.444117 62.88224329 -35.6875 67.9375 C-37.35792586 74.60272215 -37.35792586 74.60272215 -37.1875 81.375 C-35.32041495 83.73997439 -33.86688569 85.03530715 -31.1875 86.375 C-24.66610548 86.88265347 -18.75574076 87.22993591 -13.1875 83.375 C-12.589375 82.9625 -11.99125 82.55 -11.375 82.125 C-9.37180694 79.17292602 -9.24484323 76.93028033 -9.1875 73.375 C-10.55571327 68.45798356 -12.65336593 64.62189771 -16.375 61.125 C-19.1875 58.375 -19.1875 58.375 -20.1875 55.75 C-20.1875 52.89878127 -20.01026078 51.59401313 -18.1875 49.375 C-15.625 48.25 -15.625 48.25 -12.1875 48.375 C-4.86570277 51.41657366 -0.74782721 57.17270775 3.57421875 63.5703125 C6.03517147 66.6540194 8.3913034 68.43586022 11.8125 70.375 C14.47916667 70.70833333 14.47916667 70.70833333 16.8125 69.375 C19.37682189 66.39484213 20.66430217 64.264187 21.3125 60.375 C20.51514209 55.59085257 18.53945814 52.72821346 14.71875 49.734375 C7.29649764 44.63776171 1.87273743 43.14300604 -7.12890625 42.9140625 C-10.77595413 42.27128778 -11.98274673 41.30218456 -14.1875 38.375 C-14.40213678 35.15544833 -13.82869417 33.28541352 -11.96875 30.64453125 C-7.04420255 25.17683518 -0.81527841 22.34607308 5.8125 19.375 C2.45445636 16.4792957 -0.50929267 14.60380372 -4.6875 13.125 C-6.06421875 12.62226563 -6.06421875 12.62226563 -7.46875 12.109375 C-13.01134072 10.61223843 -15.28804188 10.82809431 -19.07421875 15.37890625 Z " fill="#487BE8" transform="translate(477.1875,375.625)"/>
<path d="M0 0 C3.63182741 2.93740534 6.41378419 6.12067628 9 10 C9.86625 9.21625 10.7325 8.4325 11.625 7.625 C15.82757247 4.17673541 19.65939576 2.75038922 25.125 2.9375 C36.63466183 4.6066921 45.50839178 13.35669737 52.4375 22.0625 C54.29438288 25.55343982 54.92934077 28.04308317 55 32 C53.48375913 36.14971186 51.88886065 38.82681316 48 41 C45.25 41.6875 45.25 41.6875 43 42 C43.68835938 42.61875 43.68835938 42.61875 44.390625 43.25 C49.84733682 48.38572877 54.5000779 54.5008569 55.203125 62.234375 C55.36769951 71.06654013 52.87658026 76.78602639 46.88671875 83.265625 C42.5278215 87.27256161 37.75615827 88.51384632 31.9921875 88.30078125 C27.96197719 87.69229852 24.61718064 85.80859032 21 84 C20.525625 84.7425 20.05125 85.485 19.5625 86.25 C14.73974872 91.42563552 9.25831364 93.23116257 2.25 93.5 C-7.47186105 93.11558968 -16.53411771 90.70503306 -23.54296875 83.7109375 C-27.33071157 79.26313226 -27.30425036 75.02897849 -27.203125 69.3828125 C-26.96843216 66.62968498 -26.30064222 64.43870416 -25 62 C-25.49628906 62.39832031 -25.99257813 62.79664063 -26.50390625 63.20703125 C-33.3876091 68.57553575 -39.12269358 71.84545775 -48 71 C-53.26594344 69.14143173 -55.79395768 66.39685804 -59 62 C-61.44800057 54.6559983 -60.41928201 47.29146509 -57.25 40.34765625 C-52.97656124 32.32160407 -48.06143309 28.20596509 -40 24 C-40.33 23.34 -40.66 22.68 -41 22 C-41.79130731 16.61109708 -41.69520334 12.23352101 -38.5 7.6875 C-29.19277606 -3.15267847 -12.83389633 -6.93658804 0 0 Z M-26 15 C-26 15.99 -26 16.98 -26 18 C-23.70675709 19.7178195 -23.70675709 19.7178195 -20.8125 21.3125 C-15.37616076 24.63587341 -11.17399313 27.39416396 -9.125 33.6875 C-9 36 -9 36 -10 39 C-14.45919381 41.2295969 -19.79033625 40.14413199 -24.4375 38.9375 C-30.27668428 37.53569238 -35.45641703 37.64342241 -40.8125 40.5 C-43.84151079 43.96172662 -45.6969425 47.58844388 -47 52 C-46.90669742 54.93003637 -46.90669742 54.93003637 -46 57 C-44.27224925 57.85188766 -44.27224925 57.85188766 -42 58 C-39.36793785 56.49286575 -39.36793785 56.49286575 -36.75 54.3125 C-29.12436187 48.4889152 -22.59316263 44.87219387 -12.875 44.8125 C-11.29332031 44.79123047 -11.29332031 44.79123047 -9.6796875 44.76953125 C-7 45 -7 45 -5 47 C-4.27668744 53.08034621 -5.96428924 56.55255167 -9 61.5625 C-11.80849539 66.22593069 -13.55692623 69.35241991 -13 75 C-6.56768191 79.15420543 -1.74756392 80.66489037 5.875 79.3125 C9.0268815 78.33526758 9.0268815 78.33526758 10.171875 76.1796875 C11.86931231 71.71190439 11.81496947 67.07322777 10.06640625 62.625 C9.32582113 61.10795367 8.5824245 59.59227594 7.8359375 58.078125 C6.62157283 55.05923712 6.89653694 53.01613236 8 50 C11 48 11 48 13.8125 47.875 C18.63678057 49.57768726 20.56080187 52.60546642 23 57 C23.89484761 59.2131499 24.74750463 61.44371586 25.5625 63.6875 C27.92818932 70.38180433 27.92818932 70.38180433 33 75 C36.15372409 75.33550847 36.15372409 75.33550847 39 74 C41.48047198 71.18879842 41.96426335 69.28078799 42.4375 65.5625 C41.67503952 59.35389327 37.9490046 55.33659045 33.28125 51.45703125 C28.58853943 48.45980344 23.24727621 46.78328485 18 45 C17.1875 41.8125 17.1875 41.8125 17 38 C22.04862425 31.05814165 30.01780737 29.53851785 38 28 C33.96418347 22.21532964 29.39742182 19.80741229 23 17 C14.92421399 22.63426931 12.04070868 30.76629286 9.67578125 40.06640625 C9 42 9 42 7 43 C4 43.1875 4 43.1875 1 43 C-1 41 -1 41 -1.0546875 37.62109375 C-0.9976671 36.22644197 -0.93760626 34.8319122 -0.875 33.4375 C-0.6930957 25.44441105 -1.82721837 19.73268427 -7.125 13.5 C-10.3067557 10.95459544 -12.74656069 10.67685499 -16.82421875 10.69921875 C-20.48381971 11.20512409 -22.95300849 12.96867233 -26 15 Z " fill="#487BE8" transform="translate(320,419)"/>
<path d="M0 0 C0.86602844 0.22040451 1.73205688 0.44080902 2.62432861 0.66789246 C11.25971496 2.8913422 19.82185529 5.35747808 28.3805542 7.85708618 C91.23403958 26.16211639 160.07291777 44.33512468 225.41845703 29.39770508 C230.87049014 28.18886111 235.3162483 27.2518449 240.75390625 28.80859375 C243.06673212 32.27783256 243.17869211 33.7306495 242.75390625 37.80859375 C238.49187089 43.79039776 226.80485252 44.47869018 219.92578125 45.6953125 C205.89728449 48.02786791 192.09543938 49.04755621 177.87890625 49.05859375 C177.09111786 49.05926849 176.30332947 49.05994324 175.4916687 49.06063843 C117.82764241 48.98294466 59.94792258 33.15106605 5.14624023 16.26953125 C-7.61582467 12.36710783 -22.49406631 8.52510157 -35.43359375 13.76953125 C-38.79393919 15.69593618 -40.28561449 17.4104297 -42.24609375 20.80859375 C-42.24609375 24.76439744 -41.73897597 27.03135641 -39.62109375 30.37109375 C-38.24609375 32.80859375 -38.24609375 32.80859375 -38.30859375 35.93359375 C-39.24609375 38.80859375 -39.24609375 38.80859375 -40.93359375 40.74609375 C-44.23204449 42.26159814 -45.8259251 41.99518287 -49.24609375 40.80859375 C-54.52912199 35.40549669 -56.53908954 31.57017974 -56.62109375 24.05859375 C-56.46374933 15.6231845 -54.69457586 10.92146132 -48.68359375 5.05859375 C-34.95684186 -6.11671727 -16.0220939 -4.14406203 0 0 Z " fill="#487BE8" transform="translate(107.24609375,356.19140625)"/>
<path d="M0 0 C2.09407469 1.526648 3.92387053 3.22583292 5.8125 5 C16.41876226 14.69715407 29.02720023 20.05294211 42.67749023 23.90844727 C43.46712158 24.13846436 44.25675293 24.36848145 45.0703125 24.60546875 C46.13403076 24.90167114 46.13403076 24.90167114 47.21923828 25.20385742 C49 26 49 26 51 29 C50.8125 32.5625 50.8125 32.5625 50 36 C45.54200182 38.97199879 41.75651393 38.30653286 36.59765625 37.40625 C22.34528832 33.7526043 10.06406929 27.82114438 -1 18 C-2.03447266 17.16082031 -2.03447266 17.16082031 -3.08984375 16.3046875 C-6.23624691 13.74381131 -8.45280054 11.84158304 -10 8 C-9.79677533 5.2225962 -9.33818682 3.51617989 -7.8125 1.1875 C-4.90372576 -0.71824864 -3.43155989 -0.64746413 0 0 Z " fill="#487AE8" transform="translate(461,201)"/>
<path d="M0 0 C2 2.1875 2 2.1875 3 5 C2.75 7.9375 2.75 7.9375 1 11 C-1.19280744 12.68086796 -3.47125193 14.1224072 -5.81640625 15.58203125 C-11.66731654 19.38145958 -14.1944863 25.47919383 -16 32 C-16.6022986 35.65668788 -16.99637618 39.33119867 -17.31689453 43.02246094 C-17.67510319 47.00398224 -18.13737026 50.43109266 -20 54 C-23.0832635 55.54163175 -25.60878099 55.29747535 -29 55 C-31.13263275 52.88207506 -31.92176571 51.48858081 -32.3984375 48.51171875 C-32.27255762 33.34319312 -29.2705447 17.93196645 -18.64453125 6.46484375 C-13.17144592 1.58976774 -7.41827944 -2.16366484 0 0 Z " fill="#487BE8" transform="translate(174,184)"/>
<path d="M0 0 C2.42532282 1.30057587 4.56633094 2.57645417 6.8125 4.125 C7.7247937 4.72526001 7.7247937 4.72526001 8.65551758 5.33764648 C11.44009319 7.18485474 14.11195036 9.08786987 16.7421875 11.15234375 C22.2279855 15.43757574 25.64499581 16.71939614 32.65234375 15.953125 C35 16 35 16 36.765625 17.3671875 C38.89658121 20.185984 39.11236929 22.07857185 38.6875 25.5625 C36.29737573 29.01490172 33.7769241 29.62239104 29.77734375 30.609375 C22.56997824 31.62306916 17.54747871 29.6816279 11.75 25.4375 C10.84765625 24.73109375 9.9453125 24.0246875 9.015625 23.296875 C5.06243397 20.2858953 0.90056372 17.67898404 -3.31738281 15.05834961 C-9.17123062 11.37676299 -9.17123062 11.37676299 -11 9 C-11.4375 5.5 -11.4375 5.5 -11 2 C-7.84315217 -2.04076522 -4.63595119 -1.00781548 0 0 Z " fill="#497BE8" transform="translate(156,248)"/>
<path d="M0 0 C1.66015625 1.140625 1.66015625 1.140625 3 3 C3.2235949 7.7015361 2.5678953 12.3340494 2 17 C1.90847656 17.825 1.81695312 18.65 1.72265625 19.5 C0.57857858 26.49301408 -3.30865814 32.07543469 -7 38 C-8.10546226 39.89507816 -9.20973432 41.7908514 -10.3125 43.6875 C-12.75028121 47.87514061 -12.75028121 47.87514061 -15 49 C-20.17431193 49.44036697 -20.17431193 49.44036697 -22.875 48 C-24.67694298 44.79654581 -24.54867516 41.54035653 -24 38 C-22.72880847 35.34867787 -21.00468114 33.10071472 -19.25 30.75 C-14.32014715 23.65845772 -12.43673525 17.09129796 -11.35449219 8.56347656 C-10.49848623 2.42510906 -10.49848623 2.42510906 -7.55859375 -0.08203125 C-4.4883852 -1.18355646 -3.04799251 -1.12294461 0 0 Z " fill="#487BE8" transform="translate(189,199)"/>
<path d="M0 0 C3.5 0.375 3.5 0.375 6.5 2.375 C8.95109442 13.87628921 6.29503177 26.23008153 0.5 36.375 C-2.37326903 39.89351371 -5.39413792 43.32206896 -9.5 45.375 C-15.68035883 45.82448064 -15.68035883 45.82448064 -18.4375 44.3125 C-20.21964502 41.06270613 -20.11636779 39.01156994 -19.5 35.375 C-18.0703125 33.90234375 -18.0703125 33.90234375 -16.25 32.5 C-10.71579194 28.20679617 -8.8123369 23.23514256 -7.921875 16.37890625 C-7.66669441 14.23985677 -7.44103553 12.10695998 -7.27026367 9.95947266 C-6.75707199 4.24144792 -6.13721286 0.65755852 0 0 Z " fill="#487BE8" transform="translate(220.5,244.625)"/>
<path d="M0 0 C2.45343415 3.68015123 2.69826855 6.72418273 2 11 C0.07045537 13.78712003 -1.26710787 14.73691052 -4.4375 15.875 C-7.56703769 16.02766038 -9.26110704 15.51359874 -12 14 C-14.39442371 11.68814262 -14.94472919 10.371104 -15.4375 7.0625 C-14.89265537 3.24858757 -13.74338061 1.66717559 -11 -1 C-7.23750166 -2.94611983 -3.78172866 -1.40064025 0 0 Z " fill="#487AE8" transform="translate(132,463)"/>
<path d="M0 0 C3.2883921 2.71292348 3.90851499 4.34816929 4.5 8.5625 C4 12 4 12 2.4375 14.375 C-0.82839428 16.55226285 -3.07983866 17 -7 17 C-9.80189446 15.23358828 -11.51524911 13.96950178 -13 11 C-13.52981019 7.02642355 -13.31881474 5.45829619 -11 2.125 C-6.83726829 -0.82360163 -5.02455429 -0.7975483 0 0 Z " fill="#487BE8" transform="translate(94,473)"/>
<path d="M0 0 C2.4375 2.125 2.4375 2.125 4 5 C4.07481382 9.26438773 3.64839572 11.23718151 0.875 14.5 C-2.91613014 16.47798094 -4.92797973 16.13111674 -9 15 C-11.64764845 13.32315598 -11.95477045 12.14861139 -12.875 9.125 C-13.02602779 5.34930535 -12.35110647 3.91861492 -10 1 C-6.62771107 -1.55828815 -3.95120002 -1.23475 0 0 Z " fill="#497BE8" transform="translate(96,42)"/>
<path d="M0 0 C3.4375 1.0625 3.4375 1.0625 5.9375 3.1875 C7.91548094 6.97863014 7.56861674 8.99047973 6.4375 13.0625 C4.8427226 15.45466609 3.77985181 15.94537964 1.0625 16.875 C-2.1567232 17.10494451 -3.76921087 16.67966739 -6.5625 15.0625 C-8.93129593 12.21994489 -9.5625 10.71406631 -9.5625 7 C-7.82524551 1.89681494 -5.38040577 0.09439308 0 0 Z " fill="#497BE8" transform="translate(487.5625,84.9375)"/>
<path d="M0 0 C2.33030405 1.60710624 2.89531369 2.69399385 3.8125 5.375 C4.04244451 8.5942232 3.61716739 10.20671087 2 13 C-0.84255511 15.36879593 -2.34843369 16 -6.0625 16 C-9.84861588 14.71110949 -11.09266488 13.50949663 -13 10 C-12.93822484 6.41704089 -12.76840164 4.04782042 -10.625 1.125 C-6.9417166 -1.42496543 -4.17372926 -1.04343232 0 0 Z " fill="#487BE8" transform="translate(472,105)"/>
<path d="M0 0 C2.35352451 1.56901634 2.87641182 2.6733741 3.875 5.3125 C4.0431427 8.92756814 2.86997685 10.95263032 1 14 C-2.22118215 15.61059107 -5.51642342 15.59090254 -9 15 C-11.5625 13 -11.5625 13 -13 10 C-13.26977084 7.11120389 -13.00637432 4.72486146 -12 2 C-8.20101372 -1.68725139 -4.9365941 -1.27985773 0 0 Z " fill="#487AE8" transform="translate(472,67)"/>
<path d="M0 0 C3.4375 0.5625 3.4375 0.5625 5.875 2.0625 C8.07578902 5.58376244 8.24164661 8.51689643 7.4375 12.5625 C5.875 15.0625 5.875 15.0625 3.4375 16.5625 C0 17.125 0 17.125 -3.5625 16.5625 C-6.94371991 14.11651113 -8.33186783 12.66953441 -9.1875 8.5625 C-8.06378731 3.1686791 -5.3834601 0.85002002 0 0 Z " fill="#497CE8" transform="translate(57.5625,79.4375)"/>
</svg>
