<?xml version="1.0" encoding="UTF-8"?>
<svg version="1.1" xmlns="http://www.w3.org/2000/svg" width="512" height="512">
<path d="M0 0 C1.175625 1.1446875 1.175625 1.1446875 2.375 2.3125 C2.375 2.9725 2.375 3.6325 2.375 4.3125 C3.035 4.3125 3.695 4.3125 4.375 4.3125 C4.375 3.6525 4.375 2.9925 4.375 2.3125 C13.31641067 -6.01062163 25.14145 -10.62711285 37.3125 -11.0625 C51.60608416 -10.51186433 63.5263017 -5.00316244 73.375 5.3125 C82.86199475 16.68810945 84.64575234 29.678115 83.63232422 44.03173828 C82.23747995 56.39476972 72.85428368 66.83321632 64.375 75.3125 C82.525 75.3125 100.675 75.3125 119.375 75.3125 C117.725 73.9925 116.075 72.6725 114.375 71.3125 C102.97143823 59.18385626 98.83548651 47.34291222 99.10546875 31.15625 C99.58285838 19.00280368 105.10048503 9.32431386 113.80078125 0.98828125 C123.69892152 -7.33970302 134.77480237 -11.26270088 147.7421875 -10.9375 C159.10624617 -9.85842024 170.13058185 -5.71495978 178.375 2.3125 C178.375 2.9725 178.375 3.6325 178.375 4.3125 C179.035 4.3125 179.695 4.3125 180.375 4.3125 C180.375 3.6525 180.375 2.9925 180.375 2.3125 C189.31641067 -6.01062163 201.14145 -10.62711285 213.3125 -11.0625 C227.60608416 -10.51186433 239.5263017 -5.00316244 249.375 5.3125 C258.85613506 16.68108324 260.64886943 29.6757579 259.64111328 44.02294922 C258.18168293 56.57940594 249.08286286 66.81521135 240.375 75.3125 C241.38401367 75.3218457 242.39302734 75.33119141 243.43261719 75.34082031 C247.18273776 75.3807477 250.93204029 75.44651281 254.68164062 75.52001953 C256.30327837 75.54821347 257.92505313 75.56943594 259.546875 75.58349609 C261.88092105 75.60494872 264.21332261 75.65160575 266.546875 75.703125 C267.26993835 75.70435364 267.99300171 75.70558228 268.73797607 75.70684814 C272.1958231 75.80705928 274.04944364 76.05585416 276.80175781 78.22558594 C279.27226859 81.50273152 279.4992568 83.31610643 279.49525452 87.37442017 C279.49731651 88.98144051 279.49731651 88.98144051 279.49942017 90.6209259 C279.49582489 91.80127914 279.49222961 92.98163239 279.48852539 94.19775391 C279.48867142 95.43674942 279.48881744 96.67574493 279.4889679 97.95228577 C279.48838953 101.35497502 279.48336527 104.75760403 279.47639394 108.16028261 C279.47015368 111.71438705 279.46955607 115.26849225 279.46836853 118.82260132 C279.4652572 125.55511787 279.45704648 132.28761824 279.44701904 139.02012765 C279.43585176 146.6838712 279.4303459 154.34761552 279.42532361 162.01136518 C279.41486371 177.7784195 279.39726809 193.54545766 279.375 209.3125 C280.39302956 209.39732887 280.39302956 209.39732887 281.43162537 209.48387146 C282.32615921 209.56452347 283.22069305 209.64517548 284.14233398 209.72827148 C285.02727036 209.80544907 285.91220673 209.88262665 286.82395935 209.96214294 C297.54915838 211.43512972 307.89314053 219.52715152 314.3359375 227.84375 C321.17639398 237.88796457 323.9852684 248.0912234 323.90844727 260.16796875 C323.91706284 261.28495651 323.92567841 262.40194427 323.93455505 263.55278015 C323.95704675 267.20209674 323.95051174 270.85063566 323.94140625 274.5 C323.94664584 277.05159735 323.95292355 279.60319277 323.96018982 282.15478516 C323.97056035 287.4804096 323.96640859 292.805756 323.95141602 298.13134766 C323.93442352 304.28248653 323.95044669 310.43291939 323.9826389 316.58398151 C324.01253549 322.52247622 324.01452682 328.46075083 324.0051403 334.39932251 C324.00431943 336.91916831 324.01120871 339.43902874 324.02591133 341.95883179 C324.0432763 345.47048141 324.02888427 348.98060034 324.00610352 352.4921875 C324.01779572 353.53428879 324.02948792 354.57639008 324.04153442 355.65007019 C323.94891227 362.64604651 323.94891227 362.64604651 321.0947876 365.96038818 C318.5037357 367.24850049 317.07542524 367.80371075 314.22729492 367.76660156 C313.44686325 367.76629944 312.66643158 367.76599731 311.86235046 367.76568604 C311.0350795 367.74504089 310.20780853 367.72439575 309.35546875 367.703125 C308.49689774 367.69746521 307.63832672 367.69180542 306.7537384 367.68597412 C304.0227484 367.66365787 301.29309061 367.61347167 298.5625 367.5625 C296.70639921 367.5424288 294.85027777 367.52417911 292.99414062 367.5078125 C288.45391704 367.46380881 283.91468407 367.39481521 279.375 367.3125 C279.39071045 368.22539795 279.4064209 369.1382959 279.42260742 370.07885742 C279.4738697 373.4801201 279.51141439 376.88096963 279.53979492 380.2824707 C279.55484066 381.75193782 279.57528238 383.22136034 279.60131836 384.69067383 C279.63788955 386.8082177 279.65476801 388.92516565 279.66796875 391.04296875 C279.6836792 392.31551514 279.69938965 393.58806152 279.71557617 394.89916992 C279.34798632 398.58323713 278.61475117 400.39987346 276.375 403.3125 C273.34495246 405.3325317 272.74903579 405.56499595 269.35009766 405.5871582 C268.54561188 405.59669022 267.7411261 405.60622223 266.91226196 405.61604309 C266.04660614 405.61513168 265.18095032 405.61422028 264.2890625 405.61328125 C262.94816055 405.61970894 262.94816055 405.61970894 261.58016968 405.62626648 C259.68887173 405.63200956 257.79755169 405.6325102 255.90625 405.62817383 C253.01784354 405.62501949 250.13046689 405.64845344 247.2421875 405.67382812 C245.40364712 405.67610174 243.565104 405.67680433 241.7265625 405.67578125 C240.43415146 405.68959587 240.43415146 405.68959587 239.1156311 405.70368958 C234.39022042 405.66738722 231.19950447 405.410528 227.375 402.3125 C222.1553789 391.8732578 226.375 378.9839276 226.375 367.3125 C137.275 367.3125 48.175 367.3125 -43.625 367.3125 C-43.625 378.2025 -43.625 389.0925 -43.625 400.3125 C-48.93398826 405.62148826 -51.45199147 405.49003375 -58.61328125 405.55078125 C-59.50863083 405.558853 -60.40398041 405.56692474 -61.32646179 405.57524109 C-63.22372499 405.5890843 -65.12101313 405.59980539 -67.01831055 405.60766602 C-69.91568394 405.62487046 -72.81191379 405.66875277 -75.70898438 405.71289062 C-77.55207494 405.72301832 -79.39517521 405.73153418 -81.23828125 405.73828125 C-82.10302567 405.75578934 -82.96777008 405.77329742 -83.85871887 405.79133606 C-87.93764949 405.77667644 -90.09200133 405.63663652 -93.64916992 403.47338867 C-97.12805019 399.66867235 -96.74287524 396.19193369 -96.72265625 391.23828125 C-96.7212413 390.5544487 -96.71982635 389.87061615 -96.71836853 389.1660614 C-96.71277876 386.98566278 -96.70022822 384.80536749 -96.6875 382.625 C-96.68248367 381.14518378 -96.677921 379.66536594 -96.67382812 378.18554688 C-96.66281271 374.56116443 -96.64555512 370.9368423 -96.625 367.3125 C-97.7802417 367.33344727 -98.9354834 367.35439453 -100.12573242 367.37597656 C-104.42134148 367.44850398 -108.71689665 367.49434593 -113.01293945 367.53222656 C-114.87045398 367.55231305 -116.72790551 367.57958778 -118.58520508 367.61425781 C-121.25878463 367.66290737 -123.93152656 367.68549809 -126.60546875 367.703125 C-127.43273972 367.72377014 -128.26001068 367.74441528 -129.11235046 367.76568604 C-130.28299797 367.76613922 -130.28299797 367.76613922 -131.47729492 367.76660156 C-132.15902267 367.77548401 -132.84075043 367.78436646 -133.5431366 367.79351807 C-136.95007307 367.00633962 -138.32306664 365.98561157 -140.625 363.3125 C-141.38189389 359.71370476 -141.29723347 356.15801394 -141.25610352 352.4921875 C-141.26683647 350.83773369 -141.26683647 350.83773369 -141.27778625 349.14985657 C-141.29472325 345.49531893 -141.27522964 341.84200011 -141.25390625 338.1875 C-141.25473495 335.64363504 -141.25719438 333.09977012 -141.26121521 330.5559082 C-141.26407729 325.21596811 -141.24987041 319.8764587 -141.22192383 314.53662109 C-141.19000195 308.39041641 -141.18983572 302.24484751 -141.2071386 296.09859848 C-141.2231004 290.16440427 -141.21610064 284.23040248 -141.19920158 278.29620361 C-141.1940408 275.78298458 -141.19447584 273.26974728 -141.20074654 270.75653076 C-141.20624368 267.2266208 -141.18567331 263.69775907 -141.15844727 260.16796875 C-141.16497314 259.14206131 -141.17149902 258.11615387 -141.17822266 257.05915833 C-141.01014325 244.1360671 -136.19902092 232.75083443 -127.6640625 223.09375 C-120.6104351 216.27611757 -111.26909501 210.58964927 -101.39233398 209.72827148 C-100.49780014 209.64761948 -99.6032663 209.56696747 -98.68162537 209.48387146 C-97.66359581 209.39904259 -97.66359581 209.39904259 -96.625 209.3125 C-96.62776538 208.66258496 -96.63053076 208.01266993 -96.63337994 207.34306049 C-96.69964098 191.52716885 -96.74928112 175.71132551 -96.78043652 159.89532948 C-96.7959036 152.24681932 -96.81699003 144.59840184 -96.85131836 136.94995117 C-96.88122564 130.28334274 -96.90057616 123.61680143 -96.90726548 116.95012778 C-96.91117552 113.42034483 -96.92036114 109.89075388 -96.94219017 106.36103249 C-96.96636448 102.42009515 -96.96696913 98.47934544 -96.96557617 94.53833008 C-96.976362 93.36876266 -96.98714783 92.19919525 -96.9982605 90.9941864 C-96.99207451 89.38098007 -96.99207451 89.38098007 -96.98576355 87.73518372 C-96.98852893 86.80325101 -96.99129431 85.8713183 -96.99414349 84.91114521 C-96.54720411 81.76484329 -95.47273882 79.87644485 -93.625 77.3125 C-90.5700722 75.7850361 -87.3486686 76.07258168 -83.9921875 75.99609375 C-83.24035187 75.97531265 -82.48851624 75.95453156 -81.71389771 75.93312073 C-79.30935915 75.86767295 -76.90471033 75.80876262 -74.5 75.75 C-72.87108229 75.70681023 -71.24217578 75.66319579 -69.61328125 75.61914062 C-65.61730085 75.51199649 -61.62120941 75.41071567 -57.625 75.3125 C-58.30046875 74.59167236 -58.9759375 73.87084473 -59.671875 73.12817383 C-68.58311443 63.49820817 -68.58311443 63.49820817 -71.625 58 C-72.16125 57.05511719 -72.6975 56.11023438 -73.25 55.13671875 C-78.78806333 43.76166253 -78.51467075 31.68664723 -74.80859375 19.6640625 C-73.87623565 17.44044694 -72.83466954 15.39758828 -71.625 13.3125 C-71.191875 12.55453125 -70.75875 11.7965625 -70.3125 11.015625 C-63.90405331 0.63672765 -54.64353671 -5.8992246 -42.984375 -9.50390625 C-27.91804955 -12.89146056 -12.19327849 -9.6577603 0 0 Z M-55.078125 19.26171875 C-60.51555259 26.47042956 -60.33099207 33.50294683 -59.625 42.3125 C-57.73605793 54.43828939 -44.14731399 63.9297884 -35.80859375 72.2265625 C-34.70022401 73.33306161 -33.59207895 74.43978582 -32.48414612 75.54672241 C-29.60129429 78.42579981 -26.71545005 81.30185863 -23.82891846 84.17724609 C-20.87041926 87.12542055 -17.91483411 90.07651337 -14.95898438 93.02734375 C-9.18379791 98.79188269 -3.40543899 104.5532281 2.375 110.3125 C6.5770042 108.39018284 9.41620711 105.50728645 12.609375 102.23828125 C13.20623108 101.6362236 13.80308716 101.03416595 14.41802979 100.41386414 C16.32517565 98.48894085 18.22552066 96.55748653 20.125 94.625 C34.55225337 79.98492799 34.55225337 79.98492799 40.5234375 74.91723633 C44.33885984 71.61043635 47.90856577 68.04601137 51.5 64.5 C52.27214844 63.75685547 53.04429687 63.01371094 53.83984375 62.24804688 C61.38643343 54.7850225 67.38558462 47.08823441 67.6875 36.1875 C67.60845972 28.78735421 65.28369094 23.1482694 61.1875 17.0625 C54.5147984 10.53808065 47.52225946 6.46764414 38.0625 5.9375 C26.57803974 6.30733855 19.40452139 13.22689004 11.6953125 21.0078125 C9.11592388 23.44777471 7.13324546 24.37806055 3.6875 25.3125 C-1.94589143 25.00013222 -5.36688217 19.94597105 -8.95703125 16.0859375 C-15.19733661 9.59894364 -21.60306578 6.96705807 -30.5 6 C-40.90231736 7.04023174 -48.44652044 11.2363035 -55.078125 19.26171875 Z M122.6875 17.125 C116.78084649 24.27309617 115.79671523 29.64996565 116.03125 38.875 C117.42496974 52.81219736 130.08101463 62.16089701 139.43359375 71.46875 C140.58966163 72.62294894 141.74550606 73.77737172 142.90113831 74.93200684 C145.9188333 77.94591408 148.93952087 80.95680403 151.96087646 83.96704102 C155.05323147 87.04910074 158.14269868 90.13405233 161.23242188 93.21875 C167.27715112 99.25280804 173.32505006 105.28367643 179.375 111.3125 C185.7952976 106.00935993 191.67291789 100.19617759 197.56640625 94.32421875 C198.0930934 93.80035898 198.61978054 93.27649921 199.1624279 92.73676491 C201.94716272 89.96693309 204.72907674 87.19430588 207.50854492 84.41918945 C210.3583225 81.57489847 213.21726635 78.74001259 216.07847691 75.90722942 C218.29792574 73.70651889 220.51052695 71.49901718 222.72138786 69.28968239 C223.77172615 68.24234345 224.82453203 67.19747243 225.87997627 66.15527916 C234.74364217 57.39504871 243.17200771 49.02288883 243.75 36 C243.53030977 26.46285929 239.10561653 19.80223131 232.375 13.3125 C226.31356184 8.01714161 219.8462424 5.75124389 211.7578125 6.01171875 C201.36490642 7.32361017 194.79271113 13.84439156 187.6953125 21.0078125 C185.11592388 23.44777471 183.13324546 24.37806055 179.6875 25.3125 C174.05410857 25.00013222 170.63311783 19.94597105 167.04296875 16.0859375 C160.64389295 9.43389677 154.07897015 6.83104274 144.9375 6 C135.88572313 6.79401552 128.85019663 10.46053892 122.6875 17.125 Z M-79.625 93.3125 C-79.625 131.2625 -79.625 169.2125 -79.625 208.3125 C-73.355 208.3125 -67.085 208.3125 -60.625 208.3125 C-60.58741577 205.61755371 -60.58741577 205.61755371 -60.54907227 202.86816406 C-60.46514148 196.92893506 -60.37687675 190.98978368 -60.28566074 185.05066299 C-60.23052067 181.45014699 -60.17711515 177.84962273 -60.12768555 174.24902344 C-60.07991019 170.77358835 -60.02756304 167.29824933 -59.97205925 163.82292938 C-59.94179173 161.85321081 -59.91624654 159.88342152 -59.89076233 157.91363525 C-59.87081711 156.71269226 -59.85087189 155.51174927 -59.83032227 154.27441406 C-59.81477798 153.21740295 -59.7992337 152.16039185 -59.78321838 151.0713501 C-59.64505346 148.66217165 -59.31434964 146.61526939 -58.625 144.3125 C-55.53027303 143.40877297 -52.75844629 143.18280798 -49.53930664 143.17205811 C-48.51306183 143.16634796 -47.48681702 143.16063782 -46.42947388 143.15475464 C-45.30934906 143.15363678 -44.18922424 143.15251892 -43.03515625 143.15136719 C-41.25901443 143.14391983 -41.25901443 143.14391983 -39.44699097 143.13632202 C-36.20325521 143.12422822 -32.95955545 143.11675972 -29.71580124 143.11231136 C-27.68887811 143.109377 -25.66196058 143.10527161 -23.63504028 143.10080719 C-17.2918866 143.08714348 -10.9487458 143.07747003 -4.60557842 143.0736053 C2.71488819 143.0691203 10.03516848 143.05154742 17.35557842 143.0226047 C23.01682512 143.00099868 28.67801933 142.99090168 34.33930683 142.98956418 C37.71975691 142.98851582 41.10003157 142.98260112 44.48043823 142.96474457 C48.24882267 142.94774865 52.01674937 142.94954843 55.78515625 142.95605469 C56.90528107 142.9468399 58.02540588 142.93762512 59.17947388 142.9281311 C60.71884109 142.93648483 60.71884109 142.93648483 62.28930664 142.94500732 C63.18009415 142.94354076 64.07088165 142.9420742 64.98866272 142.9405632 C67.90090921 143.39446871 69.25490349 144.28975637 71.375 146.3125 C72.42487479 149.46212436 72.53093842 151.76037416 72.58032227 155.0690918 C72.60026749 156.25008957 72.62021271 157.43108734 72.64076233 158.64787292 C72.66583107 160.56047661 72.66583107 160.56047661 72.69140625 162.51171875 C72.71218735 163.81704056 72.73296844 165.12236237 72.75437927 166.46723938 C72.80952273 169.93432353 72.85896595 173.40146646 72.90722656 176.86865234 C72.9574981 180.4079306 73.01310262 183.94712477 73.06835938 187.48632812 C73.17635046 194.42832089 73.27543316 201.37036079 73.375 208.3125 C85.255 208.3125 97.135 208.3125 109.375 208.3125 C109.41238281 204.11144531 109.44976562 199.91039062 109.48828125 195.58203125 C109.52640441 192.22613647 109.56747708 188.87030655 109.6105423 185.51447296 C109.65515101 181.97540964 109.69459669 178.43646328 109.72143555 174.8972168 C109.7524908 170.83352678 109.80727834 166.77045458 109.86328125 162.70703125 C109.87286613 160.80991142 109.87286613 160.80991142 109.88264465 158.87446594 C109.90243881 157.69361923 109.92223297 156.51277252 109.94262695 155.29614258 C109.95928154 153.74060417 109.95928154 153.74060417 109.97627258 152.15364075 C110.43613524 148.87687952 111.43393533 146.97090136 113.375 144.3125 C115.84255876 143.07872062 117.45998386 143.1866822 120.22018433 143.18551636 C121.24367981 143.18269653 122.26717529 143.17987671 123.32168579 143.17697144 C125.01265884 143.18000778 125.01265884 143.18000778 126.73779297 143.18310547 C127.92159546 143.18135315 129.10539795 143.17960083 130.32507324 143.17779541 C133.57719949 143.17414077 136.82928523 143.17500835 140.08141088 143.1781745 C143.48283315 143.18070246 146.88425268 143.17835923 150.28567505 143.17678833 C156.00051358 143.17496742 161.71533921 143.17737038 167.43017578 143.18212891 C174.03642147 143.18756618 180.64263628 143.18581245 187.24888122 143.1803025 C192.91857889 143.17576294 198.58826726 143.17512512 204.25796616 143.17774117 C207.64508516 143.17929996 211.03218965 143.17950868 214.41930771 143.17620468 C218.19736581 143.17367078 221.97536431 143.17752953 225.75341797 143.18310547 C226.87668488 143.18108124 227.99995178 143.17905701 229.15725708 143.17697144 C230.18639221 143.17979126 231.21552734 143.18261108 232.27584839 143.18551636 C233.16923353 143.18589338 234.06261868 143.18627041 234.9830761 143.18665886 C237.25044949 143.30594729 239.20163206 143.67642484 241.375 144.3125 C242.38086422 147.67258489 242.52885734 150.77479917 242.58032227 154.27441406 C242.60026749 155.47535706 242.62021271 156.67630005 242.64076233 157.91363525 C242.66583107 159.85130768 242.66583107 159.85130768 242.69140625 161.828125 C242.71198963 163.16762921 242.73298646 164.50712713 242.75437927 165.84661865 C242.80945709 169.36465341 242.85892906 172.8827454 242.90722656 176.40087891 C242.95754625 179.99386664 243.01317756 183.58677173 243.06835938 187.1796875 C243.17576602 194.22388797 243.27675838 201.26816488 243.375 208.3125 C249.645 208.3125 255.915 208.3125 262.375 208.3125 C262.375 170.3625 262.375 132.4125 262.375 93.3125 C224.70555426 89.53292019 224.70555426 89.53292019 209.56640625 101.15234375 C206.52104856 104.47828198 203.72692279 107.73670016 200.9375 111.25 C199.41748133 112.9852368 197.88685178 114.71123667 196.34570312 116.42773438 C193.029282 120.14887407 189.825879 123.93812247 186.70631409 127.82554626 C184.49518217 130.2951745 183.12099038 130.34753581 179.75 130.8125 C174.02530723 130.66304122 171.19654524 127.2798501 167.375 123.3125 C165.95070453 121.60917889 164.56518548 119.87856262 163.18156242 118.14206505 C151.54509786 103.61338907 140.53690921 91.79229603 121.31430054 89.52827454 C112.46978844 88.78782356 103.6696973 88.79355564 94.8057785 89.09574509 C91.71958163 89.18841336 88.63757766 89.2210269 85.55010986 89.23977661 C63.33011737 89.45291029 42.91923374 89.9893013 26.19384766 106.20556641 C20.6021188 112.29485994 15.66484732 118.78389872 11.44677734 125.89428711 C9.375 129.3125 9.375 129.3125 7.375 130.3125 C0.86574557 131.2103282 0.86574557 131.2103282 -2.34741211 129.27514648 C-6.29089098 125.81458769 -9.66094371 122.12151246 -12.93188477 118.03567505 C-15.15593156 115.29054276 -17.47060548 112.62852184 -19.79370117 109.96704102 C-20.95495879 108.59356737 -22.07735408 107.18607959 -23.15405273 105.74536133 C-27.92271257 99.43121456 -31.15393083 97.90069554 -38.625 93.3125 C-52.155 93.3125 -65.685 93.3125 -79.625 93.3125 Z M-43.625 159.3125 C-43.625 175.4825 -43.625 191.6525 -43.625 208.3125 C-10.625 208.3125 22.375 208.3125 56.375 208.3125 C56.375 192.1425 56.375 175.9725 56.375 159.3125 C23.375 159.3125 -9.625 159.3125 -43.625 159.3125 Z M126.375 159.3125 C126.375 175.4825 126.375 191.6525 126.375 208.3125 C159.375 208.3125 192.375 208.3125 226.375 208.3125 C226.375 192.1425 226.375 175.9725 226.375 159.3125 C193.375 159.3125 160.375 159.3125 126.375 159.3125 Z M-116.875 237.625 C-121.59179132 243.48877062 -124.45535077 249.83048453 -124.07421875 257.453125 C-123.77354645 259.55222187 -123.77354645 259.55222187 -121.5 260.9375 C-120.55125 261.39125 -119.6025 261.845 -118.625 262.3125 C-113.59519991 267.08799424 -110.31104286 272.98119752 -107 279 C-103.28523312 286.47752838 -103.28523312 286.47752838 -97.625 292.3125 C-94.01980115 292.33572937 -92.31633249 291.98824917 -89.71875 289.44921875 C-89.1928125 288.64097656 -88.666875 287.83273437 -88.125 287 C-87.53976563 286.10152344 -86.95453125 285.20304687 -86.3515625 284.27734375 C-84.0285006 280.28819448 -82.03564249 276.16779402 -80.0234375 272.015625 C-76.46414002 265.13564216 -71.55927349 260.87136308 -64.3125 258 C-57.69268661 256.7657975 -51.51686332 257.54182088 -45.58984375 260.8515625 C-38.45769795 266.15458939 -34.31379778 274.21853153 -30.50195312 282.04614258 C-28.42670537 286.21591453 -26.1683517 289.27943682 -22.625 292.3125 C-20.08183262 292.79002677 -20.08183262 292.79002677 -17.625 291.3125 C-12.9194925 286.78882028 -10.04793365 281.63246105 -7.25 275.8125 C-3.07237995 267.58957473 0.98792953 261.83009308 9.8125 258.3125 C16.00499017 256.59650875 21.07533059 257.34421814 26.9375 259.8125 C35.35361139 265.32650402 39.89573163 273.53436922 44.14208984 282.37182617 C46.28345617 286.72231106 48.14991504 289.64584802 52.375 292.3125 C54.91816738 292.79002677 54.91816738 292.79002677 57.375 291.3125 C61.85759122 286.93236801 64.48811659 281.2535977 67.3125 275.75 C71.80016328 267.11238625 76.25622655 261.24212696 85.76171875 257.91015625 C91.85902472 256.51570511 97.20620101 257.33662833 102.625 260.4375 C109.66867013 264.95666889 113.7258967 272.27919983 117.5 279.5 C121.03408329 286.58946601 121.03408329 286.58946601 126.375 292.3125 C129.36721308 292.87268508 129.36721308 292.87268508 132.375 291.3125 C136.4908674 286.75993579 139.08860358 281.00830427 141.9375 275.625 C146.36025348 267.30324017 150.61293754 261.59558135 159.6875 258 C166.30731339 256.7657975 172.48313668 257.54182088 178.41015625 260.8515625 C185.54230205 266.15458939 189.68620222 274.21853153 193.49804688 282.04614258 C195.573029 286.21538082 197.8261816 289.28539803 201.375 292.3125 C203.95756854 292.71377511 203.95756854 292.71377511 206.375 291.3125 C210.63573078 286.76206779 213.33483967 281.88180053 216.1875 276.375 C220.67782919 268.05348017 224.76116961 261.92990021 233.8125 258.3125 C239.17638386 256.82612254 244.29141293 256.8842494 249.390625 259.24609375 C251.08276767 260.21658734 252.73198677 261.26097153 254.375 262.3125 C255.365 262.6425 256.355 262.9725 257.375 263.3125 C258.3984375 265.09765625 258.3984375 265.09765625 259.375 267.3125 C261.32117515 270.67801945 263.35476497 273.99102188 265.375 277.3125 C265.88401855 278.15385498 265.88401855 278.15385498 266.40332031 279.01220703 C267.47401013 280.78093984 268.54895134 282.54702317 269.625 284.3125 C270.62273437 285.9521875 270.62273437 285.9521875 271.640625 287.625 C273.89387823 291.24389125 273.89387823 291.24389125 277.625 292.875 C281.96223913 291.98783745 283.83845207 288.78864707 286.375 285.3125 C287.96549061 282.56967499 289.32239135 279.73516667 290.6875 276.875 C294.4259664 269.40612251 298.67131898 263.16434051 306.375 259.3125 C307.01719704 250.64283991 304.66654908 243.70213978 299.0625 237 C291.08348685 228.61527432 282.98491238 225.25870794 271.33155823 224.93497658 C268.56703377 224.91854893 265.80551233 224.9180029 263.04125977 224.93154907 C261.49707745 224.92808791 259.9528976 224.92332028 258.40872288 224.91736734 C254.18636598 224.90489061 249.96421355 224.91101249 245.7418561 224.92032599 C241.18009363 224.92712983 236.61836566 224.91662865 232.05661011 224.90838623 C223.12839108 224.89506093 214.2002478 224.89792128 205.27202582 224.90662415 C198.01452498 224.91340502 190.75704534 224.91431567 183.49954224 224.9110527 C181.94892777 224.91036316 181.94892777 224.91036316 180.36698776 224.90965968 C178.26682241 224.90870048 176.16665706 224.90772784 174.06649172 224.9067419 C154.38284641 224.89819153 134.69924305 224.90801661 115.01560462 224.924143 C98.13375447 224.93754586 81.25196622 224.93521766 64.37011719 224.92138672 C44.75590337 224.90532468 25.1417263 224.89901547 5.52750683 224.90822351 C3.43515715 224.90917914 1.34280746 224.91012225 -0.74954224 224.9110527 C-1.77896248 224.91151553 -2.80838272 224.91197836 -3.86899751 224.91245521 C-11.11603297 224.91504322 -18.36304507 224.91067816 -25.6100769 224.90361404 C-34.44428767 224.89519193 -43.27841848 224.89749418 -52.11262012 224.91345628 C-56.61816606 224.92132938 -61.12357879 224.92444696 -65.62912369 224.91450882 C-69.75701775 224.90554153 -73.88465567 224.91052814 -78.01252663 224.92644148 C-79.50229901 224.92978068 -80.99209322 224.92811465 -82.48185146 224.92081411 C-96.80899093 224.85601354 -106.9307296 226.91004864 -116.875 237.625 Z M-67.88916016 283.40063477 C-69.05094933 285.56116796 -70.16229405 287.73878011 -71.25 289.9375 C-74.97538729 297.38827459 -78.24953464 302.91860574 -85.625 307.3125 C-91.61751471 309.3100049 -99.10068775 309.49649187 -105.11328125 307.4765625 C-114.45032665 302.0737673 -118.88123089 291.51934182 -123.625 282.3125 C-123.955 282.3125 -124.285 282.3125 -124.625 282.3125 C-124.625 304.7525 -124.625 327.1925 -124.625 350.3125 C17.935 350.3125 160.495 350.3125 307.375 350.3125 C307.375 327.8725 307.375 305.4325 307.375 282.3125 C304.93381983 285.5674069 302.98368772 288.65994673 301 292.1875 C296.70980217 299.54980192 292.96203668 305.7943904 284.375 308.3125 C276.98892233 309.28670675 270.40746595 308.93527391 264.375 304.3125 C257.91690162 298.77328936 254.21783603 291.7710117 250.51977539 284.25317383 C248.58464353 280.35677764 246.89021319 277.03714316 243.375 274.3125 C239.89134999 273.7484409 239.89134999 273.7484409 236.375 275.3125 C232.17078934 279.76213413 229.65464229 285.64105784 226.8125 291 C222.49656328 299.07710161 218.35230171 305.13529232 209.375 308.3125 C202.95431908 309.2840504 196.8137412 309.07710968 191.16015625 305.6640625 C183.92390743 300.1854146 180.06842423 292.55109007 175.92626953 284.65966797 C173.81234123 280.67139555 171.94684393 277.20471189 168.375 274.3125 C165.96421773 273.39484114 165.96421773 273.39484114 163.375 274.3125 C158.79029935 278.4896717 156.23641303 283.3101609 153.4375 288.75 C149.40266445 296.56349107 145.11072975 304.05436266 136.66796875 307.6796875 C129.78805013 309.57840439 123.39135034 309.32829957 117.0625 305.9375 C108.70133211 300.20756226 104.56543697 291.13774086 100.1484375 282.29296875 C98.20069526 279.01956054 96.33379198 276.71596315 93.375 274.3125 C90.78027598 273.63969486 90.78027598 273.63969486 88.375 274.3125 C83.68907188 278.08292545 81.18796895 284.54652743 78.5 289.8125 C74.70403528 297.19966031 70.3818161 302.39845193 63.625 307.3125 C57.32905253 309.24971461 50.26636473 309.52088441 44.125 306.875 C35.89960137 301.94655867 31.31280095 294.01944353 27.25195312 285.62963867 C25.17778253 281.42680095 22.93112691 278.37282075 19.375 275.3125 C16.69709104 274.44011142 16.69709104 274.44011142 14.375 274.3125 C10.04573075 278.75000098 7.22448109 283.27309352 4.4375 288.75 C0.04484858 297.28471185 -4.5721637 304.34195776 -13.625 308.3125 C-20.55820347 310.19956143 -26.50688001 308.99628479 -32.75 305.625 C-39.12301251 300.49888124 -42.9970559 294.30531733 -46.75 287.125 C-50.30761274 280.06226264 -50.30761274 280.06226264 -55.625 274.3125 C-61.71464099 272.54970919 -65.08963507 278.77639025 -67.88916016 283.40063477 Z M-79.625 367.3125 C-79.625 374.2425 -79.625 381.1725 -79.625 388.3125 C-73.355 388.3125 -67.085 388.3125 -60.625 388.3125 C-60.625 381.3825 -60.625 374.4525 -60.625 367.3125 C-66.895 367.3125 -73.165 367.3125 -79.625 367.3125 Z M243.375 367.3125 C243.375 374.2425 243.375 381.1725 243.375 388.3125 C249.645 388.3125 255.915 388.3125 262.375 388.3125 C262.375 381.3825 262.375 374.4525 262.375 367.3125 C256.105 367.3125 249.835 367.3125 243.375 367.3125 Z " fill="#0359CA" transform="translate(164.625,58.6875)"/>
</svg>
