<?xml version="1.0" encoding="UTF-8"?>
<svg version="1.1" xmlns="http://www.w3.org/2000/svg" width="512" height="512">
<path d="M0 0 C15.98742874 10.55363498 20.31708644 26.14089732 25.5234375 43.58203125 C26.15135684 45.66336697 26.779962 47.74449588 27.40917969 49.82543945 C28.84347345 54.57586058 30.27128357 59.32818137 31.69580078 64.08154297 C33.78435428 71.04861734 35.88933762 78.0106603 37.99759579 84.97179413 C40.44694852 93.05959276 42.88964083 101.14939034 45.32992554 109.2399292 C46.41215322 112.82763629 47.49645625 116.41470624 48.58242798 120.00128174 C49.88165306 124.29343511 51.17503728 128.58731028 52.46437263 132.88244438 C52.94289436 134.47332001 53.42329484 136.06363202 53.90579033 137.65330696 C58.63884873 153.25590403 62.39248137 166.96273454 59.5234375 183.39453125 C58.98784965 186.44232711 58.98784965 186.44232711 60.17469215 189.10647869 C61.44947455 193.22830701 61.4950063 196.84356984 61.47836304 201.12837219 C61.48289415 201.9887782 61.48742526 202.8491842 61.49209368 203.73566312 C61.50473021 206.61199769 61.50311779 209.48814273 61.50146484 212.36450195 C61.50745056 214.42957807 61.5142562 216.49465196 61.52182007 218.5597229 C61.53948289 224.165177 61.54417557 229.77057004 61.54545164 235.37604928 C61.54687364 238.87945646 61.55114416 242.38284813 61.55644608 245.88625145 C61.57494729 258.11224732 61.58311657 270.33819958 61.58154297 282.56420898 C61.58034155 293.95451682 61.60144382 305.34463516 61.6330303 316.73489505 C61.65919532 326.51937351 61.66991017 336.30379009 61.66863215 346.08830327 C61.66812259 351.92977414 61.67380294 357.77107661 61.69498825 363.61251259 C61.71437428 369.1078201 61.71449239 374.60279861 61.69995499 380.09811783 C61.69786626 382.11165663 61.70257155 384.12521605 61.7146759 386.13871956 C61.7301654 388.89444372 61.72079589 391.64903866 61.70541382 394.40473938 C61.71570094 395.19542118 61.72598807 395.98610298 61.73658693 396.80074483 C61.65648317 403.32582213 59.99276008 409.49845556 55.43161905 414.34940511 C49.09734021 420.03741858 44.21358685 420.96856006 35.69921875 420.8359375 C29.34580728 420.1458133 25.54569344 417.11750676 21.3359375 412.51953125 C17.49456906 406.98344144 16.91541183 401.85866763 16.9324646 395.25662231 C16.9266722 394.44703595 16.9208798 393.63744959 16.91491187 392.8033303 C16.89795115 390.09947762 16.89503875 387.39579605 16.89208984 384.69189453 C16.88278896 382.75014326 16.87262005 380.80839599 16.86164856 378.86665344 C16.83435262 373.60065623 16.8192003 368.33468576 16.80622053 363.06863642 C16.79058827 357.56329436 16.76379833 352.05800691 16.7381897 346.55270386 C16.69140366 336.13000504 16.65465866 325.70729594 16.62151682 315.28454578 C16.58329424 303.41760954 16.53388441 291.55072814 16.48353267 279.68383813 C16.38021538 255.27494315 16.29095428 230.86601294 16.2109375 206.45703125 C15.78753428 207.67436699 15.36413107 208.89170273 14.92789745 210.14592743 C13.32884211 214.7424326 11.72829105 219.33841585 10.12732983 223.93425751 C9.43984924 225.90843389 8.75275308 227.88274419 8.06607723 229.85720062 C2.23352762 246.62667295 -3.79146161 263.31437169 -9.9765625 279.95703125 C-10.88644398 282.41392319 -11.79594796 284.87095496 -12.70507812 287.328125 C-13.9750143 290.76029892 -15.24536956 294.19230644 -16.5188446 297.62316895 C-17.26139216 299.6238961 -17.99570408 301.62770192 -18.72116089 303.63468933 C-19.39988152 305.4284704 -20.13377679 307.20303647 -20.93826294 308.94404602 C-24.61195248 317.33374928 -24.33100929 325.67778606 -24.2749176 334.67278099 C-24.25748816 337.55360888 -24.26525195 340.43344818 -24.2791748 343.31428528 C-24.30437336 349.42443673 -24.29903135 355.53434908 -24.2890625 361.64453125 C-24.27750582 368.74131011 -24.27876111 375.83760254 -24.31312561 382.93432045 C-24.32018582 385.76176796 -24.30359127 388.58843172 -24.28601074 391.41581726 C-24.29172069 393.15897028 -24.29853899 394.90212013 -24.30664062 396.64526367 C-24.28966881 397.81049561 -24.28966881 397.81049561 -24.27235413 398.99926758 C-24.34381461 405.46279125 -26.22367428 410.86209921 -30.82421875 415.515625 C-31.49324219 415.97066406 -32.16226563 416.42570312 -32.8515625 416.89453125 C-33.52316406 417.36761719 -34.19476563 417.84070313 -34.88671875 418.328125 C-40.31821078 421.55133074 -46.68945551 420.8706914 -52.7890625 420.45703125 C-58.8344648 418.40591261 -62.88924099 414.44465701 -65.88453674 408.85244751 C-68.07669917 404.33133128 -68.48487748 400.28976531 -68.63647461 395.31787109 C-68.67685034 394.43676289 -68.71722607 393.55565468 -68.7588253 392.64784622 C-68.88365746 389.73826404 -68.97779866 386.82886744 -69.06640625 383.91796875 C-69.11832154 382.40357775 -69.11832154 382.40357775 -69.17128563 380.85859299 C-69.42947225 373.1841214 -69.59716993 365.50966739 -69.7265625 357.83203125 C-69.74664116 356.70660416 -69.76671982 355.58117706 -69.78740692 354.42164612 C-70.37675506 318.6550769 -67.94875629 290.03196769 -52.48388672 257.36572266 C-48.04151897 247.85992489 -44.63220506 237.94146983 -41.11761475 228.06481934 C-40.00748085 224.98043449 -38.85807807 221.91369541 -37.69580078 218.84863281 C-37.01163776 217.00861464 -36.32785843 215.16845374 -35.64453125 213.328125 C-35.32263321 212.49770187 -35.00073517 211.66727875 -34.66908264 210.81169128 C-34.38923019 210.04295181 -34.10937775 209.27421234 -33.82104492 208.48217773 C-33.57190842 207.8212059 -33.32277191 207.16023407 -33.06608582 206.47923279 C-32.45707164 202.0335803 -35.55888688 197.9567334 -37.59472656 194.16162109 C-41.31517962 186.76792171 -43.5973742 179.09440274 -45.8984375 171.18359375 C-46.35489387 169.64540335 -46.81237241 168.10751596 -47.27081299 166.56991577 C-48.46341588 162.56060036 -49.64289114 158.54754692 -50.8192749 154.53344727 C-52.01909975 150.4471448 -53.23048261 146.36427461 -54.44140625 142.28125 C-55.80315036 137.68921284 -57.16396113 133.09693891 -58.5145874 128.50161743 C-58.82274635 127.45474258 -58.82274635 127.45474258 -59.13713074 126.38671875 C-59.68939956 124.50979288 -60.2405857 122.63254854 -60.79168701 120.75527954 C-61.44974175 118.57914032 -62.15780159 116.4174215 -62.91778564 114.27474976 C-63.7890625 111.45703125 -63.7890625 111.45703125 -63.7890625 107.45703125 C-71.76501736 111.33091659 -79.4789176 115.493425 -87.1015625 120.01953125 C-97.16648013 125.94318759 -107.2912818 131.74694099 -117.4765625 137.4609375 C-120.84980199 139.35444118 -124.20353228 141.27524484 -127.5390625 143.234375 C-128.26351562 143.65549561 -128.98796875 144.07661621 -129.734375 144.51049805 C-131.04705117 145.27492603 -132.35490548 146.04773561 -133.65625 146.83129883 C-138.28187701 149.50581067 -142.64520389 150.89905003 -148.01171875 150.14453125 C-153.30511996 148.16652995 -157.04558811 145.49144817 -159.7890625 140.45703125 C-161.61474168 134.46255521 -161.10797358 129.73658409 -158.1875 124.24609375 C-154.99251724 120.1586577 -150.54949839 117.61079504 -146.08984375 115.09375 C-144.97569092 114.46154541 -143.86153809 113.82934082 -142.71362305 113.17797852 C-142.12527679 112.84678009 -141.53693054 112.51558167 -140.93075562 112.17434692 C-139.06979654 111.12664736 -137.21187753 110.07373786 -135.35473633 109.01928711 C-133.4263594 107.92440078 -131.49784432 106.82976981 -129.56846619 105.73664856 C-120.86998385 100.80794727 -112.20683797 95.8188677 -103.56640625 90.7890625 C-100.08788474 88.76687745 -96.59434819 86.79730398 -93.04296875 84.90625 C-85.95471294 81.06536001 -80.90975525 77.59033562 -77.5390625 70.02734375 C-76.14260498 65.24156747 -77.30636213 61.90876169 -78.828125 57.33203125 C-81.88503945 45.00496158 -80.63697174 32.09105981 -74.43359375 21.04296875 C-60.12751193 -1.89278709 -24.1226343 -13.34515483 0 0 Z " fill="#438BED" transform="translate(440.7890625,91.54296875)"/>
<path d="M0 0 C0.97984863 0.37801758 0.97984863 0.37801758 1.97949219 0.76367188 C16.04397978 6.28356959 26.40413655 12.65927083 33.3203125 26.67578125 C37.89324771 38.23603355 37.40604488 51.72562356 33.55859375 63.421875 C32.43837844 68.5920995 34.02022126 73.43714776 36.45117188 78.01855469 C39.71683999 82.19638609 44.61561768 84.24878885 49.25 86.625 C51.52590471 87.84418165 53.800616 89.06559337 56.07421875 90.2890625 C57.23099121 90.90426758 58.38776367 91.51947266 59.57958984 92.15332031 C64.81342279 94.97906709 69.93884757 97.98028746 75.0625 101 C81.24041796 104.63527582 87.42514072 108.25135758 93.6640625 111.78125 C94.75581787 112.40386719 95.84757324 113.02648437 96.97241211 113.66796875 C99.05907619 114.85699808 101.15078536 116.03723309 103.24829102 117.20703125 C109.4784674 120.77595396 114.62911295 123.88733885 117 131 C117.58946681 137.01256147 116.32681282 141.08702875 113 146 C110.32325305 149.1241571 107.66964724 150.79784234 103.6875 152 C94.677528 152 87.04497136 147.05883232 79.4375 142.6875 C78.35194824 142.07156982 77.26639648 141.45563965 76.14794922 140.82104492 C65.66264928 134.85401666 55.24564324 128.7685062 44.83935547 122.66503906 C40.2927895 119.9988671 35.74243556 117.33934604 31.1875 114.6875 C30.39875488 114.22512939 29.61000977 113.76275879 28.79736328 113.28637695 C28.07403809 112.86573975 27.35071289 112.44510254 26.60546875 112.01171875 C25.97793701 111.64522217 25.35040527 111.27872559 24.70385742 110.90112305 C22.83885925 109.8551846 22.83885925 109.8551846 20 109 C19.90955414 109.53992081 19.81910828 110.07984161 19.72592163 110.63612366 C18.22835356 118.83485487 15.7923192 126.72895606 13.3515625 134.68359375 C12.89284647 136.18984548 12.43446864 137.69620023 11.97640991 139.20265198 C11.01949246 142.34606609 10.05934342 145.48846798 9.09667969 148.63012695 C7.87215232 152.62688351 6.65447377 156.62568531 5.43908119 160.62522793 C4.49420444 163.73259098 3.54629914 166.8390237 2.59745407 169.94517708 C2.14782525 171.41791494 1.69895418 172.89088439 1.25090408 174.36410332 C-5.89584149 197.83921798 -5.89584149 197.83921798 -9.4375 201.5625 C-11.28068868 203.82576533 -11.28068868 203.82576533 -10.6086731 206.10322571 C-10.34094086 206.92034531 -10.07320862 207.7374649 -9.79736328 208.5793457 C-9.50774719 209.47497223 -9.2181311 210.37059875 -8.91973877 211.29336548 C-8.61622498 212.18655487 -8.31271118 213.07974426 -8 214 C-7.74305359 214.76178558 -7.48610718 215.52357117 -7.22137451 216.30844116 C-6.4325953 218.60122817 -5.62201567 220.88520904 -4.8046875 223.16796875 C-4.49959763 224.02603622 -4.19450775 224.8841037 -3.88017273 225.76817322 C-2.88103929 228.57554631 -1.87814174 231.38155692 -0.875 234.1875 C-0.17300318 236.1567053 0.52889942 238.12594419 1.23071289 240.09521484 C7.32721223 257.1842578 13.49281467 274.24838385 19.67822266 291.30541992 C20.0278154 292.26960342 20.37740814 293.23378693 20.7375946 294.22718811 C21.39246431 296.03278872 22.04772528 297.83824749 22.70344543 299.64353943 C22.99265366 300.44066849 23.28186188 301.23779755 23.57983398 302.05908203 C23.83135727 302.75164093 24.08288055 303.44419983 24.34202576 304.15774536 C26.0370263 308.90355819 26.16180599 313.12399715 26.17700195 318.11791992 C26.18357315 319.051604 26.19014435 319.98528809 26.19691467 320.94726562 C26.21664778 324.04166748 26.2283112 327.13602076 26.23828125 330.23046875 C26.24235678 331.28789087 26.2464323 332.345313 26.25063133 333.43477821 C26.27149352 339.0330956 26.28579382 344.63138847 26.29516602 350.22973633 C26.30622227 356.00556401 26.34061299 361.78100557 26.38033772 367.55669689 C26.40651504 372.00318608 26.41485893 376.44958349 26.41844749 380.89614296 C26.42331163 383.02473873 26.43492065 385.15333045 26.45348549 387.28185081 C26.47789701 390.26657839 26.47690786 393.25031006 26.4699707 396.23510742 C26.48918579 397.54542686 26.48918579 397.54542686 26.50878906 398.88221741 C26.44722698 406.17725778 24.32033514 411.2522347 19.625 416.8125 C13.63680332 421.8026639 8.8759121 422.55840194 1.19140625 422.33984375 C-4.35476147 421.74924817 -7.9985309 420.18142575 -11.78125 416.05859375 C-16.137828 410.47929692 -17.13691238 406.52763608 -16.87207031 399.48583984 C-16.82364874 397.89022861 -16.77630933 396.29458428 -16.72988892 394.69891357 C-16.70424488 393.84811974 -16.67860085 392.9973259 -16.65217972 392.12075043 C-15.38921749 346.75911322 -16.95277592 309.75036752 -36.26220703 268.11279297 C-40.31169493 259.26998321 -43.45462696 250.10868212 -46.61810303 240.92034912 C-47.52335702 238.30077001 -48.44683957 235.68858294 -49.37939453 233.07861328 C-51.67648611 226.64747621 -53.9377786 220.21065965 -56.09361267 213.73042297 C-56.45134734 212.65559316 -56.80908201 211.58076334 -57.17765713 210.47336292 C-57.44903028 209.65715316 -57.72040342 208.84094339 -58 208 C-58.00146656 209.00698913 -58.00293312 210.01397825 -58.00444412 211.0514822 C-58.04105467 235.56457865 -58.10052475 260.07753862 -58.18390274 284.59052181 C-58.22369581 296.44487164 -58.25608699 308.29915506 -58.27099609 320.15356445 C-58.28401116 330.48702289 -58.31097229 340.82033522 -58.35461307 351.15371138 C-58.37723094 356.62412826 -58.39291047 362.0943649 -58.39188385 367.56483269 C-58.39113745 372.71703782 -58.40908079 377.86884448 -58.44116783 383.0209465 C-58.44966505 384.90867736 -58.45141798 386.79645293 -58.44580269 388.68419456 C-58.39291603 409.20132916 -58.39291603 409.20132916 -64.77911758 415.85310268 C-71.04339964 421.62055756 -76.02619092 422.51107958 -84.51171875 422.37890625 C-90.86513022 421.68878205 -94.66524406 418.66047551 -98.875 414.0625 C-102.87263992 408.3011954 -103.29189025 403.10646235 -103.25396729 396.32865906 C-103.25708727 395.46825305 -103.26020725 394.60784705 -103.26342177 393.72136813 C-103.27138406 390.84501835 -103.26508493 387.96888057 -103.25878906 385.0925293 C-103.26149977 383.02745439 -103.26506115 380.96238046 -103.26940918 378.89730835 C-103.27852767 373.29184211 -103.27499066 367.6864495 -103.26865101 362.08098197 C-103.26358621 356.21152279 -103.26828399 350.3420699 -103.27142334 344.47261047 C-103.27506244 334.61266957 -103.27026624 324.75275862 -103.26074219 314.89282227 C-103.24986681 303.50256911 -103.2533768 292.11238761 -103.264395 280.7221362 C-103.27348026 270.93766057 -103.27474681 261.15320647 -103.26951766 251.36872798 C-103.26640362 245.52731294 -103.26597291 239.68593153 -103.27259064 233.84451866 C-103.27838114 228.34928294 -103.27433596 222.85413924 -103.26280212 217.35891342 C-103.26016427 215.34538106 -103.26090564 213.33184092 -103.26532745 211.31831169 C-103.27081916 208.56286824 -103.26390488 205.80771688 -103.25396729 203.05229187 C-103.25842873 202.26161007 -103.26289017 201.47092827 -103.26748681 200.65628642 C-103.23416918 195.87014594 -102.60148215 191.563381 -101.40148711 186.92668945 C-100.85583986 184.30819243 -101.23919709 182.31182132 -101.9375 179.75 C-104.94483529 165.72491587 -99.84243181 152.51122251 -95.76171875 139.2265625 C-95.11814997 137.09689105 -94.4757438 134.96686797 -93.83442688 132.83651733 C-92.14278839 127.22883414 -90.43506439 121.62617644 -88.72393799 116.02441406 C-87.02922587 110.46592598 -85.35032656 104.90267023 -83.66992188 99.33984375 C-80.73222257 89.62233789 -77.77412224 79.91120632 -74.8051281 70.20322037 C-72.97396726 64.20995256 -71.15897042 58.21216984 -69.36165524 52.20866585 C-68.27774707 48.59159332 -67.18602394 44.97690743 -66.09296608 41.36259079 C-65.59407992 39.7060595 -65.09873158 38.04845772 -64.60730553 36.38969803 C-60.41480635 22.24768634 -55.65393736 9.496833 -42.6015625 1.35546875 C-28.54351028 -5.96907197 -14.51822675 -5.62209236 0 0 Z " fill="#448BED" transform="translate(113,90)"/>
<path d="M0 0 C0.71402481 -0.00817749 1.42804962 -0.01635498 2.16371155 -0.02478027 C4.53125162 -0.04963192 6.89873175 -0.06614971 9.26635742 -0.08056641 C10.07469213 -0.08589008 10.88302685 -0.09121376 11.71585655 -0.09669876 C15.99448066 -0.12342954 20.2730756 -0.14280451 24.55175781 -0.15722656 C28.97054386 -0.17387327 33.3885839 -0.21865059 37.8070879 -0.26959801 C41.20518345 -0.30325896 44.60310168 -0.31480266 48.0013485 -0.32045364 C49.63005969 -0.32716953 51.25875909 -0.34240055 52.88730812 -0.36634445 C55.16897941 -0.39797642 57.44863564 -0.39803702 59.73046875 -0.390625 C61.67666862 -0.40275528 61.67666862 -0.40275528 63.66218567 -0.41513062 C67.92449032 0.34771346 69.36755907 1.88191773 72.05932617 5.19287109 C73.39021728 7.8546533 73.1720161 9.88026505 73.15698242 12.85693359 C73.15375977 13.97841797 73.15053711 15.09990234 73.1472168 16.25537109 C73.13883789 17.43099609 73.13045898 18.60662109 73.12182617 19.81787109 C73.11731445 21.00123047 73.11280273 22.18458984 73.1081543 23.40380859 C73.09634084 26.33354616 73.07986875 29.26318382 73.05932617 32.19287109 C73.75493652 32.16668701 74.45054687 32.14050293 75.16723633 32.11352539 C78.33936702 32.0091616 81.51113595 31.94442049 84.68432617 31.88037109 C85.77874023 31.83847656 86.8731543 31.79658203 88.00073242 31.75341797 C97.1181386 31.61527545 97.1181386 31.61527545 100.77026367 34.58740234 C108.45466877 43.3339863 105.1605099 63.11887452 105.05932617 74.19287109 C108.68932617 74.19287109 112.31932617 74.19287109 116.05932617 74.19287109 C116.05932617 85.08287109 116.05932617 95.97287109 116.05932617 107.19287109 C59.29932617 107.19287109 2.53932617 107.19287109 -55.94067383 107.19287109 C-55.94067383 96.30287109 -55.94067383 85.41287109 -55.94067383 74.19287109 C-52.31067383 74.19287109 -48.68067383 74.19287109 -44.94067383 74.19287109 C-44.96685791 73.16403809 -44.99304199 72.13520508 -45.02001953 71.07519531 C-45.11085935 67.23996932 -45.16804419 63.40483743 -45.21533203 59.56884766 C-45.24039982 57.9121092 -45.27446373 56.25548051 -45.31787109 54.59912109 C-45.37887026 52.21082426 -45.40695909 49.82399516 -45.42895508 47.43505859 C-45.45476151 46.70044403 -45.48056793 45.96582947 -45.50715637 45.20895386 C-45.5092856 41.26080317 -44.98632899 38.76797822 -42.53515625 35.74023438 C-38.8785566 32.15004328 -37.27802193 32.06995519 -32.27661133 32.09521484 C-31.15512695 32.0984375 -30.03364258 32.10166016 -28.87817383 32.10498047 C-27.70254883 32.11335938 -26.52692383 32.12173828 -25.31567383 32.13037109 C-24.13231445 32.13488281 -22.94895508 32.13939453 -21.72973633 32.14404297 C-18.79999876 32.15585643 -15.87036111 32.17232852 -12.94067383 32.19287109 C-12.96162109 31.46696777 -12.98256836 30.74106445 -13.00415039 29.99316406 C-13.08761033 26.68487554 -13.13942921 23.37680899 -13.19067383 20.06787109 C-13.22418945 18.92576172 -13.25770508 17.78365234 -13.29223633 16.60693359 C-13.4157718 5.98288336 -13.4157718 5.98288336 -8.94067383 1.19287109 C-5.98098335 -0.28697415 -3.30325095 0.03280197 0 0 Z " fill="#448BED" transform="translate(225.940673828125,255.80712890625)"/>
<path d="M0 0 C9.69242413 6.95288386 16.11995831 16.46391612 18.3125 28.3125 C19.20255131 42.86141557 16.76980464 53.93664943 7.56640625 65.5078125 C-0.19106129 73.99103064 -10.71951215 78.49452433 -22.04296875 79.52734375 C-35.05380048 80.04446743 -46.26621765 75.42536249 -55.875 66.8125 C-65.0689195 57.15140979 -68.21927164 45.22666781 -67.96484375 32.23828125 C-67.1419928 20.59088401 -61.83209893 11.03750897 -53.5 3.0625 C-38.22170141 -9.91110609 -16.69195647 -10.15663114 0 0 Z " fill="#448BED" transform="translate(408.6875,6.6875)"/>
<path d="M0 0 C9.69242413 6.95288386 16.11995831 16.46391612 18.3125 28.3125 C19.20255131 42.86141557 16.76980464 53.93664943 7.56640625 65.5078125 C-0.19106129 73.99103064 -10.71951215 78.49452433 -22.04296875 79.52734375 C-35.05380048 80.04446743 -46.26621765 75.42536249 -55.875 66.8125 C-65.0689195 57.15140979 -68.21927164 45.22666781 -67.96484375 32.23828125 C-67.1419928 20.59088401 -61.83209893 11.03750897 -53.5 3.0625 C-38.22170141 -9.91110609 -16.69195647 -10.15663114 0 0 Z " fill="#448BED" transform="translate(152.6875,6.6875)"/>
<path d="M0 0 C10.56 0 21.12 0 32 0 C32 45.87 32 91.74 32 139 C21.44 139 10.88 139 0 139 C0 93.13 0 47.26 0 0 Z " fill="#448BED" transform="translate(288,373)"/>
<path d="M0 0 C10.56 0 21.12 0 32 0 C32 45.87 32 91.74 32 139 C21.44 139 10.88 139 0 139 C0 93.13 0 47.26 0 0 Z " fill="#448BED" transform="translate(192,373)"/>
</svg>
