<?xml version="1.0" encoding="UTF-8"?>
<svg version="1.1" xmlns="http://www.w3.org/2000/svg" width="512" height="512">
<path d="M0 0 C0.66 -0.0103125 1.32 -0.020625 2 -0.03125 C5.02495539 0.77225378 6.09823222 2.01352419 8 4.5 C8.3491005 7.3896512 8.4681562 9.8859271 8.390625 12.765625 C8.38496521 13.55902283 8.37930542 14.35242065 8.37347412 15.16986084 C8.35113147 17.69719473 8.30094176 20.22309665 8.25 22.75 C8.22993214 24.46612532 8.21168187 26.18227292 8.1953125 27.8984375 C8.15127395 32.0995078 8.08226326 36.29951135 8 40.5 C9.423125 40.6546875 9.423125 40.6546875 10.875 40.8125 C14 41.5 14 41.5 16 44.5 C16.67065868 51.54191617 16.67065868 51.54191617 14.25 55 C12 56.5 12 56.5 8 56.5 C8 61.78 8 67.06 8 72.5 C11.3 72.17 14.6 71.84 18 71.5 C17.34 70.51 16.68 69.52 16 68.5 C15.32934132 61.45808383 15.32934132 61.45808383 17.75 58 C20 56.5 20 56.5 24 56.5 C23.97905273 55.43040039 23.95810547 54.36080078 23.93652344 53.25878906 C23.86405374 49.28561827 23.81817537 45.31250575 23.78027344 41.33886719 C23.76017372 39.62001721 23.73288911 37.90123548 23.69824219 36.18261719 C23.64964966 33.71011511 23.62701565 31.2385179 23.609375 28.765625 C23.58872986 27.99881409 23.56808472 27.23200317 23.54681396 26.44195557 C23.54531296 22.86267032 23.69286873 20.90156032 25.89941406 18.01660156 C28.17217406 16.37569209 29.22992986 15.95671765 32 16 C32.99 15.98453125 32.99 15.98453125 34 15.96875 C37.02495539 16.77225378 38.09823222 18.01352419 40 20.5 C40.3491005 23.3896512 40.4681562 25.8859271 40.390625 28.765625 C40.38496521 29.55902283 40.37930542 30.35242065 40.37347412 31.16986084 C40.35113147 33.69719473 40.30094176 36.22309665 40.25 38.75 C40.22993214 40.46612532 40.21168187 42.18227292 40.1953125 43.8984375 C40.15127395 48.0995078 40.08226326 52.29951135 40 56.5 C40.94875 56.603125 41.8975 56.70625 42.875 56.8125 C46 57.5 46 57.5 48 60.5 C48.67065868 67.54191617 48.67065868 67.54191617 46.25 71 C44 72.5 44 72.5 40 72.5 C40.0825 73.36625 40.165 74.2325 40.25 75.125 C39.93306731 79.40359136 38.71845937 81.2092334 36 84.5 C30 88.5 30 88.5 8 88.5 C8 104.34 8 120.18 8 136.5 C11.96 136.5 15.92 136.5 20 136.5 C24 140.5 24 140.5 24 144.5 C39.84 144.5 55.68 144.5 72 144.5 C72.33 142.52 72.66 140.54 73 138.5 C76 136.5 76 136.5 80 136.5 C80 133.53 80 130.56 80 127.5 C79.34 127.314375 78.68 127.12875 78 126.9375 C71.7887606 123.96128112 67.28118972 119.91029817 64.63110352 113.49061584 C63.56868334 110.1395484 63.5521612 106.77953072 63.56640625 103.30078125 C63.5611644 102.543311 63.55592255 101.78584076 63.55052185 101.00541687 C63.54413904 99.41630269 63.54538979 97.82714103 63.55395508 96.23803711 C63.56251503 93.80823382 63.53357608 91.38074649 63.50195312 88.95117188 C63.50034204 87.40104237 63.50091686 85.85090871 63.50390625 84.30078125 C63.49267227 83.5778035 63.48143829 82.85482574 63.46986389 82.10993958 C63.51384215 78.93224495 63.82677457 76.78951541 65.46850586 74.0456543 C69.24961935 71.73701996 72.64712873 71.92687944 77 71.96875 C78.30904297 71.96300964 78.30904297 71.96300964 79.64453125 71.95715332 C81.48699092 71.9544351 83.32948924 71.96179006 85.171875 71.97851562 C87.99045934 71.99992752 90.80649485 71.97871199 93.625 71.953125 C95.41667229 71.95576829 97.20834299 71.96089331 99 71.96875 C100.26263672 71.95660461 100.26263672 71.95660461 101.55078125 71.94421387 C105.18193217 72.00234348 107.39030382 72.12688477 110.52929688 74.04785156 C112.54881522 77.41505645 112.57417405 80.44954847 112.53125 84.265625 C112.5350769 85.01785339 112.53890381 85.77008179 112.54284668 86.54510498 C112.54556434 88.1353896 112.53821315 89.72571902 112.52148438 91.31591797 C112.50018909 93.72857712 112.52122518 96.13821811 112.546875 98.55078125 C112.56497339 107.71577021 112.31510729 114.58650869 106 121.77734375 C105.34 122.32519531 104.68 122.87304688 104 123.4375 C103.34 124.00339844 102.68 124.56929688 102 125.15234375 C100 126.5 100 126.5 96 127.5 C96 130.47 96 133.44 96 136.5 C97.423125 136.6546875 97.423125 136.6546875 98.875 136.8125 C102 137.5 102 137.5 104 140.5 C104 141.82 104 143.14 104 144.5 C104.81984375 144.45359375 105.6396875 144.4071875 106.484375 144.359375 C107.56203125 144.32328125 108.6396875 144.2871875 109.75 144.25 C110.81734375 144.20359375 111.8846875 144.1571875 112.984375 144.109375 C116 144.5 116 144.5 118.1640625 145.8984375 C120.99644758 149.91198742 120.49568733 153.72283536 120.390625 158.515625 C120.38496521 159.48659119 120.37930542 160.45755737 120.37347412 161.45794678 C120.35110311 164.55580169 120.30090473 167.65249533 120.25 170.75 C120.22993597 172.85154578 120.21168503 174.95310972 120.1953125 177.0546875 C120.1512358 182.2035717 120.08220258 187.35158903 120 192.5 C121.39275398 192.49666908 121.39275398 192.49666908 122.81364441 192.49327087 C131.5681917 192.47322549 140.32273128 192.45800417 149.07729626 192.44818783 C153.57798937 192.4429715 158.07866351 192.43589651 162.5793457 192.42456055 C166.92355346 192.4136873 171.26774296 192.40771374 175.61196327 192.40512276 C177.26853027 192.40327652 178.92509628 192.39967129 180.5816555 192.39426994 C182.90366135 192.38700065 185.225592 192.38601155 187.54760742 192.38647461 C188.23093643 192.38287933 188.91426544 192.37928406 189.61830139 192.37557983 C193.20614391 192.38331115 196.51026226 192.65441624 200 193.5 C200.18125931 192.2855722 200.36251862 191.07114441 200.54927063 189.81991577 C202.25944327 178.37100098 203.9803758 166.92374857 205.71183491 155.47803307 C206.60163297 149.59373625 207.48764055 143.70892072 208.36499023 137.82275391 C209.21194031 132.14149594 210.06884066 126.46182007 210.93263817 120.78310013 C211.26031942 118.6171358 211.58442177 116.45062688 211.90487099 114.28358078 C212.35458593 111.2466132 212.81702829 108.21183737 213.2824707 105.17724609 C213.41194595 104.28244537 213.5414212 103.38764465 213.67481995 102.46572876 C214.42490675 97.67275409 215.33202852 93.65756365 218 89.5 C222.00149564 87.61250206 224.04204351 87.22888024 228.3125 88.4375 C231.89702534 91.1884148 232.14318727 93.09968592 233 97.5 C232.73500776 100.33593901 232.36231975 102.87268146 231.77416992 105.63574219 C231.45335319 107.29029151 231.132935 108.94491815 230.81285095 110.59960938 C230.6366667 111.48060303 230.46048244 112.36159668 230.27895927 113.26928711 C229.30811194 118.18571441 228.42437933 123.11789528 227.53613281 128.04980469 C227.3448603 129.11119408 227.15358778 130.17258347 226.95651913 131.26613617 C217.20692227 185.70979479 215.3912212 238.55814859 215.8755759 293.6990633 C215.89501753 295.95869674 215.91268346 298.21833771 215.92988682 300.4779892 C215.94141177 301.94227697 215.95305759 303.40656379 215.96482849 304.87084961 C215.97053543 305.58270936 215.97624237 306.2945691 215.98212224 307.02800035 C216.01862537 311.19486095 216.07942025 315.36049458 216.16075021 319.52671313 C216.21829893 322.66312528 216.25247235 325.79983973 216.29199219 328.93652344 C216.32211993 330.05872662 216.35224768 331.18092979 216.38328838 332.33713913 C216.39253747 333.36168827 216.40178656 334.38623741 216.41131592 335.4418335 C216.42840984 336.32810299 216.44550377 337.21437248 216.46311569 338.12749863 C215.84433518 341.2974573 214.46189339 342.48635152 212 344.5 C210 345.03125 210 345.03125 208 345 C207.01 345.01546875 207.01 345.01546875 206 345.03125 C202.94926548 344.22089864 201.90612761 343.02665054 200 340.5 C199.41693535 337.53476699 199.49472825 334.61373684 199.54589844 331.60058594 C199.5454163 330.68818272 199.54493416 329.7757795 199.54443741 328.83572769 C199.54742093 325.88487875 199.57787062 322.93504292 199.609375 319.984375 C199.6152568 318.16162604 199.61933711 316.33887035 199.62158203 314.51611328 C199.64254593 307.76063909 199.69839091 301.00530958 199.75 294.25 C199.8325 279.1525 199.915 264.055 200 248.5 C168.32 248.5 136.64 248.5 104 248.5 C104.15835335 278.59731095 104.15835335 278.59731095 104.36035156 308.69433594 C104.37841797 314.51611328 104.37841797 314.51611328 104.3817749 317.24176025 C104.38791629 319.14495584 104.40198281 321.04813589 104.42230225 322.95123291 C104.45154868 325.83462552 104.45562529 328.7170674 104.45410156 331.60058594 C104.47569021 332.8718313 104.47569021 332.8718313 104.497715 334.16875839 C104.4571669 339.89400647 104.4571669 339.89400647 102.09661865 343.02301025 C99.82895809 344.62049266 98.74400311 345.04287505 96 345 C95.01 345.01546875 95.01 345.01546875 94 345.03125 C91.09028678 344.25835742 89.90737995 342.79517651 88 340.5 C87.49663544 338.04954243 87.49663544 338.04954243 87.49206543 335.25813293 C87.47514648 333.66649826 87.47514648 333.66649826 87.45788574 332.04270935 C87.47003113 330.30417442 87.47003113 330.30417442 87.48242188 328.53051758 C87.47190796 326.69327118 87.47190796 326.69327118 87.46118164 324.81890869 C87.44658823 321.46086349 87.45001702 318.10380369 87.46269798 314.74581361 C87.47283767 311.22527906 87.46342858 307.70478612 87.45715332 304.18424988 C87.4498749 298.26688095 87.45946453 292.34971165 87.47851562 286.43237305 C87.5002347 279.60790576 87.49327038 272.78391744 87.47121 265.95946199 C87.45300118 260.09003336 87.45052581 254.2207482 87.46096468 248.35130042 C87.46717615 244.85051784 87.46810157 241.34995951 87.45481873 237.84919167 C87.44101655 233.93809355 87.46019918 230.02752186 87.48242188 226.11645508 C87.47432495 224.96755295 87.46622803 223.81865082 87.45788574 222.63493347 C87.55525324 213.35346392 89.69931478 206.47575863 96 199.5 C72.23524441 195.767004 55.847764 196.54578664 33.8894043 206.91308594 C25.17827044 210.99210286 17.73435991 213.5 8 213.5 C8 251.45 8 289.4 8 328.5 C17.24 328.5 26.48 328.5 36 328.5 C40 332.5 40 332.5 40.53125 334.5 C40.5209375 335.16 40.510625 335.82 40.5 336.5 C40.5103125 337.16 40.520625 337.82 40.53125 338.5 C39.74176632 341.47217385 38.39936627 342.59656286 36 344.5 C32.8125 345.00793457 32.8125 345.00793457 29 345.01757812 C28.30358398 345.0245874 27.60716797 345.03159668 26.88964844 345.03881836 C24.59269068 345.05639196 22.29696979 345.04477919 20 345.03125 C18.40103927 345.03394513 16.80208013 345.03782773 15.203125 345.04284668 C11.85400774 345.04874082 8.50531757 345.04018192 5.15625 345.02148438 C0.86521409 344.99869435 -3.42482111 345.01181796 -7.71582031 345.03577423 C-11.01700366 345.0502348 -14.31795011 345.04562515 -17.61914062 345.03526306 C-19.20117308 345.03259646 -20.78322711 345.03586322 -22.36523438 345.04518127 C-24.57740163 345.05535179 -26.787953 345.0398419 -29 345.01757812 C-30.258125 345.01439575 -31.51625 345.01121338 -32.8125 345.00793457 C-36.55520109 344.41152758 -37.73159929 343.4748465 -40 340.5 C-40.53125 338.5 -40.53125 338.5 -40.5 336.5 C-40.5103125 335.84 -40.520625 335.18 -40.53125 334.5 C-40 332.5 -40 332.5 -36 328.5 C-26.76 328.5 -17.52 328.5 -8 328.5 C-8 290.55 -8 252.6 -8 213.5 C-11.63 213.17 -15.26 212.84 -19 212.5 C-25.69962215 211.04956634 -31.78779898 208.16244187 -37.90625 205.15209961 C-57.96151178 195.28511708 -74.34764136 196.09882181 -96 199.5 C-95.59007812 200.01949219 -95.18015625 200.53898438 -94.7578125 201.07421875 C-94.21898437 201.77160156 -93.68015625 202.46898437 -93.125 203.1875 C-92.59132812 203.87199219 -92.05765625 204.55648437 -91.5078125 205.26171875 C-88.71936393 209.40104785 -87.75039819 212.96627828 -87.73257446 217.93373108 C-87.71977951 219.55088768 -87.71977951 219.55088768 -87.70672607 221.20071411 C-87.70808563 222.95966507 -87.70808563 222.95966507 -87.70947266 224.75415039 C-87.70275543 225.99691238 -87.69603821 227.23967438 -87.68911743 228.52009583 C-87.67339038 231.92086121 -87.66676352 235.32138238 -87.66548586 238.72216725 C-87.66406265 240.84743178 -87.65978998 242.97267082 -87.65449142 245.097929 C-87.6360053 252.51362608 -87.62781955 259.92925135 -87.62939453 267.3449707 C-87.63059745 274.25643457 -87.60946234 281.16758693 -87.5779072 288.07897192 C-87.55176575 294.01625603 -87.54102624 299.9534382 -87.54230535 305.89077944 C-87.54281537 309.43557384 -87.53711003 312.98009092 -87.51594925 316.52482796 C-87.49300919 320.47509108 -87.50207472 324.42492518 -87.51416016 328.37524414 C-87.50292114 329.54990234 -87.49168213 330.72456055 -87.48010254 331.93481445 C-87.48849152 333.01009903 -87.49688049 334.08538361 -87.50552368 335.19325256 C-87.50443415 336.12698731 -87.50334461 337.06072206 -87.50222206 338.02275181 C-88.15122891 341.25260778 -89.47863432 342.45129522 -92 344.5 C-94 345.03125 -94 345.03125 -96 345 C-96.99 345.01546875 -96.99 345.01546875 -98 345.03125 C-101.05073452 344.22089864 -102.09387239 343.02665054 -104 340.5 C-104.58306465 337.53476699 -104.50527175 334.61373684 -104.45410156 331.60058594 C-104.4545837 330.68818272 -104.45506584 329.7757795 -104.45556259 328.83572769 C-104.45257907 325.88487875 -104.42212938 322.93504292 -104.390625 319.984375 C-104.3847432 318.16162604 -104.38066289 316.33887035 -104.37841797 314.51611328 C-104.35745407 307.76063909 -104.30160909 301.00530958 -104.25 294.25 C-104.1675 279.1525 -104.085 264.055 -104 248.5 C-135.68 248.5 -167.36 248.5 -200 248.5 C-199.84164665 278.59731095 -199.84164665 278.59731095 -199.63964844 308.69433594 C-199.62158203 314.51611328 -199.62158203 314.51611328 -199.6182251 317.24176025 C-199.61208371 319.14495584 -199.59801719 321.04813589 -199.57769775 322.95123291 C-199.54845132 325.83462552 -199.54437471 328.7170674 -199.54589844 331.60058594 C-199.531506 332.44808285 -199.51711357 333.29557976 -199.502285 334.16875839 C-199.5428331 339.89400647 -199.5428331 339.89400647 -201.90338135 343.02301025 C-204.17104191 344.62049266 -205.25599689 345.04287505 -208 345 C-208.66 345.0103125 -209.32 345.020625 -210 345.03125 C-212.9051924 344.25955827 -214.09442349 342.78878074 -216 340.5 C-216.46311569 338.12749863 -216.46311569 338.12749863 -216.41131592 335.4418335 C-216.40206683 334.41728436 -216.39281775 333.39273521 -216.38328838 332.33713913 C-216.35316064 331.21493595 -216.32303289 330.09273277 -216.29199219 328.93652344 C-216.27698323 327.74526478 -216.26197428 326.55400612 -216.24651051 325.32664871 C-216.21276813 322.71783202 -216.17213799 320.11006467 -216.12121773 317.50161743 C-216.0414062 313.29151254 -215.99858542 309.08154878 -215.96482849 304.87084961 C-215.95903516 304.15016658 -215.95324184 303.42948356 -215.94727296 302.68696165 C-215.93562062 301.20648915 -215.92416183 299.72601512 -215.91289055 298.24553967 C-215.89504846 295.95973316 -215.87535529 293.67394858 -215.85527706 291.38816071 C-215.37734357 235.86194445 -217.65948044 182.8562883 -227.53613281 128.04980469 C-227.72215089 127.01695595 -227.90816896 125.98410721 -228.09982395 124.91996002 C-228.96718847 120.1384764 -229.85989005 115.36480541 -230.81285095 110.59960938 C-231.05748266 109.33497297 -231.05748266 109.33497297 -231.30705643 108.04478836 C-231.60610875 106.5024847 -231.91748011 104.9624873 -232.24456406 103.42588425 C-233.17129278 98.56962109 -232.83106752 95.0908577 -231 90.5 C-228.3125 88.4375 -228.3125 88.4375 -225 87.5 C-221.15595081 88.02122701 -218.87683578 88.40906765 -216.40031433 91.49028015 C-214.47600752 95.62622612 -213.92335807 99.66227724 -213.2824707 104.15551758 C-213.13572906 105.1218512 -212.98898743 106.08818481 -212.83779907 107.08380127 C-212.35671447 110.26924703 -211.89118895 113.45676059 -211.42578125 116.64453125 C-211.09472208 118.85713292 -210.76269284 121.06958964 -210.42973328 123.28190613 C-209.55698163 129.09851241 -208.69741556 134.91699329 -207.84057617 140.73596191 C-206.9635181 146.67607391 -206.07401031 152.61431955 -205.18554688 158.55273438 C-203.44483813 170.20002954 -201.71805275 181.84934295 -200 193.5 C-198.9930584 193.25601219 -198.9930584 193.25601219 -197.96577454 193.00709534 C-194.47318144 192.40992328 -191.07756949 192.36790202 -187.54760742 192.38647461 C-186.8153595 192.38632858 -186.08311157 192.38618256 -185.32867432 192.3860321 C-182.92090845 192.38672587 -180.51322102 192.39449308 -178.10546875 192.40234375 C-176.43109682 192.40420983 -174.75672435 192.40563284 -173.08235168 192.40663147 C-168.68472779 192.41044165 -164.28713716 192.4202591 -159.88952637 192.43133545 C-155.39836069 192.44158184 -150.90718963 192.446136 -146.41601562 192.45117188 C-137.61066186 192.46188274 -128.80533507 192.47894112 -120 192.5 C-120.0314209 190.53208496 -120.0314209 190.53208496 -120.06347656 188.52441406 C-120.1358797 183.65668656 -120.18180113 178.78900665 -120.21972656 173.92089844 C-120.23984126 171.81404618 -120.26713667 169.70724975 -120.30175781 167.60058594 C-120.35028168 164.57212553 -120.37297016 161.54440322 -120.390625 158.515625 C-120.42159271 157.10292328 -120.42159271 157.10292328 -120.45318604 155.66168213 C-120.45542169 149.14534223 -120.45542169 149.14534223 -118.1640625 145.8984375 C-115.23207567 144.00376009 -113.20889443 144.09961329 -109.75 144.25 C-108.67234375 144.28609375 -107.5946875 144.3221875 -106.484375 144.359375 C-105.66453125 144.40578125 -104.8446875 144.4521875 -104 144.5 C-103.896875 143.55125 -103.79375 142.6025 -103.6875 141.625 C-103 138.5 -103 138.5 -100 136.5 C-98.68 136.5 -97.36 136.5 -96 136.5 C-96 133.53 -96 130.56 -96 127.5 C-96.99 127.2215625 -96.99 127.2215625 -98 126.9375 C-104.2112394 123.96128112 -108.71881028 119.91029817 -111.36889648 113.49061584 C-112.43131666 110.1395484 -112.4478388 106.77953072 -112.43359375 103.30078125 C-112.4388356 102.543311 -112.44407745 101.78584076 -112.44947815 101.00541687 C-112.45586096 99.41630269 -112.45461021 97.82714103 -112.44604492 96.23803711 C-112.43748497 93.80823382 -112.46642392 91.38074649 -112.49804688 88.95117188 C-112.49965796 87.40104237 -112.49908314 85.85090871 -112.49609375 84.30078125 C-112.50732773 83.5778035 -112.51856171 82.85482574 -112.53013611 82.10993958 C-112.48615785 78.93224495 -112.17322543 76.78951541 -110.53149414 74.0456543 C-106.75038065 71.73701996 -103.35287127 71.92687944 -99 71.96875 C-97.69095703 71.96300964 -97.69095703 71.96300964 -96.35546875 71.95715332 C-94.51300908 71.9544351 -92.67051076 71.96179006 -90.828125 71.97851562 C-88.00954066 71.99992752 -85.19350515 71.97871199 -82.375 71.953125 C-80.58332771 71.95576829 -78.79165701 71.96089331 -77 71.96875 C-75.73736328 71.95660461 -75.73736328 71.95660461 -74.44921875 71.94421387 C-70.81806783 72.00234348 -68.60969618 72.12688477 -65.47070312 74.04785156 C-63.45118478 77.41505645 -63.42582595 80.44954847 -63.46875 84.265625 C-63.4649231 85.01785339 -63.46109619 85.77008179 -63.45715332 86.54510498 C-63.45443566 88.1353896 -63.46178685 89.72571902 -63.47851562 91.31591797 C-63.49981091 93.72857712 -63.47877482 96.13821811 -63.453125 98.55078125 C-63.43502661 107.71577021 -63.68489271 114.58650869 -70 121.77734375 C-70.66 122.32519531 -71.32 122.87304688 -72 123.4375 C-72.66 124.00339844 -73.32 124.56929688 -74 125.15234375 C-76 126.5 -76 126.5 -80 127.5 C-80 130.47 -80 133.44 -80 136.5 C-79.05125 136.603125 -78.1025 136.70625 -77.125 136.8125 C-74 137.5 -74 137.5 -72 140.5 C-72 141.82 -72 143.14 -72 144.5 C-56.16 144.5 -40.32 144.5 -24 144.5 C-23.67 142.52 -23.34 140.54 -23 138.5 C-20 136.5 -20 136.5 -8 136.5 C-8 120.66 -8 104.82 -8 88.5 C-15.26 88.5 -22.52 88.5 -30 88.5 C-37.34693878 83.60204082 -37.34693878 83.60204082 -40 78.5 C-40.25 75.125 -40.25 75.125 -40 72.5 C-40.94875 72.396875 -41.8975 72.29375 -42.875 72.1875 C-46 71.5 -46 71.5 -48 68.5 C-48.67065868 61.45808383 -48.67065868 61.45808383 -46.25 58 C-44 56.5 -44 56.5 -40 56.5 C-40.02094727 55.43040039 -40.04189453 54.36080078 -40.06347656 53.25878906 C-40.13594626 49.28561827 -40.18182463 45.31250575 -40.21972656 41.33886719 C-40.23982628 39.62001721 -40.26711089 37.90123548 -40.30175781 36.18261719 C-40.35035034 33.71011511 -40.37298435 31.2385179 -40.390625 28.765625 C-40.41127014 27.99881409 -40.43191528 27.23200317 -40.45318604 26.44195557 C-40.45468704 22.86267032 -40.30713127 20.90156032 -38.10058594 18.01660156 C-35.82782594 16.37569209 -34.77007014 15.95671765 -32 16 C-31.34 15.9896875 -30.68 15.979375 -30 15.96875 C-26.97504461 16.77225378 -25.90176778 18.01352419 -24 20.5 C-23.6508995 23.3896512 -23.5318438 25.8859271 -23.609375 28.765625 C-23.61503479 29.55902283 -23.62069458 30.35242065 -23.62652588 31.16986084 C-23.64886853 33.69719473 -23.69905824 36.22309665 -23.75 38.75 C-23.77006786 40.46612532 -23.78831813 42.18227292 -23.8046875 43.8984375 C-23.84872605 48.0995078 -23.91773674 52.29951135 -24 56.5 C-22.576875 56.6546875 -22.576875 56.6546875 -21.125 56.8125 C-18 57.5 -18 57.5 -16 60.5 C-15.734375 62.4375 -15.734375 62.4375 -15.75 64.5 C-15.74226563 65.5209375 -15.74226563 65.5209375 -15.734375 66.5625 C-16 68.5 -16 68.5 -18 71.5 C-14.7 71.83 -11.4 72.16 -8 72.5 C-8 67.22 -8 61.94 -8 56.5 C-10.97 56.005 -10.97 56.005 -14 55.5 C-16.45122505 51.82316242 -16.70497355 48.77282747 -16 44.5 C-14.25 42 -14.25 42 -12 40.5 C-10.68 40.5 -9.36 40.5 -8 40.5 C-8.02094727 39.43040039 -8.04189453 38.36080078 -8.06347656 37.25878906 C-8.13594626 33.28561827 -8.18182463 29.31250575 -8.21972656 25.33886719 C-8.23982628 23.62001721 -8.26711089 21.90123548 -8.30175781 20.18261719 C-8.35035034 17.71011511 -8.37298435 15.2385179 -8.390625 12.765625 C-8.41127014 11.99881409 -8.43191528 11.23200317 -8.45318604 10.44195557 C-8.45468704 6.86267032 -8.30713127 4.90156032 -6.10058594 2.01660156 C-3.82782594 0.37569209 -2.77007014 -0.04328235 0 0 Z M-96 88.5 C-96.061875 91.01625 -96.12375 93.5325 -96.1875 96.125 C-96.21481201 96.90568848 -96.24212402 97.68637695 -96.27026367 98.49072266 C-96.32605543 103.21682416 -95.60250797 106.40404314 -93 110.5 C-90.15916359 111.92041821 -88.14522722 111.81452272 -85 111.5 C-82.15219381 109.26793569 -81.15002334 107.95007001 -80 104.5 C-79.92943302 101.75917841 -79.90663846 99.05153023 -79.9375 96.3125 C-79.9684375 92.4453125 -79.9684375 92.4453125 -80 88.5 C-85.28 88.5 -90.56 88.5 -96 88.5 Z M80 88.5 C79.938125 91.01625 79.87625 93.5325 79.8125 96.125 C79.78518799 96.90568848 79.75787598 97.68637695 79.72973633 98.49072266 C79.67394457 103.21682416 80.39749203 106.40404314 83 110.5 C85.84083641 111.92041821 87.85477278 111.81452272 91 111.5 C93.84780619 109.26793569 94.84997666 107.95007001 96 104.5 C96.07056698 101.75917841 96.09336154 99.05153023 96.0625 96.3125 C96.0315625 92.4453125 96.0315625 92.4453125 96 88.5 C90.72 88.5 85.44 88.5 80 88.5 Z M-104 160.5 C-104 167.76 -104 175.02 -104 182.5 C-97.47241021 182.01647483 -91.03923465 181.38679271 -84.5625 180.4375 C-65.37567381 177.8662705 -48.71369675 180.6355917 -31.45703125 189.2734375 C-19.96899511 194.95964752 -8.02711505 198.8105356 5 197.5 C6.02351563 197.40332031 7.04703125 197.30664062 8.1015625 197.20703125 C17.96371678 195.75285551 26.28878468 191.9165495 35.17236328 187.52416992 C52.26594158 179.1879559 69.30515415 178.29494371 87.875 181 C89.87198027 181.28418565 91.86936613 181.5655388 93.8671875 181.84375 C95.16825439 182.03227539 95.16825439 182.03227539 96.49560547 182.22460938 C99.40842523 182.59108675 99.40842523 182.59108675 104 182.5 C104 175.24 104 167.98 104 160.5 C35.36 160.5 -33.28 160.5 -104 160.5 Z M-197.375 213.9375 C-201.24498643 220.0401709 -200 224.80087412 -200 232.5 C-168.32 232.5 -136.64 232.5 -104 232.5 C-103.47246228 221.98401852 -103.47246228 221.98401852 -107 213.5 C-112.06328657 208.56654129 -116.0775721 208.37644799 -122.95239258 208.33886719 C-123.64398972 208.33390228 -124.33558685 208.32893738 -125.04814148 208.32382202 C-127.33028163 208.30924824 -129.61235226 208.30240624 -131.89453125 208.296875 C-133.4863027 208.29111939 -135.07807414 208.28536171 -136.66984558 208.27960205 C-140.00621869 208.26910552 -143.34256779 208.26325411 -146.67895508 208.25976562 C-150.94258553 208.25428525 -155.20589595 208.23026147 -159.46942616 208.20179367 C-162.75779633 208.18311878 -166.04609018 208.17795911 -169.3345089 208.17642975 C-170.90570512 208.17341338 -172.47690032 208.16541931 -174.0480442 208.15224457 C-176.25208121 208.13508263 -178.4553461 208.13708855 -180.65942383 208.14355469 C-182.53661858 208.13808624 -182.53661858 208.13808624 -184.45173645 208.13250732 C-189.69573063 208.67562635 -193.61671135 210.08030902 -197.375 213.9375 Z M106.625 213.9375 C102.75501357 220.0401709 104 224.80087412 104 232.5 C135.68 232.5 167.36 232.5 200 232.5 C200.52753772 221.98401852 200.52753772 221.98401852 197 213.5 C191.93671343 208.56654129 187.9224279 208.37644799 181.04760742 208.33886719 C180.35601028 208.33390228 179.66441315 208.32893738 178.95185852 208.32382202 C176.66971837 208.30924824 174.38764774 208.30240624 172.10546875 208.296875 C170.5136973 208.29111939 168.92192586 208.28536171 167.33015442 208.27960205 C163.99378131 208.26910552 160.65743221 208.26325411 157.32104492 208.25976562 C153.05741447 208.25428525 148.79410405 208.23026147 144.53057384 208.20179367 C141.24220367 208.18311878 137.95390982 208.17795911 134.6654911 208.17642975 C133.09429488 208.17341338 131.52309968 208.16541931 129.9519558 208.15224457 C127.74791879 208.13508263 125.5446539 208.13708855 123.34057617 208.14355469 C121.46338142 208.13808624 121.46338142 208.13808624 119.54826355 208.13250732 C114.30426937 208.67562635 110.38328865 210.08030902 106.625 213.9375 Z " fill="#5091E8" transform="translate(256,95.5)"/>
<path d="M0 0 C3.77900932 1.40786622 4.20007467 2.2904521 6.0625 5.75 C8.1924352 10.59076181 9.07493451 13.95163636 8.1875 19.1875 C6.19828114 22.1713283 4.80247432 23.79026841 1.25 24.6640625 C-2.67313492 24.94640933 -4.48362371 24.40675086 -7.8125 22.1875 C-9.85958218 19.11687673 -10.53838995 17.15207295 -10.3125 13.453125 C-9.33421702 9.02028023 -7.25878346 4.99035884 -4.8125 1.1875 C-2.8125 0.1875 -2.8125 0.1875 0 0 Z " fill="#5090E8" transform="translate(288.8125,84.8125)"/>
<path d="M0 0 C3.77900932 1.40786622 4.20007467 2.2904521 6.0625 5.75 C8.1924352 10.59076181 9.07493451 13.95163636 8.1875 19.1875 C6.19828114 22.1713283 4.80247432 23.79026841 1.25 24.6640625 C-2.67313492 24.94640933 -4.48362371 24.40675086 -7.8125 22.1875 C-9.85958218 19.11687673 -10.53838995 17.15207295 -10.3125 13.453125 C-9.33421702 9.02028023 -7.25878346 4.99035884 -4.8125 1.1875 C-2.8125 0.1875 -2.8125 0.1875 0 0 Z " fill="#5090E8" transform="translate(224.8125,84.8125)"/>
<path d="M0 0 C3.77900932 1.40786622 4.20007467 2.2904521 6.0625 5.75 C8.1924352 10.59076181 9.07493451 13.95163636 8.1875 19.1875 C6.19828114 22.1713283 4.80247432 23.79026841 1.25 24.6640625 C-2.67313492 24.94640933 -4.48362371 24.40675086 -7.8125 22.1875 C-9.85958218 19.11687673 -10.53838995 17.15207295 -10.3125 13.453125 C-9.33421702 9.02028023 -7.25878346 4.99035884 -4.8125 1.1875 C-2.8125 0.1875 -2.8125 0.1875 0 0 Z " fill="#5090E8" transform="translate(256.8125,68.8125)"/>
</svg>
