<?xml version="1.0" encoding="UTF-8"?>
<svg version="1.1" xmlns="http://www.w3.org/2000/svg" width="512" height="512">
<path d="M0 0 C13.86578314 10.27095048 18.46071232 24.49463007 21 41 C21 53.21 21 65.42 21 78 C122.64 78 224.28 78 329 78 C329 201.96052632 329 201.96052632 302.625 228.37890625 C291.87952282 238.55611301 279.83844129 243.52382172 266 248 C266.4846875 248.32234619 266.969375 248.64469238 267.46875 248.97680664 C274.42351357 253.88442887 281.02594199 259.11527481 282.7578125 267.80029297 C283.6196971 276.84302874 282.81546662 285.98456344 282 295 C274.74 295 267.48 295 260 295 C260.33 292.03 260.66 289.06 261 286 C261.06300257 276.23401361 256.94434252 269.84121849 250.33241993 263.01166308 C249.81727091 262.49436456 249.3021219 261.97706603 248.7713623 261.4440918 C248.24442526 260.9108043 247.71748821 260.37751681 247.17458338 259.82806909 C236.84067699 249.65959997 227.51057958 246.90467168 212.92481995 246.74731445 C210.87639017 246.7745722 208.82872472 246.81682701 206.78063035 246.86260796 C203.10266139 246.91792806 199.42717784 246.8326156 195.7497406 246.76708984 C188.58012887 246.66136926 181.41660426 246.68293656 174.24677169 246.75299323 C168.41133342 246.80760899 162.57758021 246.81437302 156.74195862 246.78842163 C155.90565455 246.78474404 155.06935048 246.78106645 154.20770386 246.77727741 C152.50779275 246.76960258 150.80788211 246.76182143 149.10797197 246.75393522 C133.23531739 246.68579349 117.36601037 246.76370478 101.49390537 246.89314401 C87.92834574 247.00035545 74.36771686 246.98172205 60.80224609 246.87109375 C44.97970394 246.74211571 29.16008181 246.69238217 13.33708715 246.76578808 C11.64407234 246.77343177 9.95105708 246.7809767 8.25804138 246.78842163 C7.00914613 246.79397555 7.00914613 246.79397555 5.73502067 246.79964167 C-0.08113993 246.82020654 -5.89541954 246.7857394 -11.71128845 246.72891235 C-18.81856547 246.66098106 -25.91950319 246.68102313 -33.02607 246.80765021 C-36.64176961 246.86999161 -40.24698845 246.89688937 -43.86256599 246.81607056 C-58.6320587 246.5134791 -69.59734876 247.98619372 -80.53650999 258.2162199 C-81.62228745 259.28461497 -82.70071183 260.36053825 -83.7713623 261.4440918 C-84.28651132 261.96139032 -84.80166034 262.47868884 -85.33241993 263.01166308 C-91.94434252 269.84121849 -96.06300257 276.23401361 -96 286 C-95.67 288.97 -95.34 291.94 -95 295 C-102.26 295 -109.52 295 -117 295 C-119.59093705 266.35575149 -119.59093705 266.35575149 -113.4375 258.37890625 C-109.68746152 254.41864861 -105.5389771 251.01869138 -101 248 C-102.24394531 247.57589844 -103.48789063 247.15179688 -104.76953125 246.71484375 C-119.08204736 241.72093416 -130.08090314 235.70604131 -141 225 C-141.76183594 224.27425781 -142.52367187 223.54851562 -143.30859375 222.80078125 C-158.16064835 207.63984509 -164.19750997 187.02752246 -164.11352539 166.20922852 C-164.11367142 165.25235641 -164.11381744 164.29548431 -164.1139679 163.30961609 C-164.11327462 160.16602259 -164.10550971 157.02248932 -164.09765625 153.87890625 C-164.09578999 151.69172701 -164.09436707 149.50454736 -164.09336853 147.31736755 C-164.08955973 141.57499019 -164.07974346 135.83263832 -164.06866455 130.090271 C-164.05661154 123.19272641 -164.05204039 116.29517327 -164.04621124 109.39762115 C-164.0365308 98.93172973 -164.01736277 88.4658942 -164 78 C-139.25 78 -114.5 78 -89 78 C-89.11817663 64.34393188 -89.11817663 64.34393188 -89.27026367 50.68823242 C-89.40673323 32.51225823 -89.40673323 32.51225823 -86 24 C-85.37931641 22.3603125 -85.37931641 22.3603125 -84.74609375 20.6875 C-77.57661784 5.96332262 -66.45311316 -3.44111032 -51.2890625 -9.2734375 C-33.55942222 -14.90093424 -14.71194078 -10.75103364 0 0 Z M-62 24 C-66.98558578 31.72479269 -68.15785707 38.48222635 -68.09765625 47.58203125 C-68.09664917 48.30434937 -68.09564209 49.02666748 -68.09460449 49.77087402 C-68.08939952 52.45143232 -68.07543837 55.13196787 -68.0625 57.8125 C-68.041875 63.814375 -68.02125 69.81625 -68 76 C-46.55 76 -25.1 76 -3 76 C-2.9175 69.77125 -2.835 63.5425 -2.75 57.125 C-2.71358398 55.17996582 -2.67716797 53.23493164 -2.63964844 51.23095703 C-2.50407149 38.94971844 -3.49990086 29.91386998 -12.2890625 20.6796875 C-18.77230627 14.31485914 -25.75365723 10.83395792 -34.9375 10.5 C-46.27871199 10.97920614 -54.59067083 15.42920842 -62 24 Z M-142 100 C-142 107.26 -142 114.52 -142 122 C-20.56 122 100.88 122 226 122 C226 129.26 226 136.52 226 144 C104.56 144 -16.88 144 -142 144 C-142.33947176 179.2367537 -142.33947176 179.2367537 -125.66796875 208.62890625 C-112.37555873 221.68217246 -97.12013678 226.31246035 -78.83808899 226.26742554 C-77.39676701 226.27116563 -75.95544706 226.27576858 -74.51413029 226.28115618 C-70.56672881 226.2933574 -66.61941226 226.29312912 -62.67199624 226.29076743 C-58.40939481 226.29035853 -54.14682036 226.30140543 -49.88423157 226.31088257 C-41.53762224 226.32747807 -33.19104116 226.33299147 -24.84441672 226.33410732 C-18.05743388 226.33505855 -11.27046035 226.33917256 -4.48348045 226.34550858 C14.7715404 226.36311753 34.02653899 226.37234806 53.28156795 226.37084763 C54.31907777 226.37076772 55.3565876 226.3706878 56.42553711 226.37060547 C57.98370879 226.37048283 57.98370879 226.37048283 59.57335869 226.37035771 C76.40294112 226.36954505 93.23243399 226.38867853 110.06199052 226.4168822 C127.35489271 226.44563296 144.64775125 226.45942127 161.94067794 226.45769465 C171.64430989 226.45703148 181.34784798 226.46249188 191.05145836 226.48405075 C199.31435209 226.50229146 207.57710941 226.50658623 215.8400146 226.4930319 C220.05230548 226.48651664 224.26433488 226.48633259 228.47660065 226.5037384 C232.34018736 226.51953856 236.20330679 226.51653547 240.06688259 226.49917014 C242.11081904 226.49467923 244.1547704 226.50970289 246.19864959 226.52564943 C262.61044035 226.40393 276.79257285 220.7128232 288.71484375 209.4140625 C316.06449382 180.52161165 306 135.4941307 306 100 C158.16 100 10.32 100 -142 100 Z " fill="#3E7EED" transform="translate(174,172)"/>
<path d="M0 0 C9.57506653 8.90897494 16.92812401 20.30303451 17.58203125 33.7265625 C17.87762475 50.23107403 14.3849113 63.91753119 2.984375 76.4375 C-7.78906216 86.6783178 -21.53898587 91.54613929 -36.27734375 91.36328125 C-50.64070122 90.23357898 -64.03111805 85.06005257 -73.9453125 74.30078125 C-84.23780048 61.71860372 -88.17916716 48.31318401 -86.75390625 32.08984375 C-84.89624948 19.40864959 -78.9786439 7.74777083 -68.8359375 -0.1953125 C-47.7957274 -15.66864679 -20.64309711 -17.73654903 0 0 Z M-57.0625 19.92578125 C-62.34668909 26.68661441 -64.42623802 34.65466824 -63.53515625 43.18359375 C-61.74865072 51.84127441 -57.10491051 59.19413444 -49.75390625 64.08984375 C-42.77963972 68.47952915 -35.86014635 69.075466 -27.75390625 68.08984375 C-19.77102665 65.94338972 -13.47690942 60.9886561 -8.94140625 54.15234375 C-4.34488853 46.15379812 -3.36025957 37.5049047 -5.69140625 28.58984375 C-8.32771682 21.55551744 -14.1501417 15.35215804 -20.56640625 11.52734375 C-34.11471037 5.41732425 -47.25119508 9.34146443 -57.0625 19.92578125 Z " fill="#3E7EED" transform="translate(173.75390625,58.91015625)"/>
<path d="M0 0 C3.30118794 0.5805321 4.91134076 1.54868099 7.234375 3.94140625 C7.80800781 4.52470703 8.38164062 5.10800781 8.97265625 5.70898438 C9.55917969 6.32064453 10.14570313 6.93230469 10.75 7.5625 C11.35199219 8.17802734 11.95398438 8.79355469 12.57421875 9.42773438 C14.05634381 10.94514813 15.5290967 12.47170596 17 14 C15.55658351 17.04331041 14.23540261 18.85356448 11.6875 21.0625 C5.35179176 27.31868052 2.72402286 34.27144351 2.4375 43.125 C2.8980066 53.48078266 7.25535443 59.49412535 13.2746582 67.61694336 C22.26009813 79.98509777 24.21308125 93.05264511 23 108 C20.27564837 122.22881477 13.05622553 131.94377447 3 142 C-0.31363072 141.67057226 -1.96030412 140.40088675 -4.234375 138.05859375 C-4.80800781 137.47529297 -5.38164062 136.89199219 -5.97265625 136.29101562 C-6.55917969 135.67935547 -7.14570313 135.06769531 -7.75 134.4375 C-8.35199219 133.82197266 -8.95398438 133.20644531 -9.57421875 132.57226562 C-11.05634381 131.05485187 -12.5290967 129.52829404 -14 128 C-12.55599669 124.95896572 -11.21565975 123.10605894 -8.6875 120.875 C-2.51993349 114.82331679 0.80513462 107.57369534 1.18359375 98.91796875 C0.55228546 88.88419652 -3.21699015 82.20601774 -9.74609375 74.81640625 C-18.6830993 63.64902149 -21.01791251 49.91147091 -20 36 C-17.85795399 20.64567023 -10.52340451 10.72937862 0 0 Z " fill="#3E7EED" transform="translate(265,64)"/>
<path d="M0 0 C2.35213503 0.90741981 3.5380215 1.93081742 5.28857422 3.73388672 C5.86220703 4.3171875 6.43583984 4.90048828 7.02685547 5.50146484 C7.61337891 6.113125 8.19990234 6.72478516 8.80419922 7.35498047 C9.40619141 7.97050781 10.00818359 8.58603516 10.62841797 9.22021484 C12.11054303 10.73762859 13.58329592 12.26418643 15.05419922 13.79248047 C13.50149441 17.09315318 11.89890982 19.03224093 9.17919922 21.47998047 C3.23498301 27.25158785 0.37109807 34.19744706 -0.19580078 42.41748047 C-0.02641061 51.53067178 3.46304058 57.88814413 9.05419922 64.79248047 C18.57270972 77.90687271 23.07698702 91.72337493 20.55419922 108.02294922 C17.96015043 120.5952425 12.53070159 129.2524469 4.05419922 138.79248047 C3.55146484 139.41251953 3.04873047 140.03255859 2.53076172 140.67138672 C1.05419922 141.79248047 1.05419922 141.79248047 -0.8359375 141.54638672 C-3.25793828 140.68094603 -4.39641438 139.68834846 -6.18017578 137.85107422 C-6.75380859 137.26777344 -7.32744141 136.68447266 -7.91845703 136.08349609 C-8.50498047 135.47183594 -9.09150391 134.86017578 -9.69580078 134.22998047 C-10.29779297 133.61445313 -10.89978516 132.99892578 -11.52001953 132.36474609 C-13.00214459 130.84733234 -14.47489748 129.3207745 -15.94580078 127.79248047 C-14.37965398 124.48348895 -12.6370241 122.29180696 -10.07080078 119.66748047 C-3.3321332 112.14467703 -1.17922568 104.95708151 -1.57861328 94.87841797 C-2.57283882 86.52269273 -7.33196288 80.76588973 -12.22045898 74.17797852 C-21.58693954 61.29579795 -23.0678937 48.26024093 -21.94580078 32.79248047 C-20.45306098 24.37342801 -11.2009592 -1.1945816 0 0 Z " fill="#3E7DED" transform="translate(419.94580078125,64.20751953125)"/>
<path d="M0 0 C2.35353415 0.90544213 3.53764336 1.92823066 5.28857422 3.73168945 C5.86220703 4.31499023 6.43583984 4.89829102 7.02685547 5.49926758 C7.61337891 6.11092773 8.19990234 6.72258789 8.80419922 7.3527832 C9.40619141 7.96831055 10.00818359 8.58383789 10.62841797 9.21801758 C12.11054303 10.73543133 13.58329592 12.26198917 15.05419922 13.7902832 C13.6101959 16.83131749 12.26985897 18.68422427 9.74169922 20.9152832 C3.45698693 27.08191113 0.33373832 34.27595716 -0.07470703 43.0637207 C0.38289358 52.74266703 5.14859912 59.67580688 10.85888672 67.15356445 C20.13214919 79.63067942 22.65354103 93.93075703 20.59326172 109.20825195 C18.51016157 119.46445682 13.90955998 130.76301864 5.17919922 137.1652832 C0.96528721 138.40466909 -2.63430549 138.32680401 -6.69580078 136.6652832 C-9.59026855 134.25322673 -10.71228918 132.35376117 -11.94580078 128.7902832 C-12.18565645 122.55403585 -9.18583366 118.99893186 -5.66845703 114.1887207 C-0.74124387 107.32860986 -0.04838254 101.01485745 -0.94580078 92.7902832 C-2.48390582 85.60155113 -6.48204709 80.72460772 -11.22265625 75.328125 C-15.34252962 70.55173778 -17.87437064 65.71511615 -19.94580078 59.7902832 C-20.18943359 59.10063477 -20.43306641 58.41098633 -20.68408203 57.70043945 C-24.76811857 43.22572492 -21.80924389 28.28243327 -15.32080078 15.1027832 C-12.60877382 10.40516508 -6.11209849 -0.65875691 0 0 Z " fill="#3E7EED" transform="translate(342.94580078125,64.209716796875)"/>
</svg>
