<?xml version="1.0" encoding="UTF-8"?>
<svg version="1.1" xmlns="http://www.w3.org/2000/svg" width="512" height="512">
<path d="M0 0 C76.56 0 153.12 0 232 0 C232 5.28 232 10.56 232 16 C226.72 16 221.44 16 216 16 C216 21.28 216 26.56 216 32 C219.75890625 31.93039063 219.75890625 31.93039063 223.59375 31.859375 C226.04294819 31.82810665 228.49212344 31.80386052 230.94140625 31.78027344 C232.63291511 31.7602594 234.32435567 31.73303927 236.015625 31.69824219 C238.45850554 31.64926935 240.90046511 31.62692967 243.34375 31.609375 C244.08991577 31.58872986 244.83608154 31.56808472 245.6048584 31.54681396 C251.83637421 31.54419964 256.84680947 33.34740681 261.64660645 37.38519287 C269.44959582 45.562476 272.2955392 58.36349446 275.94921875 68.78515625 C276.41100748 70.09350378 276.87315944 71.40172315 277.33564758 72.70982361 C278.54619207 76.13590013 279.7530967 79.56324544 280.95880127 82.99102783 C283.09716225 89.06974743 285.2400312 95.1468724 287.38671875 101.22265625 C287.61893002 101.88022541 287.85114128 102.53779457 288.09038925 103.21529007 C292.91446863 116.8647385 297.92248406 130.44278589 303 144 C304.43913757 144.23430473 304.43913757 144.23430473 305.90734863 144.4733429 C314.97142183 145.95016062 324.034037 147.43565097 333.09531403 148.92953205 C337.75327665 149.69718046 342.41169096 150.4618192 347.07128906 151.21948242 C351.57232244 151.95147805 356.07196918 152.69150635 360.57078552 153.43700218 C362.28300999 153.7193056 363.99570595 153.99876533 365.70887756 154.27526283 C368.11779445 154.66456071 370.52480013 155.06415559 372.93164062 155.46606445 C373.63223602 155.57683823 374.33283142 155.687612 375.05465698 155.80174255 C381.28569764 156.86164294 387.87077695 158.47252761 392.75 162.6875 C393.28109375 163.12449219 393.8121875 163.56148437 394.359375 164.01171875 C399.78662638 170.58903054 400.58400575 176.82469419 400.51757812 185.15429688 C400.52809204 186.79000389 400.52809204 186.79000389 400.53881836 188.45875549 C400.55635256 192.04568314 400.54479109 195.63181501 400.53125 199.21875 C400.53394621 201.72164053 400.5378297 204.22453004 400.54284668 206.72741699 C400.54873555 211.96598353 400.54058266 217.20434505 400.52148438 222.44287109 C400.49971872 228.48243515 400.50677139 234.52145891 400.52879 240.56100988 C400.54919247 246.39271007 400.5469526 252.22420641 400.53526306 258.05592346 C400.53260027 260.5277972 400.53584973 262.9996848 400.54518127 265.47154236 C400.5553729 268.92996414 400.53980751 272.38735765 400.51757812 275.84570312 C400.52567505 276.86100601 400.53377197 277.8763089 400.54211426 278.92237854 C400.45486521 286.27276055 398.92753179 291.65923808 394.03515625 297.2421875 C393.38417969 297.78101563 392.73320312 298.31984375 392.0625 298.875 C391.41410156 299.42929687 390.76570313 299.98359375 390.09765625 300.5546875 C384.82931994 304.18463989 380.16814921 304.27252151 373.98046875 304.1953125 C373.12189774 304.1924826 372.26332672 304.18965271 371.3787384 304.18673706 C368.64818125 304.1755807 365.9179573 304.15048459 363.1875 304.125 C361.33138496 304.11496432 359.47526476 304.1058395 357.61914062 304.09765625 C353.07929954 304.07565626 348.53970619 304.04115781 344 304 C343.9081694 304.91328316 343.9081694 304.91328316 343.81448364 305.84501648 C343.73020111 306.64857071 343.64591858 307.45212494 343.55908203 308.2800293 C343.43631393 309.47174995 343.43631393 309.47174995 343.31106567 310.68754578 C341.06637043 327.37455254 330.13564808 342.52205137 317.4921875 353.09765625 C315.05812377 354.87820126 312.59674348 356.46717267 310 358 C309.09894531 358.53238281 308.19789063 359.06476563 307.26953125 359.61328125 C290.29715578 368.84387142 270.31733334 370.97746496 251.66723633 365.9050293 C231.78967056 359.85511571 216.5099381 346.75101177 206.76171875 328.5625 C202.6621454 320.27245368 201.0283349 313.25501407 200 304 C178.88 304 157.76 304 136 304 C135.67 306.97 135.34 309.94 135 313 C129.95104231 331.79797884 118.87086564 348.04132514 102 358 C101.09894531 358.53238281 100.19789063 359.06476563 99.26953125 359.61328125 C82.29715578 368.84387142 62.31733334 370.97746496 43.66723633 365.9050293 C23.78967056 359.85511571 8.5099381 346.75101177 -1.23828125 328.5625 C-5.22980926 320.49094003 -7.17553084 312.90205528 -8 304 C-8.65484375 304.02094727 -9.3096875 304.04189453 -9.984375 304.06347656 C-12.98942328 304.14730383 -15.99422464 304.19886895 -19 304.25 C-20.02996094 304.28351563 -21.05992188 304.31703125 -22.12109375 304.3515625 C-29.96137252 304.45143866 -35.29192727 303.24940868 -41.2421875 298.03515625 C-41.78101563 297.38417969 -42.31984375 296.73320312 -42.875 296.0625 C-43.42929687 295.41410156 -43.98359375 294.76570313 -44.5546875 294.09765625 C-47.75667661 289.45044504 -48.24691422 285.50635286 -48.22705078 279.91479492 C-48.22734283 279.22156128 -48.22763489 278.52832764 -48.22793579 277.81408691 C-48.22654897 275.53608426 -48.21101867 273.25841385 -48.1953125 270.98046875 C-48.19158006 269.3957792 -48.18873418 267.81108734 -48.18673706 266.22639465 C-48.17911877 262.06545587 -48.15948588 257.90465779 -48.1373291 253.74377441 C-48.11683172 249.49391584 -48.10772703 245.24403443 -48.09765625 240.99414062 C-48.0762382 232.66269601 -48.04212416 224.33136553 -48 216 C-49.03060547 216.01740234 -50.06121094 216.03480469 -51.12304688 216.05273438 C-52.48827716 216.06680891 -53.85351187 216.08045839 -55.21875 216.09375 C-55.89647461 216.10631836 -56.57419922 216.11888672 -57.27246094 216.13183594 C-64.11349144 216.18177047 -68.0686964 214.79700085 -72.9609375 210.12890625 C-78.96503713 203.6469293 -80.29977667 198.58840364 -80.29052734 189.93041992 C-80.29724457 189.0257045 -80.30396179 188.12098907 -80.31088257 187.18885803 C-80.32985553 184.20267215 -80.33378652 181.21671114 -80.3359375 178.23046875 C-80.34236627 176.1492758 -80.34909469 174.06808376 -80.35610962 171.9868927 C-80.36808089 167.62494818 -80.37179063 163.26308284 -80.37060547 158.90112305 C-80.37040237 153.32261328 -80.39769572 147.74461348 -80.43214989 142.16622448 C-80.45443179 137.86727078 -80.4584426 133.56843951 -80.45738602 129.26943398 C-80.45974036 127.21341508 -80.46855446 125.15739273 -80.48405075 123.10143089 C-80.50373507 120.21984959 -80.49786279 117.33936414 -80.48583984 114.45776367 C-80.49707886 113.61541168 -80.50831787 112.77305969 -80.51989746 111.90518188 C-80.44810555 105.10421296 -78.54097815 99.89964505 -74.03515625 94.7578125 C-73.38417969 94.21898437 -72.73320313 93.68015625 -72.0625 93.125 C-71.41410156 92.57070312 -70.76570313 92.01640625 -70.09765625 91.4453125 C-65.27257712 88.12077008 -60.92872489 87.73215613 -55.1875 87.875 C-54.49462891 87.88402344 -53.80175781 87.89304687 -53.08789062 87.90234375 C-51.39177605 87.92573843 -49.69584129 87.96160359 -48 88 C-48.02094727 86.86046875 -48.04189453 85.7209375 -48.06347656 84.546875 C-48.13626614 80.29033131 -48.18194042 76.03384186 -48.21972656 71.77685547 C-48.23975373 69.93984707 -48.26698382 68.10290171 -48.30175781 66.26611328 C-48.35067065 63.61474998 -48.37305763 60.96423459 -48.390625 58.3125 C-48.41127014 57.50071289 -48.43191528 56.68892578 -48.45318604 55.85253906 C-48.45581746 49.05715206 -46.53260994 43.89009564 -42.03515625 38.7578125 C-41.38417969 38.21898437 -40.73320313 37.68015625 -40.0625 37.125 C-39.08990234 36.29355469 -39.08990234 36.29355469 -38.09765625 35.4453125 C-34.2457905 32.79132679 -30.77465217 31.74784554 -26.11791992 31.77294922 C-24.70702339 31.77317581 -24.70702339 31.77317581 -23.2676239 31.77340698 C-22.2653627 31.78372955 -21.2631015 31.79405212 -20.23046875 31.8046875 C-19.19432938 31.8075174 -18.15819 31.81034729 -17.09065247 31.81326294 C-13.78948293 31.82443546 -10.48858719 31.84953495 -7.1875 31.875 C-4.94596747 31.88503357 -2.70443067 31.89415876 -0.46289062 31.90234375 C5.02484467 31.92436526 10.51237595 31.95887524 16 32 C16 26.72 16 21.44 16 16 C10.72 16 5.44 16 0 16 C0 10.72 0 5.44 0 0 Z M32 16 C32 21.28 32 26.56 32 32 C87.44 32 142.88 32 200 32 C200 26.72 200 21.44 200 16 C144.56 16 89.12 16 32 16 Z M-30 51 C-32.14117589 54.63417321 -32.24776316 57.90782807 -32.24050903 62.06806946 C-32.24325836 63.28658096 -32.24600769 64.50509247 -32.24884033 65.76052856 C-32.24176306 67.10247902 -32.23449346 68.44442847 -32.22705078 69.78637695 C-32.22648636 71.20581555 -32.22680383 72.62525473 -32.22793579 74.04469299 C-32.22850911 77.89143299 -32.21675816 81.73804801 -32.20278788 85.584759 C-32.19027708 89.60729605 -32.18910974 93.62983602 -32.18673706 97.65238953 C-32.18052332 105.26668358 -32.16411393 112.88092014 -32.14403808 120.49518889 C-32.12167579 129.16502297 -32.11068482 137.83485981 -32.10064721 146.50471556 C-32.07974761 164.33651053 -32.04417035 182.16824853 -32 200 C-24.08 200 -16.16 200 -8 200 C-8 205.28 -8 210.56 -8 216 C-15.92 216 -23.84 216 -32 216 C-32 221.28 -32 226.56 -32 232 C-24.08 232 -16.16 232 -8 232 C-8 237.28 -8 242.56 -8 248 C-15.92 248 -23.84 248 -32 248 C-32.06910041 252.44801928 -32.12876017 256.89415558 -32.16479492 261.34228516 C-32.17982543 262.85341727 -32.20025564 264.36450618 -32.22631836 265.87548828 C-32.26295689 268.05512187 -32.27978338 270.23417575 -32.29296875 272.4140625 C-32.3086792 273.7232666 -32.32438965 275.0324707 -32.34057617 276.38134766 C-31.97282792 280.28870583 -31.05606502 282.68000128 -29 286 C-24.88491875 288.59509629 -20.40273493 288.23455863 -15.6875 288.125 C-14.94693359 288.11597656 -14.20636719 288.10695313 -13.44335938 288.09765625 C-11.62876533 288.07424213 -9.81433929 288.03837615 -8 288 C-7.8040625 287.030625 -7.608125 286.06125 -7.40625 285.0625 C-3.06255438 265.05227343 6.58973204 247.96675594 23.7109375 236.125 C40.53574801 225.6602385 60.9437183 221.9773706 80.40600586 226.07617188 C98.90201338 230.6445596 115.06181989 241.40494502 125.09863281 257.79394531 C130.70034708 267.50591118 133.65706457 277.06630135 136 288 C146.56 288 157.12 288 168 288 C168 245.76 168 203.52 168 160 C155.61855469 159.96261719 143.23710937 159.92523438 130.48046875 159.88671875 C122.65558758 159.85645741 114.83072147 159.82544455 107.00585938 159.79101562 C94.57480202 159.73646052 82.14378653 159.685051 69.71264648 159.65356445 C60.66034367 159.63062198 51.60815005 159.59726619 42.55593377 159.55129844 C37.76090221 159.52731547 32.96597913 159.50862002 28.1708889 159.50238609 C23.66058958 159.4963581 19.15056802 159.47644163 14.64037132 159.44572449 C12.98232956 159.43690744 11.32425155 159.43322922 9.66618729 159.43499184 C7.40731672 159.43663543 5.14930221 159.42002521 2.89054871 159.39872742 C1.62492694 159.39411845 0.35930517 159.38950949 -0.94466877 159.38476086 C-4 159 -4 159 -5.907691 157.70516682 C-7.85230048 154.6695024 -7.39629375 151.12028269 -7.35644531 147.62890625 C-7.35951187 146.34800613 -7.35951187 146.34800613 -7.36264038 145.04122925 C-7.36565174 142.21476929 -7.34716025 139.38889076 -7.328125 136.5625 C-7.3250678 134.60099431 -7.32319138 132.63948645 -7.32244873 130.67797852 C-7.31784338 126.56550804 -7.30340879 122.45323313 -7.28125 118.34082031 C-7.25296753 113.06461281 -7.24203867 107.78855943 -7.2375679 102.51228333 C-7.23341422 98.46145073 -7.22359716 94.41064941 -7.21169281 90.35983276 C-7.20598834 88.41413626 -7.20123022 86.46843674 -7.19742584 84.5227356 C-7.19056361 81.80546775 -7.17693121 79.08832249 -7.16113281 76.37109375 C-7.16001495 75.56372772 -7.15889709 74.75636169 -7.15774536 73.92453003 C-7.13280732 70.69168853 -7.02963143 68.08889429 -6 65 C24.77829098 64.93160475 55.55656463 64.87849298 86.33491342 64.84680401 C89.96619566 64.84305176 93.59747775 64.83916881 97.22875977 64.83520508 C98.31317253 64.83402468 98.31317253 64.83402468 99.41949262 64.83282044 C111.13483526 64.81975623 122.85013386 64.79609683 134.56545035 64.76854161 C146.58088394 64.74051559 158.59629443 64.72382969 170.61175936 64.71773452 C177.36301339 64.71398271 184.11417548 64.70493739 190.8653965 64.68280983 C197.21414428 64.66251434 203.56275049 64.65615213 209.91152763 64.66067696 C212.24687086 64.65984864 214.58221861 64.65384194 216.91753387 64.64238358 C220.09585923 64.62754815 223.27364379 64.63101371 226.45198059 64.63923645 C227.38485155 64.63049793 228.31772252 64.6217594 229.2788623 64.61275607 C230.55229461 64.62171579 230.55229461 64.62171579 231.85145283 64.63085651 C232.95245192 64.62914777 232.95245192 64.62914777 234.07569343 64.62740451 C236.59107293 65.114447 237.42179692 66.01317285 239 68 C240.18200771 70.50867139 241.25440856 72.98539075 242.27807617 75.55737305 C242.59062851 76.32524643 242.90318085 77.09311981 243.22520447 77.88426208 C244.25596785 80.42352765 245.2750409 82.967283 246.29296875 85.51171875 C247.00584955 87.28199832 247.71901383 89.05216376 248.43244934 90.82221985 C249.92647161 94.53484039 251.4142302 98.24990077 252.89819336 101.96655273 C254.79683522 106.71919625 256.71502413 111.46367086 258.63859081 116.20627117 C260.11769965 119.86142095 261.5840989 123.52157068 263.04699135 127.18323708 C263.74868259 128.93401014 264.45478169 130.68302346 265.16542625 132.4301815 C266.16026354 134.88026709 267.13719693 137.33679428 268.11010742 139.7956543 C268.55187317 140.86752991 268.55187317 140.86752991 269.00256348 141.96105957 C270.90425223 146.84090764 271.5253935 150.75527708 271 156 C270.0032196 157.97297668 270.0032196 157.97297668 268 159 C265.2430333 159.30967953 262.70794706 159.43744281 259.94848633 159.43237305 C259.11550113 159.44264684 258.28251593 159.45292063 257.42428875 159.46350574 C254.72679588 159.4934055 252.02966697 159.50293729 249.33203125 159.51171875 C247.66710125 159.52718124 246.00218308 159.54397745 244.33728027 159.56213379 C238.16248418 159.62009912 231.98746741 159.65222621 225.8125 159.6875 C212.014375 159.790625 198.21625 159.89375 184 160 C184 202.24 184 244.48 184 288 C189.28 288 194.56 288 200 288 C200.7425 284.535 200.7425 284.535 201.5 281 C206.1533283 261.46006751 217.47878314 244.97717108 234.625 234.3125 C252.02010975 224.56677826 273.03764291 221.83472027 292.33032227 227.09570312 C310.90775683 232.73566041 325.96910187 244.58056252 335.26879883 261.66772461 C339.66566569 270.17656193 342.02706058 278.65207568 344 288 C348.44739413 288.07449251 352.8944519 288.12876257 357.34228516 288.16479492 C358.85341727 288.17982543 360.36450618 288.20025564 361.87548828 288.22631836 C364.05512187 288.26295689 366.23417575 288.27978338 368.4140625 288.29296875 C369.7232666 288.3086792 371.0324707 288.32438965 372.38134766 288.34057617 C376.35653789 287.96644378 378.69764005 287.23513016 382 285 C384.07915475 281.44696218 384.23875914 278.32397997 384.1953125 274.26171875 C384.18781982 272.81865356 384.18781982 272.81865356 384.18017578 271.34643555 C384.16196777 270.13898682 384.14375977 268.93153809 384.125 267.6875 C384.063125 261.9021875 384.063125 261.9021875 384 256 C376.08 256 368.16 256 360 256 C360 250.72 360 245.44 360 240 C367.92 240 375.84 240 384 240 C384 234.72 384 229.44 384 224 C381.855 223.97421875 379.71 223.9484375 377.5 223.921875 C375.3981473 223.88334531 373.29653095 223.838221 371.19482422 223.79248047 C369.74604784 223.76443964 368.29712328 223.74314189 366.84814453 223.72900391 C357.70643884 223.63449971 350.25897534 223.53815053 342.9765625 217.25390625 C342.53054688 216.69574219 342.08453125 216.13757813 341.625 215.5625 C341.16351563 215.00691406 340.70203125 214.45132813 340.2265625 213.87890625 C335.99553894 207.39762494 336.32967352 200.49238331 337 193 C338.63211433 186.79405629 342.69395906 182.46381883 348 179 C351.88815643 177.15779114 355.10831562 176.70782041 359.39453125 176.5859375 C361.19760742 176.52792969 361.19760742 176.52792969 363.03710938 176.46875 C364.90592773 176.42234375 364.90592773 176.42234375 366.8125 176.375 C368.07771484 176.33632812 369.34292969 176.29765625 370.64648438 176.2578125 C373.76417851 176.16369343 376.88186914 176.07805639 380 176 C377.17493028 173.17493028 374.03783634 173.12231746 370.2331543 172.51953125 C369.43134735 172.38590179 368.62954041 172.25227234 367.80343628 172.11459351 C366.05958889 171.82508855 364.31511153 171.53935915 362.5701046 171.25692749 C359.80752056 170.80979736 357.04667891 170.35305729 354.28608704 169.89379883 C349.41797212 169.0855945 344.54847222 168.28610512 339.6784668 167.48937988 C331.8934301 166.21559766 324.10964964 164.93442671 316.32761574 163.64242554 C313.60914479 163.1932706 310.88956831 162.75131694 308.16984558 162.30981445 C306.49819004 162.03366907 304.82658203 161.75723578 303.1550293 161.48046875 C302.40003647 161.35989105 301.64504364 161.23931335 300.86717224 161.11508179 C297.03496264 160.47311992 293.4599319 159.81137641 290 158 C288.69624109 155.582585 287.79053903 153.46178207 286.90234375 150.890625 C286.6172142 150.11358215 286.33208466 149.33653931 286.03831482 148.53594971 C285.00487158 145.69768788 284.00278712 142.84923396 283 140 C282.13902097 137.59410121 281.27714725 135.18852248 280.41455078 132.78320312 C277.69140466 125.16962765 275.00536019 117.54313326 272.32373047 109.91485596 C271.06298719 106.32944035 269.80015806 102.74476025 268.53710938 99.16015625 C268.16620965 98.10734844 268.16620965 98.10734844 267.787817 97.03327179 C265.86172703 91.56783629 263.92895206 86.10478233 261.99305153 80.64281464 C260.52545742 76.49822765 259.07728249 72.34723731 257.63623047 68.19335938 C256.93370507 66.19646085 256.23077398 64.19970497 255.52734375 62.203125 C255.22373428 61.31316833 254.92012482 60.42321167 254.60731506 59.50628662 C253.06195939 55.16227765 251.80065806 51.87372582 248 49 C245.15220648 48.05073549 243.39846507 47.87309944 240.44654369 47.86857224 C239.50723733 47.86473109 238.56793097 47.86088995 237.60016078 47.8569324 C236.56632693 47.85779888 235.53249308 47.85866537 234.46733093 47.85955811 C233.37052547 47.85658698 232.27372 47.85361586 231.14367801 47.8505547 C227.44953748 47.84184743 223.75542929 47.84035775 220.0612793 47.83886719 C217.42035773 47.83424047 214.77943913 47.82923678 212.13851929 47.82382202 C204.95050848 47.81023597 197.76250324 47.80421359 190.57448173 47.79981136 C186.0869998 47.79704946 181.59952003 47.79281221 177.11203957 47.78830719 C164.68960931 47.77611428 152.26718079 47.76581494 139.84474468 47.7624321 C138.65198565 47.76210275 138.65198565 47.76210275 137.43513047 47.76176675 C136.23950454 47.76143933 136.23950454 47.76143933 135.01972455 47.7611053 C133.40450712 47.76066183 131.78928969 47.76021527 130.17407227 47.75976562 C129.37286726 47.7595442 128.57166225 47.75932277 127.74617831 47.75909463 C114.76237811 47.7551462 101.77863402 47.73769094 88.7948555 47.7144061 C75.46736306 47.6906976 62.13989878 47.67823048 48.8123849 47.67706418 C41.32835479 47.67614715 33.84439779 47.67038777 26.3603878 47.65224457 C19.98782993 47.63685035 13.61536776 47.63171908 7.24279483 47.63998267 C3.99139492 47.64389161 0.74022826 47.64131848 -2.51115608 47.62892532 C-6.0363978 47.6162746 -9.56114219 47.6220456 -13.08638 47.63250732 C-14.62709253 47.62042272 -14.62709253 47.62042272 -16.19893056 47.60809398 C-21.46978598 47.64476701 -25.58831207 47.76824288 -30 51 Z M32 251 C32.515625 251.5775 33.03125 252.155 33.5625 252.75 C35 255 35 255 34.828125 256.87109375 C33.75790762 259.62236013 32.25535926 261.21394895 30.1875 263.3125 C29.50042969 264.03050781 28.81335938 264.74851562 28.10546875 265.48828125 C26 267 26 267 23.92578125 266.85546875 C22 266 22 266 19 264 C13.85509514 270.02688855 9 279.86829365 9 288 C11.31 288 13.62 288 16 288 C16 293.28 16 298.56 16 304 C13.69 304 11.38 304 9 304 C11.61746537 317.66581744 11.61746537 317.66581744 20 328 C20.4125 327.484375 20.825 326.96875 21.25 326.4375 C23 325 23 325 24.83984375 325.171875 C27.61519522 326.23584338 29.19965555 327.73055638 31.3125 329.8125 C32.03050781 330.49957031 32.74851562 331.18664062 33.48828125 331.89453125 C35 334 35 334 34.85546875 336.07421875 C34 338 34 338 32 341 C38.02688855 346.14490486 47.86829365 351 56 351 C56 348.69 56 346.38 56 344 C61.28 344 66.56 344 72 344 C72 346.31 72 348.62 72 351 C85.66581744 348.38253463 85.66581744 348.38253463 96 340 C95.484375 339.5875 94.96875 339.175 94.4375 338.75 C93 337 93 337 93.171875 335.16015625 C94.23584338 332.38480478 95.73055638 330.80034445 97.8125 328.6875 C98.49957031 327.96949219 99.18664062 327.25148438 99.89453125 326.51171875 C102 325 102 325 104.07421875 325.14453125 C106 326 106 326 109 328 C114.14490486 321.97311145 119 312.13170635 119 304 C116.69 304 114.38 304 112 304 C112 298.72 112 293.44 112 288 C114.31 288 116.62 288 119 288 C116.38253463 274.33418256 116.38253463 274.33418256 108 264 C107.5875 264.515625 107.175 265.03125 106.75 265.5625 C105 267 105 267 103.16015625 266.828125 C100.38480478 265.76415662 98.80034445 264.26944362 96.6875 262.1875 C95.96949219 261.50042969 95.25148438 260.81335938 94.51171875 260.10546875 C93 258 93 258 93.14453125 255.92578125 C94 254 94 254 96 251 C89.97311145 245.85509514 80.13170635 241 72 241 C72 243.31 72 245.62 72 248 C66.72 248 61.44 248 56 248 C56 245.69 56 243.38 56 241 C47.86829365 241 38.02688855 245.85509514 32 251 Z M240 251 C240.515625 251.5775 241.03125 252.155 241.5625 252.75 C243 255 243 255 242.828125 256.87109375 C241.75790762 259.62236013 240.25535926 261.21394895 238.1875 263.3125 C237.50042969 264.03050781 236.81335938 264.74851562 236.10546875 265.48828125 C234 267 234 267 231.92578125 266.85546875 C230 266 230 266 227 264 C221.85509514 270.02688855 217 279.86829365 217 288 C219.31 288 221.62 288 224 288 C224 293.28 224 298.56 224 304 C221.69 304 219.38 304 217 304 C219.61746537 317.66581744 219.61746537 317.66581744 228 328 C228.4125 327.484375 228.825 326.96875 229.25 326.4375 C231 325 231 325 232.83984375 325.171875 C235.61519522 326.23584338 237.19965555 327.73055638 239.3125 329.8125 C240.03050781 330.49957031 240.74851562 331.18664062 241.48828125 331.89453125 C243 334 243 334 242.85546875 336.07421875 C242 338 242 338 240 341 C246.02688855 346.14490486 255.86829365 351 264 351 C264 348.69 264 346.38 264 344 C269.28 344 274.56 344 280 344 C280 346.31 280 348.62 280 351 C293.66581744 348.38253463 293.66581744 348.38253463 304 340 C303.484375 339.5875 302.96875 339.175 302.4375 338.75 C301 337 301 337 301.171875 335.16015625 C302.23584338 332.38480478 303.73055638 330.80034445 305.8125 328.6875 C306.49957031 327.96949219 307.18664062 327.25148438 307.89453125 326.51171875 C310 325 310 325 312.07421875 325.14453125 C314 326 314 326 317 328 C322.14490486 321.97311145 327 312.13170635 327 304 C324.69 304 322.38 304 320 304 C320 298.72 320 293.44 320 288 C322.31 288 324.62 288 327 288 C324.38253463 274.33418256 324.38253463 274.33418256 316 264 C315.5875 264.515625 315.175 265.03125 314.75 265.5625 C313 267 313 267 311.16015625 266.828125 C308.38480478 265.76415662 306.80034445 264.26944362 304.6875 262.1875 C303.96949219 261.50042969 303.25148438 260.81335938 302.51171875 260.10546875 C301 258 301 258 301.14453125 255.92578125 C302 254 302 254 304 251 C297.97311145 245.85509514 288.13170635 241 280 241 C280 243.31 280 245.62 280 248 C274.72 248 269.44 248 264 248 C264 245.69 264 243.38 264 241 C255.86829365 241 246.02688855 245.85509514 240 251 Z " fill="#56A4FF" transform="translate(96,72)"/>
<path d="M0 0 C23.76 0 47.52 0 72 0 C72 21.12 72 42.24 72 64 C48.24 64 24.48 64 0 64 C0 42.88 0 21.76 0 0 Z " fill="#BDDBFF" transform="translate(192,152)"/>
<path d="M0 0 C23.76 0 47.52 0 72 0 C72 21.12 72 42.24 72 64 C48.24 64 24.48 64 0 64 C0 42.88 0 21.76 0 0 Z " fill="#BCDAFF" transform="translate(104,152)"/>
<path d="M0 0 C14.19 0 28.38 0 43 0 C49.23914812 15.39286972 49.23914812 15.39286972 51.88671875 21.94140625 C53.69542901 26.41503818 55.50490238 30.88835099 57.31884766 35.35986328 C58.78074134 38.96367688 60.23927157 42.56883448 61.69544983 46.17496109 C62.25244312 47.55260049 62.81066002 48.9297458 63.37010193 50.30639267 C64.15164315 52.23016095 64.92887027 54.15561781 65.70507812 56.08154297 C66.14920044 57.17852509 66.59332275 58.2755072 67.05090332 59.4057312 C68 62 68 62 68 64 C45.56 64 23.12 64 0 64 C0 42.88 0 21.76 0 0 Z " fill="#BCDAFF" transform="translate(280,152)"/>
<path d="M0 0 C8.34468007 4.97590182 13.53387008 11.86345977 16.109375 21.2578125 C17.10789012 32.35758522 16.45884702 41.9922991 9.359375 51.0703125 C3.70168013 57.1280464 -3.34488592 60.84888618 -11.625 61.59375 C-22.24007794 61.83258597 -31.18444828 60.63001931 -39.2890625 53.1015625 C-47.32833275 43.84659773 -48.61982016 35.03008751 -48.06982422 23.20654297 C-47.37894187 15.69343275 -43.42276801 9.23166585 -37.890625 4.2578125 C-27.15195714 -3.81766573 -12.32399863 -5.91386512 0 0 Z " fill="#57A4FF" transform="translate(383.890625,338.7421875)"/>
<path d="M0 0 C8.34468007 4.97590182 13.53387008 11.86345977 16.109375 21.2578125 C17.10789012 32.35758522 16.45884702 41.9922991 9.359375 51.0703125 C3.70168013 57.1280464 -3.34488592 60.84888618 -11.625 61.59375 C-22.24007794 61.83258597 -31.18444828 60.63001931 -39.2890625 53.1015625 C-47.32833275 43.84659773 -48.61982016 35.03008751 -48.06982422 23.20654297 C-47.37894187 15.69343275 -43.42276801 9.23166585 -37.890625 4.2578125 C-27.15195714 -3.81766573 -12.32399863 -5.91386512 0 0 Z " fill="#57A4FF" transform="translate(175.890625,338.7421875)"/>
<path d="M0 0 C5.67476113 1.96434039 9.31400331 5.62800662 12 11 C12.59057744 16.67862925 12.29370905 21.16922672 9 26 C4.99653611 30.03627917 1.41408246 32.12458106 -4.3125 32.3125 C-8.94226662 32.25237316 -11.4369151 31.06591027 -15 28 C-19.3022759 23.23261319 -20.36282503 19.56252705 -20.28125 13.28125 C-19.69180611 8.50020514 -16.85179203 5.75038822 -13.375 2.6875 C-8.92314854 -0.47565762 -5.3540278 -0.48837416 0 0 Z " fill="#BAD9FF" transform="translate(372,352)"/>
<path d="M0 0 C5.67476113 1.96434039 9.31400331 5.62800662 12 11 C12.59057744 16.67862925 12.29370905 21.16922672 9 26 C4.99653611 30.03627917 1.41408246 32.12458106 -4.3125 32.3125 C-8.94226662 32.25237316 -11.4369151 31.06591027 -15 28 C-19.3022759 23.23261319 -20.36282503 19.56252705 -20.28125 13.28125 C-19.69180611 8.50020514 -16.85179203 5.75038822 -13.375 2.6875 C-8.92314854 -0.47565762 -5.3540278 -0.48837416 0 0 Z " fill="#BAD9FF" transform="translate(164,352)"/>
<path d="M0 0 C10.56 0 21.12 0 32 0 C32 5.28 32 10.56 32 16 C21.44 16 10.88 16 0 16 C0 10.72 0 5.44 0 0 Z " fill="#57A4FF" transform="translate(296,248)"/>
<path d="M0 0 C10.56 0 21.12 0 32 0 C32 5.28 32 10.56 32 16 C21.44 16 10.88 16 0 16 C0 10.72 0 5.44 0 0 Z " fill="#57A4FF" transform="translate(112,248)"/>
<path d="M0 0 C1.26521484 0.02255859 2.53042969 0.04511719 3.83398438 0.06835938 C6.95232979 0.12719608 10.07006589 0.21687319 13.1875 0.3125 C13.1875 5.5925 13.1875 10.8725 13.1875 16.3125 C8.79064317 16.44737291 4.3979172 16.54658579 0 16.625 C-1.24587891 16.66689453 -2.49175781 16.70878906 -3.77539062 16.75195312 C-14.08197612 16.89011111 -14.08197612 16.89011111 -17.13671875 13.98046875 C-19.21397555 10.67332098 -19.61077906 9.14423951 -18.8125 5.3125 C-14.39832849 -1.7151903 -7.55633722 -0.25409308 0 0 Z " fill="#BBDAFF" transform="translate(466.8125,263.6875)"/>
<path d="M0 0 C0 7.92 0 15.84 0 24 C-5.28 24 -10.56 24 -16 24 C-16.13530844 20.93601549 -16.2342407 17.87802874 -16.3125 14.8125 C-16.35439453 13.94818359 -16.39628906 13.08386719 -16.43945312 12.19335938 C-16.52035727 7.97016323 -16.34595356 5.58789975 -14.16796875 1.88671875 C-11 0 -11 0 0 0 Z " fill="#BCDAFF" transform="translate(48,176)"/>
<path d="M0 0 C5.28 0 10.56 0 16 0 C16 7.92 16 15.84 16 24 C5 24 5 24 1 21 C0.07811539 18.23434618 -0.11785222 16.61716298 -0.09765625 13.76953125 C-0.09282227 12.56586914 -0.09282227 12.56586914 -0.08789062 11.33789062 C-0.07951172 10.50451172 -0.07113281 9.67113281 -0.0625 8.8125 C-0.05798828 7.96751953 -0.05347656 7.12253906 -0.04882812 6.25195312 C-0.03705403 4.16793845 -0.0191189 2.08396023 0 0 Z " fill="#BCDAFF" transform="translate(32,248)"/>
<path d="M0 0 C5.28 0 10.56 0 16 0 C16 5.28 16 10.56 16 16 C10.72 16 5.44 16 0 16 C0 10.72 0 5.44 0 0 Z " fill="#BDDBFF" transform="translate(32,216)"/>
</svg>
