<?xml version="1.0" encoding="UTF-8"?>
<svg version="1.1" xmlns="http://www.w3.org/2000/svg" width="512" height="512">
<path d="M0 0 C0.98283765 -0.00785502 0.98283765 -0.00785502 1.98553061 -0.01586872 C4.17944152 -0.03086132 6.37311904 -0.0315737 8.56707764 -0.03224182 C10.14087823 -0.03986393 11.71467509 -0.04829151 13.28846741 -0.0574646 C17.56343193 -0.0794141 21.83832492 -0.08820934 26.11333942 -0.09329104 C28.78554698 -0.09693471 31.4577358 -0.10317489 34.12993622 -0.11029243 C43.45648522 -0.13479049 52.78297858 -0.14783917 62.10955811 -0.15138245 C70.79606167 -0.15501588 79.48221151 -0.18489648 88.168607 -0.22678703 C95.63118359 -0.26151081 103.09364311 -0.27693126 110.55629992 -0.27762848 C115.01118433 -0.27842072 119.46570857 -0.28713439 123.92050934 -0.31562614 C128.11331459 -0.34184207 132.30546205 -0.34399268 136.498312 -0.3279705 C138.03334935 -0.32615867 139.56842482 -0.33282282 141.1033802 -0.34878922 C151.28608724 -0.44821233 157.61773685 0.54199613 165.02313232 7.77806091 C168.44308722 12.25962681 170.91120779 17.39864498 173.50686646 22.3820343 C175.13793567 25.51093369 176.79459694 28.62625259 178.44891357 31.74290466 C178.78304764 32.37357346 179.1171817 33.00424225 179.46144104 33.65402222 C182.77112053 39.88810659 186.18453396 46.06176549 189.64813232 52.21165466 C190.17600342 53.15710144 190.70387451 54.10254822 191.2477417 55.0766449 C196.53434252 64.52845703 196.53434252 64.52845703 205.46063232 70.27415466 C209.31249847 71.22869755 212.94425802 71.4102791 216.90594482 71.44993591 C218.7699292 71.4857074 218.7699292 71.4857074 220.67156982 71.52220154 C223.25734558 71.56478168 225.84333113 71.59624078 228.42938232 71.61595154 C239.03604731 71.85104772 247.88827378 73.74283387 256.46063232 80.27415466 C257.28563232 80.83102966 258.11063232 81.38790466 258.96063232 81.96165466 C266.88198819 89.28890884 271.49415369 99.67487799 271.96399689 110.40710449 C271.98575485 112.67656756 271.98604128 114.94630496 271.96856689 117.21580505 C271.97480686 118.47517663 271.98104682 119.73454821 271.98747587 121.03208256 C272.00405266 124.49782571 271.99597673 127.96312384 271.983531 131.42886782 C271.97443457 135.17809729 271.98847286 138.92725329 271.99945068 142.6764679 C272.01719176 150.00937218 272.01341568 157.34211225 272.00180012 164.67502284 C271.99274864 170.63720844 271.9915492 176.59934818 271.99589539 182.5615387 C271.99650832 183.41168362 271.99712125 184.26182854 271.99775276 185.13773543 C271.99903172 186.86505152 272.00032857 188.5923676 272.00164312 190.31968367 C272.01303599 206.49821908 271.99995554 222.67666368 271.97844166 238.8551842 C271.96057184 252.72242554 271.96367631 266.58953292 271.9821167 280.45677185 C272.00354629 296.57933855 272.01193748 312.70182576 271.99966764 328.82440472 C271.99839351 330.54519334 271.99713603 332.26598198 271.99589539 333.98677063 C271.99527828 334.83332389 271.99466118 335.67987716 271.99402538 336.55208355 C271.99057874 342.50374109 271.996386 348.45534799 272.0058136 354.40699768 C272.0170582 361.66492279 272.013942 368.92267496 271.99269062 376.18058038 C271.98221315 379.88025311 271.97800146 383.57963803 271.99128723 387.27930832 C272.00549734 391.29728842 271.98847515 395.31454839 271.96856689 399.33250427 C271.97748978 400.49137177 271.98641267 401.65023928 271.99560595 402.84422398 C271.9006153 412.75221746 269.56323492 421.32227855 263.46063232 429.27415466 C262.75938232 430.26415466 262.05813232 431.25415466 261.33563232 432.27415466 C255.94473937 438.5745541 247.44251114 442.56194691 239.46063232 444.27415466 C233.44504864 444.72311925 227.4428235 444.68825536 221.41331482 444.66856384 C219.56206051 444.67345573 217.71080926 444.67964691 215.85956317 444.68702173 C210.78371199 444.70340654 205.70801628 444.70110627 200.63214791 444.69564676 C195.15347844 444.69297478 189.67485025 444.70751154 184.19619751 444.71974182 C173.4671015 444.74079083 162.73805953 444.74533697 152.00894531 444.74355394 C143.28738298 444.74224605 134.5658375 444.74605182 125.84427834 444.753479 C123.33154657 444.75557821 120.8188148 444.75767581 118.30608302 444.75977182 C116.43006516 444.76133712 116.43006516 444.76133712 114.51614795 444.76293403 C97.58283297 444.77646597 80.64952487 444.78406115 63.71620464 444.77960968 C63.05429715 444.77943773 62.39238966 444.77926577 61.71042437 444.77908861 C58.35578672 444.77819974 55.00114909 444.77725493 51.64651146 444.7762906 C50.98029697 444.77609956 50.31408249 444.77590853 49.62767969 444.77571171 C48.28043271 444.77532461 46.93318574 444.77493429 45.58593877 444.77454073 C24.62558643 444.76857151 3.66534453 444.78400722 -17.29498291 444.81614685 C-40.85684216 444.85224511 -64.41864969 444.87150985 -87.98054188 444.86660814 C-100.45131338 444.86436392 -112.9219754 444.86959986 -125.39272499 444.89450073 C-136.00960623 444.91551955 -146.62631797 444.91909994 -157.24320618 444.90020114 C-162.65840643 444.89104705 -168.07329068 444.88989062 -173.48846626 444.91055679 C-178.44991766 444.92928175 -183.4107946 444.92474594 -188.37222423 444.90201098 C-190.16287105 444.89782911 -191.95356204 444.90201127 -193.74416212 444.91560692 C-207.16272222 445.01051744 -217.90928629 443.14504559 -228.57452393 434.21556091 C-236.93036837 425.95938857 -240.96155393 415.53867698 -241.07900339 403.92562115 C-241.07076263 402.75674103 -241.06252186 401.58786091 -241.05403137 400.38356018 C-241.0609769 399.11758149 -241.06792243 397.8516028 -241.07507843 396.54726112 C-241.0936061 393.05839738 -241.08743535 389.56996097 -241.0769254 386.0810802 C-241.06990501 382.30862978 -241.08595281 378.53626466 -241.09892273 374.76383972 C-241.12052125 367.38301251 -241.12044642 360.00233973 -241.11229718 352.62149133 C-241.10598689 346.61971989 -241.10714365 340.61799336 -241.11356926 334.61622238 C-241.11447091 333.76067997 -241.11537257 332.90513756 -241.11630155 332.02366962 C-241.11815283 330.28540373 -241.12001539 328.54713784 -241.12188911 326.80887197 C-241.13845338 310.52253744 -241.12976034 294.23628964 -241.11290353 277.94996034 C-241.09821055 263.06621645 -241.11283172 248.18267452 -241.14167369 233.29895665 C-241.17110188 217.9981922 -241.18202983 202.69752085 -241.17249149 187.39672935 C-241.17146899 185.66439241 -241.17047438 183.93205545 -241.16950798 182.19971848 C-241.16903159 181.34748272 -241.1685552 180.49524695 -241.16806437 179.61718587 C-241.16590461 173.62742078 -241.17568105 167.63774427 -241.19027901 161.64799881 C-241.2078387 154.34137811 -241.20763317 147.0350147 -241.18492735 139.72840394 C-241.17381749 136.00425024 -241.17054778 132.28054921 -241.18922806 128.55641556 C-241.20926211 124.51014676 -241.19017573 120.4649716 -241.16755676 116.41871643 C-241.17939249 115.25429775 -241.19122822 114.08987908 -241.20342261 112.89017498 C-241.07009208 101.10944449 -236.87237888 90.7077656 -228.53936768 82.27415466 C-225.69437403 79.9059756 -222.83119428 77.96532463 -219.53936768 76.27415466 C-218.87131104 75.92852478 -218.20325439 75.5828949 -217.51495361 75.22679138 C-210.15203282 71.81658063 -203.42313594 71.80121251 -195.41436768 72.02415466 C-194.17171143 72.04220154 -192.92905518 72.06024841 -191.64874268 72.07884216 C-188.61145802 72.12556962 -185.57583829 72.19106875 -182.53936768 72.27415466 C-182.56555176 71.38631287 -182.59173584 70.49847107 -182.61871338 69.58372498 C-182.70406518 66.28115062 -182.76667419 62.97975191 -182.81402588 59.67649841 C-182.83913115 58.24857565 -182.87322355 56.82078092 -182.91656494 55.39329529 C-182.97740446 53.33763548 -183.00561318 51.28367713 -183.02764893 49.22727966 C-183.06692505 47.37344666 -183.06692505 47.37344666 -183.10699463 45.48216248 C-182.53936768 42.27415466 -182.53936768 42.27415466 -180.43701172 40.10600281 C-176.88548136 37.86077731 -174.79117854 37.76748128 -170.60943604 37.75657654 C-169.93238113 37.74956726 -169.25532623 37.74255798 -168.55775452 37.7353363 C-166.33115002 37.71780374 -164.10582767 37.7293593 -161.87921143 37.74290466 C-160.32652036 37.74020866 -158.77383093 37.73632534 -157.22114563 37.73130798 C-153.97215652 37.72541969 -150.72360817 37.73395498 -147.47467041 37.75267029 C-143.31256828 37.77547912 -139.15149682 37.76232127 -134.98943233 37.73838043 C-131.78518417 37.72392024 -128.58118007 37.72852899 -125.37692451 37.7388916 C-123.84234049 37.74155732 -122.30773422 37.73829452 -120.77317619 37.72897339 C-118.62815581 37.71880123 -116.48480121 37.73431367 -114.33990479 37.75657654 C-113.12032578 37.75975891 -111.90074677 37.76294128 -110.64421082 37.76622009 C-106.95306109 38.37007107 -105.81183936 39.3699785 -103.53936768 42.27415466 C-102.13024672 45.09239658 -102.42753215 47.44666748 -102.44171143 50.59446716 C-102.44493408 51.8513031 -102.44815674 53.10813904 -102.45147705 54.40306091 C-102.45985596 55.72177185 -102.46823486 57.04048279 -102.47686768 58.39915466 C-102.48188278 59.73899678 -102.48644567 61.07884067 -102.49053955 62.41868591 C-102.50235682 65.70388673 -102.5188315 68.98899864 -102.53936768 72.27415466 C-97.00711787 72.20488194 -91.47559554 72.11672641 -85.94390869 72.01170349 C-84.06541064 71.97862282 -82.18681722 71.95053939 -80.3081665 71.92771912 C-77.59445879 71.8938608 -74.88161192 71.84153251 -72.16827393 71.78587341 C-71.33977432 71.77948349 -70.51127472 71.77309357 -69.65766907 71.76651001 C-61.7464499 71.57080187 -54.29867168 70.0631526 -48.53936768 64.27415466 C-46.8304507 61.80169225 -46.8304507 61.80169225 -45.44561768 59.00462341 C-44.89639648 57.96161072 -44.34717529 56.91859802 -43.78131104 55.84397888 C-43.20646973 54.72781189 -42.63162842 53.6116449 -42.03936768 52.46165466 C-40.80310388 50.11290158 -39.56488056 47.76527083 -38.32452393 45.41868591 C-38.01148819 44.82382385 -37.69845245 44.22896179 -37.37593079 43.61607361 C-34.18546562 37.56548669 -30.85003876 31.59965151 -27.47686768 25.64915466 C-26.9535083 24.72127136 -26.43014893 23.79338806 -25.89093018 22.83738708 C-12.96460079 0.0513914 -12.96460079 0.0513914 0 0 Z M13.46063232 16.27415466 C14.19041415 19.9230638 14.88760936 22.64257476 16.25482178 26.0009613 C16.62222977 26.90862747 16.98963776 27.81629364 17.36817932 28.75146484 C17.76607162 29.71930405 18.16396393 30.68714325 18.57391357 31.68431091 C18.98473679 32.68876755 19.39556 33.69322418 19.8188324 34.7281189 C20.68812476 36.84806217 21.55991324 38.96698338 22.434021 41.08494568 C23.76796887 44.32411645 25.08624331 47.56938161 26.4039917 50.81517029 C27.25134308 52.87611044 28.09961957 54.93667053 28.94891357 56.99681091 C29.34073318 57.96667435 29.7325528 58.93653778 30.13624573 59.93579102 C33.22272276 67.40127079 33.22272276 67.40127079 39.46063232 72.27415466 C41.6191998 72.38141354 43.78112573 72.42305404 45.94232178 72.43528748 C46.94020721 72.44273483 46.94020721 72.44273483 47.95825195 72.45033264 C50.16348296 72.46496088 52.36864198 72.47175792 54.57391357 72.47727966 C56.10607404 72.48303133 57.63823448 72.48878906 59.1703949 72.49455261 C62.38587785 72.505065 65.60133578 72.51090585 68.8168335 72.51438904 C72.93275123 72.51986908 77.04833736 72.54388533 81.16415119 72.57236099 C84.33063209 72.59100718 87.49703352 72.59619406 90.66356468 72.59772491 C92.18059282 72.60074838 93.69761967 72.60876664 95.21459389 72.6219101 C97.34023682 72.63900986 99.46507503 72.63708111 101.59075928 72.63059998 C102.7994014 72.63424561 104.00804352 72.63789124 105.25331116 72.64164734 C108.81026171 72.23409437 110.64763314 71.46139918 113.46063232 69.27415466 C114.69868084 67.58837825 114.69868084 67.58837825 115.41766357 65.63572693 C115.72147949 64.91389725 116.02529541 64.19206757 116.33831787 63.44836426 C116.64680664 62.67028915 116.95529541 61.89221405 117.27313232 61.09056091 C117.60933594 60.27981613 117.94553955 59.46907135 118.29193115 58.63375854 C119.3632652 56.04063329 120.41221959 53.43911986 121.46063232 50.83665466 C122.1648892 49.12055493 122.87060451 47.40505295 123.57781982 45.69017029 C124.93813851 42.38638578 126.28780679 39.07858393 127.62860107 35.76683044 C128.753395 32.99410813 129.89596103 30.23125375 131.07391357 27.48069763 C131.53153076 26.41093689 131.98914795 25.34117615 132.46063232 24.23899841 C132.85250732 23.3365741 133.24438232 22.43414978 133.64813232 21.50437927 C134.63178461 19.19996299 134.63178461 19.19996299 134.46063232 16.27415466 C94.53063232 16.27415466 54.60063232 16.27415466 13.46063232 16.27415466 Z M-4.53936768 19.27415466 C-4.86509766 19.88073914 -5.19082764 20.48732361 -5.52642822 21.11228943 C-11.74568756 32.67969957 -18.01536529 44.21493607 -24.47686768 55.64915466 C-24.9953125 56.56769226 -25.51375732 57.48622986 -26.0479126 58.43260193 C-27.53424747 61.05286146 -29.03237835 63.66572363 -30.53936768 66.27415466 C-31.06570801 67.18664978 -31.59204834 68.0991449 -32.13433838 69.03929138 C-32.91490601 70.36984558 -32.91490601 70.36984558 -33.71124268 71.72727966 C-34.40685303 72.91692322 -34.40685303 72.91692322 -35.11651611 74.13059998 C-39.95969716 81.42695028 -48.10023885 85.54300839 -56.53936768 87.27415466 C-58.55076305 87.36645047 -60.5649655 87.40310387 -62.57847595 87.40545654 C-63.81626297 87.40946472 -65.05404999 87.4134729 -66.3293457 87.41760254 C-67.69842531 87.41712747 -69.06750491 87.41659136 -70.43658447 87.41600037 C-71.88068244 87.41903306 -73.32477944 87.42255482 -74.76887512 87.42652893 C-77.87798354 87.43441108 -80.98708051 87.43956032 -84.09619713 87.4428196 C-89.0179481 87.4487386 -93.93962709 87.4652883 -98.86134338 87.48416138 C-100.54781242 87.49049868 -102.2342815 87.4968243 -103.92075062 87.50313854 C-104.7653253 87.50630435 -105.60989999 87.50947016 -106.48006785 87.51273191 C-117.93593819 87.55476674 -129.39177496 87.58777102 -140.84771729 87.6000824 C-148.57802581 87.60847522 -156.30815593 87.63101144 -164.0383752 87.66943806 C-168.1260093 87.68915852 -172.21337694 87.70161672 -176.30106163 87.69660378 C-180.14996253 87.69194115 -183.99835912 87.70584997 -187.84715843 87.73361588 C-189.25435226 87.74050077 -190.66159853 87.74068345 -192.06879044 87.7334156 C-201.70657692 87.68869246 -209.04865937 88.72380343 -216.85186768 94.58665466 C-221.23430136 98.96908835 -224.27243005 103.91982988 -224.65962219 110.23576355 C-224.65740158 110.91971191 -224.65518097 111.60366028 -224.65289307 112.30833435 C-224.65281754 113.08884155 -224.652742 113.86934875 -224.65266418 114.67350769 C-224.6475029 115.50593994 -224.64234161 116.33837219 -224.63702393 117.19602966 C-224.63560898 118.05601562 -224.63419403 118.91600159 -224.63273621 119.80204773 C-224.62714864 122.54278575 -224.61459842 125.28344142 -224.60186768 128.02415466 C-224.59685107 129.88483056 -224.59228844 131.74550775 -224.5881958 133.60618591 C-224.57718328 138.16220712 -224.55992719 142.71816694 -224.53936768 147.27415466 C-197.38346361 147.48464611 -170.22768229 147.64322667 -143.07112598 147.74046421 C-130.46105955 147.78681887 -117.85150078 147.849987 -105.24176025 147.95310974 C-94.24764951 148.04297677 -83.25390654 148.10091705 -72.25943869 148.12095112 C-66.4408299 148.13265734 -60.62327297 148.16005573 -54.80500221 148.22572517 C-49.32096925 148.28711679 -43.83841464 148.30559851 -38.35407066 148.29212379 C-36.34859031 148.29458641 -34.34305713 148.31231088 -32.33787537 148.34700394 C-19.01439539 148.56608693 -11.7806241 146.98645007 -1.53936768 138.27415466 C1.77677084 136.21415457 5.18129646 134.37949437 8.64813232 132.58665466 C9.54032471 132.12388123 10.43251709 131.66110779 11.35174561 131.18431091 C40.20433964 116.61219036 74.00373948 113.41095876 105.46063232 120.27415466 C106.18202393 120.42449158 106.90341553 120.57482849 107.64666748 120.72972107 C126.46314112 124.79347171 144.20548539 133.62802739 159.46063232 145.27415466 C163.40503216 147.90375455 166.76343339 147.53950852 171.33831787 147.50120544 C172.24583801 147.5014975 173.15335815 147.50178955 174.08837891 147.50209045 C177.09146651 147.50069584 180.09430675 147.4851284 183.09735107 147.46946716 C185.17814498 147.4657375 187.25894065 147.46289031 189.33973694 147.46089172 C194.81917155 147.45325159 200.29850031 147.43359978 205.77789307 147.41148376 C211.36808846 147.39103356 216.95830094 147.38189177 222.54852295 147.37181091 C233.51927261 147.35035429 244.48994367 147.31621371 255.46063232 147.27415466 C255.56015865 141.884804 255.63240891 136.49599856 255.68035889 131.10594177 C255.70036607 129.27576874 255.72758083 127.44565875 255.76239014 125.6157074 C255.81139235 122.97174954 255.83370994 120.32864301 255.85125732 117.68431091 C255.87190247 116.87768509 255.89254761 116.07105927 255.91381836 115.23999023 C255.91664198 107.94896886 253.56039058 101.81351682 249.21063232 95.96165466 C243.37728132 90.26087981 236.82117535 88.17267455 228.77313232 88.09837341 C227.42025274 88.07514255 226.06738817 88.05102397 224.71453857 88.02610779 C222.59969509 87.99129054 220.48539282 87.96181372 218.37030029 87.94822693 C206.08485671 87.85403563 194.58554296 86.32914748 185.46063232 77.27415466 C180.68155382 71.04888128 177.061871 64.06227723 173.39813232 57.14915466 C168.77194009 48.51855205 164.08007766 39.93055237 159.27313232 31.39915466 C158.72068848 30.41286072 158.16824463 29.42656677 157.59906006 28.41038513 C157.08544922 27.5017572 156.57183838 26.59312927 156.04266357 25.65696716 C155.36554321 24.45644714 155.36554321 24.45644714 154.67474365 23.23167419 C153.48363008 21.14501377 153.48363008 21.14501377 151.46063232 19.27415466 C150.75100342 20.9957782 150.75100342 20.9957782 150.02703857 22.75218201 C148.23279566 27.1033015 146.43528719 31.45306617 144.63690186 35.80247498 C143.86618516 37.66767977 143.09629764 39.53322746 142.32733154 41.39915466 C139.7297424 47.70127943 137.11001158 53.99361813 134.46063232 60.27415466 C134.09472992 61.14310364 133.72882751 62.01205261 133.35183716 62.90733337 C132.29941229 65.39153974 131.23248345 67.86892913 130.15985107 70.34446716 C129.69234436 71.45040726 129.69234436 71.45040726 129.21539307 72.57868958 C126.37621068 79.04853389 122.70711876 83.19168282 116.31910706 86.32435608 C112.76940624 87.50383154 109.46537625 87.56941424 105.76800537 87.56468201 C104.63038757 87.57475784 104.63038757 87.57475784 103.4697876 87.58503723 C100.97057483 87.60398442 98.47163114 87.60793989 95.97235107 87.61009216 C94.22746166 87.6165229 92.48257333 87.62325147 90.73768616 87.63026428 C87.08191428 87.64222922 83.42623684 87.64594597 79.77044678 87.64476013 C75.09990834 87.64455711 70.42997951 87.6718453 65.75958538 87.70630455 C62.15547437 87.72861038 58.55150915 87.73259653 54.9473362 87.73154068 C53.22624424 87.73389163 51.50514797 87.74268652 49.78412437 87.75820541 C47.36947098 87.77793861 44.95612003 87.77199943 42.54144287 87.75999451 C41.83935196 87.77123352 41.13726105 87.78247253 40.41389465 87.79405212 C34.2412577 87.71659078 29.26158369 85.55611038 24.52508545 81.69725037 C20.6555821 76.99362463 18.26712734 72.07692525 15.96063232 66.46165466 C15.55409424 65.500578 15.14755615 64.53950134 14.72869873 63.54930115 C13.56125409 60.77591984 12.40748523 57.99731463 11.26104736 55.2151947 C10.38963223 53.10197647 9.51472033 50.99022686 8.63934326 48.87864685 C4.55450799 39.02080001 0.49772392 29.15164209 -3.53936768 19.27415466 C-3.86936768 19.27415466 -4.19936768 19.27415466 -4.53936768 19.27415466 Z M-166.53936768 54.27415466 C-166.53936768 60.21415466 -166.53936768 66.15415466 -166.53936768 72.27415466 C-151.02936768 72.27415466 -135.51936768 72.27415466 -119.53936768 72.27415466 C-119.53936768 66.33415466 -119.53936768 60.39415466 -119.53936768 54.27415466 C-135.04936768 54.27415466 -150.55936768 54.27415466 -166.53936768 54.27415466 Z M-11.53936768 166.27415466 C-12.49714111 167.1494281 -13.45491455 168.02470154 -14.44171143 168.92649841 C-36.5370226 190.03015467 -50.89926726 221.04696532 -51.74249268 251.67259216 C-52.21478773 287.46538321 -41.60183516 319.14610607 -16.53936768 345.27415466 C-15.78139893 346.09528748 -15.02343018 346.91642029 -14.24249268 347.76243591 C6.71179689 369.77813557 37.23646103 382.7034497 67.46063232 384.27415466 C68.82768311 384.35343201 68.82768311 384.35343201 70.22235107 384.43431091 C101.7097186 385.36159574 133.69094173 374.01321489 156.89813232 352.64915466 C158.76946457 350.87421974 160.61496871 349.07606921 162.46063232 347.27415466 C163.17606201 346.62059998 163.8914917 345.96704529 164.62860107 345.29368591 C185.41554129 325.83445446 198.11639397 294.95796463 199.58660889 266.86717224 C200.65815441 231.39426795 190.13163727 198.70023041 165.63031006 172.53684998 C142.17269859 148.10713606 111.73064364 133.8714199 77.78875732 132.27415466 C44.2869595 131.83703894 13.04233524 143.5986258 -11.53936768 166.27415466 Z M-224.53936768 164.27415466 C-224.53936768 226.31415466 -224.53936768 288.35415466 -224.53936768 352.27415466 C-161.50936768 352.27415466 -98.47936768 352.27415466 -33.53936768 352.27415466 C-35.32714379 348.69860244 -37.14012353 346.13281217 -39.60186768 343.02415466 C-63.11322865 312.24286483 -70.84700359 273.87441411 -65.93731689 235.93968201 C-62.3726392 212.06290221 -52.29815212 189.71651119 -37.42218018 170.79759216 C-35.32830647 168.14610479 -35.32830647 168.14610479 -33.53936768 164.27415466 C-96.56936768 164.27415466 -159.59936768 164.27415466 -224.53936768 164.27415466 Z M181.46063232 164.27415466 C183.24840843 167.84970688 185.06138818 170.41549715 187.52313232 173.52415466 C210.78914067 203.91212035 218.37751727 241.93746224 213.99969482 279.46165466 C210.7059424 303.47175548 200.34632768 331.6659387 182.67156982 349.03196716 C181.22795152 350.22371312 181.22795152 350.22371312 181.46063232 352.27415466 C205.88063232 352.27415466 230.30063232 352.27415466 255.46063232 352.27415466 C255.46063232 290.23415466 255.46063232 228.19415466 255.46063232 164.27415466 C231.04063232 164.27415466 206.62063232 164.27415466 181.46063232 164.27415466 Z M-224.53936768 369.27415466 C-224.61392215 374.68183937 -224.66815994 380.08922014 -224.7041626 385.49729919 C-224.71918264 387.33426633 -224.73960476 389.171198 -224.76568604 391.00804138 C-224.8023697 393.65933521 -224.81916205 396.31015198 -224.83233643 398.96165466 C-224.84782028 399.77344177 -224.86330414 400.58522888 -224.8792572 401.4216156 C-224.88156258 409.35948391 -222.70346381 415.80665689 -217.28936768 421.73509216 C-211.49358573 426.83227539 -204.85229576 428.42443648 -197.32372093 428.40837574 C-196.58007135 428.41072797 -195.83642176 428.4130802 -195.07023734 428.41550371 C-192.55849865 428.42220285 -190.04681158 428.42173521 -187.5350647 428.42132568 C-185.7239768 428.42462374 -183.91288964 428.42834919 -182.10180342 428.43246716 C-177.10926341 428.44250193 -172.11673542 428.44620633 -167.12418675 428.44885647 C-161.74568878 428.45275516 -156.36720038 428.46233381 -150.9887085 428.47106934 C-137.99165777 428.49084629 -124.99460625 428.50090161 -111.99754423 428.50979713 C-105.88006218 428.5141781 -99.762581 428.51954541 -93.64509964 428.524786 C-73.31428647 428.54179966 -52.98347384 428.55629436 -32.65265465 428.56353474 C-27.3748207 428.5654447 -22.09698676 428.56736502 -16.81915283 428.56932068 C-15.50733963 428.56980442 -14.19552643 428.57028816 -12.84396131 428.57078656 C8.4117338 428.57908878 29.66737266 428.60442834 50.92304321 428.63690136 C72.73581214 428.66995432 94.54855248 428.68798191 116.3613466 428.69117898 C128.61245038 428.69334573 140.86347214 428.70211854 153.11455154 428.72764015 C163.54718423 428.74932306 173.97971499 428.75740943 184.41236766 428.74767337 C189.73598365 428.74312168 195.05938925 428.74506548 200.38297653 428.76443481 C205.25746207 428.78201707 210.13158294 428.78110884 215.00607209 428.76553752 C216.76858483 428.76315394 218.53112249 428.76752377 220.29359706 428.77936617 C232.92920475 428.9835465 232.92920475 428.9835465 244.46063232 424.27415466 C245.02594591 423.91610176 245.59125949 423.55804886 246.17370379 423.18914586 C251.3244612 419.43743897 253.50827028 414.13124079 255.46063232 408.27415466 C255.54604132 405.32451353 255.57646159 402.39912447 255.55828857 399.44993591 C255.55687363 398.588535 255.55545868 397.72713409 255.55400085 396.83963013 C255.54840373 394.08860297 255.53585178 391.33765722 255.52313232 388.58665466 C255.51811695 386.72142146 255.51355411 384.85618699 255.50946045 382.99095154 C255.49843524 378.41865455 255.48117259 373.84641841 255.46063232 369.27415466 C243.50785106 369.11158875 231.55533504 368.98739489 219.60167122 368.91146946 C214.05035329 368.87501895 208.4997946 368.82561809 202.94891357 368.74607849 C197.58664419 368.66972699 192.22510263 368.62810289 186.86233139 368.61001396 C184.82182236 368.59713206 182.78135082 368.57197618 180.74115372 368.53404427 C166.4538243 367.95239996 166.4538243 367.95239996 154.24153137 374.55331421 C153.65383469 375.12119156 153.066138 375.68906891 152.46063232 376.27415466 C121.60959294 396.92527589 83.07826795 404.14841694 46.69110107 397.18821716 C40.50121218 395.8940566 34.4611914 394.27192825 28.46063232 392.27415466 C27.44356201 391.93899841 26.4264917 391.60384216 25.37860107 391.25852966 C18.6019553 388.83769017 12.21814094 385.76115622 5.83563232 382.46165466 C4.69058228 381.87650085 4.69058228 381.87650085 3.5223999 381.27952576 C0.1698181 379.50326189 -2.88846333 377.87664858 -5.69015217 375.28333282 C-14.58483018 367.28274691 -23.78383595 368.19311221 -35.06549072 368.36595154 C-37.13605155 368.36821095 -39.20661878 368.36693596 -41.2771759 368.3624115 C-46.8719556 368.36012481 -52.46535118 368.40701617 -58.0598104 368.46300316 C-63.91602718 368.51315952 -69.77227894 368.51772448 -75.62867737 368.52720642 C-86.70673022 368.55202866 -97.78414824 368.61762016 -108.86192209 368.69800234 C-121.47853405 368.7875549 -134.09517702 368.83144107 -146.71202791 368.87156582 C-172.65482586 368.95508967 -198.59706113 369.09572016 -224.53936768 369.27415466 Z " fill="#488CE8" transform="translate(240.53936767578125,33.72584533691406)"/>
<path d="M0 0 C9.10711307 7.74235838 16.46265697 16.36699365 22.375 26.75 C22.89835938 27.63816406 23.42171875 28.52632812 23.9609375 29.44140625 C35.65749953 50.78614763 37.04231158 76.70538301 30.7890625 99.92578125 C23.53021601 123.71866697 7.04955262 143.59409049 -14.75 155.5 C-35.94039234 166.62924746 -61.87934202 169.63118738 -84.96484375 162.94921875 C-90.35533775 161.1830697 -95.51763312 159.22060746 -100.625 156.75 C-102.00751953 156.08871094 -102.00751953 156.08871094 -103.41796875 155.4140625 C-110.59782571 151.74818349 -116.61193563 147.09290605 -122.625 141.75 C-123.33527344 141.12351562 -124.04554688 140.49703125 -124.77734375 139.8515625 C-142.2729101 123.42998141 -151.28809048 99.94437017 -152.84765625 76.38671875 C-153.4990883 51.8305627 -145.34715143 27.98329104 -128.6875 9.8125 C-94.41170456 -26.15446448 -39.2704118 -30.85532355 0 0 Z M-114.625 19.75 C-115.56472656 20.67039062 -115.56472656 20.67039062 -116.5234375 21.609375 C-130.9378721 36.87171752 -136.21953232 57.02535887 -135.89453125 77.5078125 C-135.27122789 94.41376483 -127.98038352 111.24933102 -116.625 123.75 C-115.98304688 124.48347656 -115.34109375 125.21695313 -114.6796875 125.97265625 C-101.08408165 140.59671199 -82.28016325 148.59630481 -62.5234375 149.96484375 C-40.98916261 150.61977912 -21.45945905 142.61271702 -5.8984375 127.984375 C-5.14820313 127.24703125 -4.39796875 126.5096875 -3.625 125.75 C-2.99851562 125.13640625 -2.37203125 124.5228125 -1.7265625 123.890625 C12.6878721 108.62828248 17.96953232 88.47464113 17.64453125 67.9921875 C16.99488612 50.37176333 9.21299212 33.66853907 -2.625 20.75 C-3.46998047 19.80253906 -3.46998047 19.80253906 -4.33203125 18.8359375 C-18.56042391 3.70785724 -38.25888018 -3.21088128 -58.5625 -4.5 C-80.40698325 -4.16044845 -99.16994202 4.56049284 -114.625 19.75 Z " fill="#488CE8" transform="translate(373.625,219.25)"/>
<path d="M0 0 C2.57969895 0.85989965 3.6503086 1.43878719 5.09057617 3.75024414 C6.84509231 8.09061092 6.32680266 12.81774171 6.3125 17.4375 C6.32861328 18.47455078 6.34472656 19.51160156 6.36132812 20.58007812 C6.36746869 30.14093005 6.36746869 30.14093005 3 34 C-0.05693322 35.52846661 -2.62984547 35.23242445 -6 35 C-9.1850357 33.23984869 -9.83296972 32.50109084 -11 29 C-11.2572155 25.21269657 -11.23135079 21.42011514 -11.25 17.625 C-11.270625 16.5834375 -11.29125 15.541875 -11.3125 14.46875 C-11.3617773 4.83503721 -11.3617773 4.83503721 -8 1 C-5.2201184 -0.3899408 -3.0813674 -0.18488204 0 0 Z " fill="#488CE8" transform="translate(317,59)"/>
<path d="M0 0 C2.52989831 1.66303609 3.5671302 2.42918441 5 5 C5.75119261 9.17655465 5.69756385 13.26710879 5.625 17.5 C5.65400391 19.19189453 5.65400391 19.19189453 5.68359375 20.91796875 C5.63512034 29.1099747 5.63512034 29.1099747 2.68359375 33.24609375 C-0.84756154 35.5539376 -2.85976589 35.67749286 -7 35 C-9.90717073 32.78136971 -10.83981643 31.48055071 -12 28 C-12.25424949 24.54605916 -12.23128473 21.08732577 -12.25 17.625 C-12.270625 16.67882812 -12.29125 15.73265625 -12.3125 14.7578125 C-12.36201971 5.9433035 -12.36201971 5.9433035 -9 2 C-5.48175489 -0.34549674 -4.14224306 -0.57991403 0 0 Z " fill="#488CE8" transform="translate(345,59)"/>
<path d="M0 0 C4.62332728 2.87673697 4.62332728 2.87673697 5.6262207 5.86743164 C6.29909222 9.70644714 6.18455259 13.54986648 6.1875 17.4375 C6.19974609 18.28376953 6.21199219 19.13003906 6.22460938 20.00195312 C6.23711555 25.32541336 5.79416971 29.26153044 2.8125 33.8125 C-0.21133627 35.79363411 -2.49194447 35.48386973 -6 35 C-8.6875 33.25 -8.6875 33.25 -11 30 C-11.74832735 25.8227925 -11.69756774 21.73311821 -11.625 17.5 C-11.64433594 16.37207031 -11.66367187 15.24414062 -11.68359375 14.08203125 C-11.62925492 4.89876941 -11.62925492 4.89876941 -8.6484375 1.75390625 C-5.37511535 -0.41382479 -3.85276971 -0.72239432 0 0 Z " fill="#498BE8" transform="translate(290,59)"/>
</svg>
