<?xml version="1.0" encoding="UTF-8"?>
<svg version="1.1" xmlns="http://www.w3.org/2000/svg" width="512" height="512">
<path d="M0 0 C0.62777344 0.40734375 1.25554687 0.8146875 1.90234375 1.234375 C7.46608364 5.37370008 11.52865748 11.18495253 13 18 C13.37726694 22.97183933 13.28076764 27.92487268 13.04272461 32.90209961 C12.80489097 38.4355714 12.75699282 42.23801991 16 47 C20.26075629 50.94119957 23.26957374 52.15481205 29.0078125 51.95703125 C30.48894531 51.92512695 30.48894531 51.92512695 32 51.89257812 C34.06024809 51.83978427 36.12022797 51.77495623 38.1796875 51.69726562 C49.19003844 51.5047271 55.33473878 54.83993191 63.25537109 62.32861328 C64.16109863 63.2101709 65.06682617 64.09172852 66 65 C67.0483639 66.00179587 68.0973835 67.00290589 69.14697266 68.00341797 C71.98656131 70.72251163 74.79345337 73.47286155 77.58813477 76.23803711 C78.74137008 77.37461803 79.89995733 78.5057931 81.0637207 79.6315918 C97.30997226 95.35443142 97.30997226 95.35443142 97.875 106.9375 C97.95427734 108.44376953 97.95427734 108.44376953 98.03515625 109.98046875 C98.00044921 112.96141804 97.7005857 115.79646356 97.3125 118.75 C96.81127111 123.32041606 97.39223751 126.18923638 99.50390625 130.24609375 C102.33678998 133.56715065 105.00619995 135.7976963 109.48071289 136.25170898 C113.40931561 136.24929816 117.31590601 136.04884152 121.23828125 135.84375 C129.88105787 135.57046062 136.82649859 137.3611935 143.75 142.6875 C152.25666787 150.69377564 157.02259807 161.01935018 157.47265625 172.63525391 C157.63828062 186.95880471 153.14512931 197.72079739 143.20600976 208.13828183 C140.61690992 210.78744163 137.9950239 213.40252512 135.36747742 216.01347351 C134.17601174 217.20840006 132.98520015 218.40397909 131.79498321 219.60014945 C128.53757142 222.87004176 125.27092171 226.13056392 122.00261366 229.38956034 C118.47360114 232.91177066 114.95325028 236.44262029 111.4317627 239.97235107 C104.53773279 246.87970796 97.63563249 253.77894546 90.73058709 260.67528876 C85.11793177 266.28116389 79.50821759 271.88996645 73.90058327 277.50086403 C73.10191531 278.29999168 72.30324736 279.09911933 71.48037735 279.92246297 C69.85781843 281.54598108 68.23526624 283.16950591 66.61272071 284.79303739 C51.40432055 300.00998842 36.18674534 315.21773726 20.96600918 330.42234782 C7.91133394 343.46362017 -5.13545574 356.51273803 -18.17651367 369.56762695 C-33.3274096 384.73458403 -48.48316892 399.89665394 -63.64670151 415.050978 C-65.26418595 416.66750681 -66.88166412 418.28404187 -68.49913597 419.90058327 C-69.2949275 420.69591197 -70.09071903 421.49124068 -70.91062546 422.31067025 C-76.513254 427.91071051 -82.1123979 433.51422031 -87.71019936 439.11908531 C-94.53383706 445.95114413 -101.36280907 452.77781694 -108.19863645 459.59768017 C-111.6850026 463.07617194 -115.16894546 466.55700082 -118.64640617 470.04439735 C-121.83217639 473.23913199 -125.02483562 476.42681183 -128.22303941 479.60909794 C-129.37636007 480.75907822 -130.52718271 481.91157065 -131.67517964 483.06686553 C-139.00300018 490.4376718 -146.33298732 497.5854108 -156.25 501.3125 C-157.03890625 501.61800781 -157.8278125 501.92351562 -158.640625 502.23828125 C-169.57474341 505.76833603 -181.05463315 504.58494952 -191.44140625 499.8984375 C-201.20665638 494.77622508 -207.2672626 488.72768007 -210.625 478.00390625 C-211.68124357 472.35960468 -211.20436518 466.57018897 -210 461 C-209.37197171 455.45241677 -210.41875428 452.21617029 -213.51953125 447.734375 C-216.19549671 444.59947088 -218.92272962 443.20893242 -223.01953125 442.796875 C-225.73309481 442.73646171 -228.31802265 442.82712351 -230.95703125 443.49609375 C-239.02980908 445.48727604 -246.73653848 443.7297013 -254 440 C-256.2565918 438.23364258 -256.2565918 438.23364258 -258.51171875 436.14453125 C-259.37651855 435.34362061 -260.24131836 434.54270996 -261.13232422 433.7175293 C-262.07865723 432.82074463 -263.02499023 431.92395996 -264 431 C-264.51201965 430.51584625 -265.02403931 430.0316925 -265.55157471 429.53286743 C-268.93112384 426.32823749 -272.2715642 423.08661954 -275.58813477 419.81689453 C-276.74049975 418.68622918 -277.89909271 417.56187754 -279.0637207 416.44384766 C-287.02228338 408.798544 -293.86572013 401.80452271 -295.5234375 390.3984375 C-295.47445312 389.40070313 -295.42546875 388.40296875 -295.375 387.375 C-295.33503906 386.28703125 -295.29507813 385.1990625 -295.25390625 384.078125 C-295.03312784 381.40161139 -294.70536592 378.78023174 -294.3125 376.125 C-293.75429722 371.70791714 -294.75221517 368.89616036 -297 365 C-299.64397889 361.95942428 -301.17116342 360.27627886 -305 359 C-309.82706254 358.69265894 -314.2719011 359.03013356 -319 360 C-327.29870405 360.71540552 -335.21424481 358.55314959 -341.8125 353.3125 C-350.24421605 345.2438722 -355.02256929 334.98139269 -355.47265625 323.36474609 C-355.63828062 309.04119529 -351.14512931 298.27920261 -341.20600976 287.86171817 C-338.61690992 285.21255837 -335.9950239 282.59747488 -333.36747742 279.98652649 C-332.17601174 278.79159994 -330.98520015 277.59602091 -329.79498321 276.39985055 C-326.53757142 273.12995824 -323.27092171 269.86943608 -320.00261366 266.61043966 C-316.47360114 263.08822934 -312.95325028 259.55737971 -309.4317627 256.02764893 C-302.53773279 249.12029204 -295.63563249 242.22105454 -288.73058709 235.32471124 C-283.11793177 229.71883611 -277.50821759 224.11003355 -271.90058327 218.49913597 C-271.10191531 217.70000832 -270.30324736 216.90088067 -269.48037735 216.07753703 C-267.85781843 214.45401892 -266.23526624 212.83049409 -264.61272071 211.20696261 C-249.40432055 195.99001158 -234.18674534 180.78226274 -218.96600918 165.57765218 C-205.91133394 152.53637983 -192.86454426 139.48726197 -179.82348633 126.43237305 C-164.6725904 111.26541597 -149.51683108 96.10334606 -134.35329849 80.949022 C-132.73581405 79.33249319 -131.11833588 77.71595813 -129.50086403 76.09941673 C-128.7050725 75.30408803 -127.90928097 74.50875932 -127.08937454 73.68932975 C-121.486746 68.08928949 -115.8876021 62.48577969 -110.28980064 56.88091469 C-103.46616294 50.04885587 -96.63719093 43.22218306 -89.80136355 36.40231983 C-86.3149974 32.92382806 -82.83105454 29.44299918 -79.35359383 25.95560265 C-76.16782361 22.76086801 -72.97516438 19.57318817 -69.77696059 16.39090206 C-68.62363993 15.24092178 -67.47281729 14.08842935 -66.32482036 12.93313447 C-58.99699982 5.5623282 -51.66701268 -1.5854108 -41.75 -5.3125 C-40.96109375 -5.61800781 -40.1721875 -5.92351563 -39.359375 -6.23828125 C-25.75354651 -10.63089144 -11.74113566 -7.75315979 0 0 Z " fill="#006DEF" transform="translate(355,8)"/>
<path d="M0 0 C0.62777344 0.40734375 1.25554687 0.8146875 1.90234375 1.234375 C7.46608364 5.37370008 11.52865748 11.18495253 13 18 C13.37726694 22.97183933 13.28076764 27.92487268 13.04272461 32.90209961 C12.80489097 38.4355714 12.75699282 42.23801991 16 47 C20.26075629 50.94119957 23.26957374 52.15481205 29.0078125 51.95703125 C30.48894531 51.92512695 30.48894531 51.92512695 32 51.89257812 C34.06024809 51.83978427 36.12022797 51.77495623 38.1796875 51.69726562 C49.19003844 51.5047271 55.33473878 54.83993191 63.25537109 62.32861328 C64.16109863 63.2101709 65.06682617 64.09172852 66 65 C67.0483639 66.00179587 68.0973835 67.00290589 69.14697266 68.00341797 C71.98656131 70.72251163 74.79345337 73.47286155 77.58813477 76.23803711 C78.74137008 77.37461803 79.89995733 78.5057931 81.0637207 79.6315918 C97.30997226 95.35443142 97.30997226 95.35443142 97.875 106.9375 C97.95427734 108.44376953 97.95427734 108.44376953 98.03515625 109.98046875 C98.00044921 112.96141804 97.7005857 115.79646356 97.3125 118.75 C96.81127111 123.32041606 97.39223751 126.18923638 99.50390625 130.24609375 C102.33678998 133.56715065 105.00619995 135.7976963 109.48071289 136.25170898 C113.40931561 136.24929816 117.31590601 136.04884152 121.23828125 135.84375 C129.88105787 135.57046062 136.82649859 137.3611935 143.75 142.6875 C152.25666787 150.69377564 157.02259807 161.01935018 157.47265625 172.63525391 C157.64343739 187.40477305 152.7679127 198.18140937 142.53472066 208.79791939 C139.41380909 211.96977042 136.25969869 215.10723611 133.10009766 218.24047852 C131.67986663 219.65986227 130.26029796 221.07990903 128.84133911 222.50056458 C125.00552835 226.33723281 121.16056694 230.16460848 117.31384706 233.99033475 C113.28859103 237.99678265 109.27188109 242.01178023 105.25424194 246.02586365 C97.65309696 253.61770032 90.04433997 261.2018599 82.43279207 268.78326505 C73.7642431 277.41823225 65.10425455 286.06176304 56.44496083 294.70600998 C38.63945691 312.48019237 20.82327415 330.24363823 3 348 C1.89589722 347.06285931 0.79312716 346.12414837 -0.30909729 345.18479919 C-0.92334847 344.66222754 -1.53759966 344.1396559 -2.17046452 343.60124874 C-4.93630884 341.1805224 -7.51313059 338.59150289 -10.08984375 335.97265625 C-10.91217247 335.1446476 -10.91217247 335.1446476 -11.75111389 334.2999115 C-14.06216815 331.97274303 -16.36714766 329.63959352 -18.67260742 327.30688477 C-20.37203696 325.58916367 -22.07462471 323.8746157 -23.77734375 322.16015625 C-24.28281235 321.64638931 -24.78828094 321.13262238 -25.30906677 320.60328674 C-27.95650729 317.93826257 -30.66326037 315.40955833 -33.52479553 312.97520447 C-38.85210669 308.32957364 -43.80483794 303.31956401 -48.78710938 298.31054688 C-49.84896297 297.24677013 -50.91104741 296.18322377 -51.9733429 295.11988831 C-54.24623101 292.84385819 -56.51756085 290.56628874 -58.78767395 288.28749084 C-62.38345623 284.67809476 -65.98313142 281.07259769 -69.58337402 277.46765137 C-77.87398315 269.16504052 -86.15955376 260.85740748 -94.44507599 252.54972076 C-102.04399484 244.93057861 -109.64399414 237.3125224 -117.24806261 229.69851923 C-120.82073552 226.12088915 -124.39096188 222.54084134 -127.95928192 218.95886993 C-130.18584013 216.72480908 -132.41450718 214.49286091 -134.64372826 212.26145744 C-135.6700802 211.23324665 -136.69557413 210.2041785 -137.72010231 209.17415047 C-142.76852769 204.09949854 -147.85088919 199.14868079 -153.28517914 194.48799706 C-155.63697777 192.44727693 -157.84093574 190.27883433 -160.0390625 188.07446289 C-160.93939209 187.17405777 -161.83972168 186.27365265 -162.76733398 185.34596252 C-163.7199444 184.38824855 -164.67249848 183.43047853 -165.625 182.47265625 C-166.62225677 181.47352972 -167.61973802 180.4746272 -168.61743164 179.47593689 C-171.21705679 176.8725305 -173.81366231 174.2661333 -176.40960693 171.65905762 C-179.06939763 168.98895726 -181.7320934 166.32175723 -184.39453125 163.65429688 C-189.59916888 158.43899962 -194.8006134 153.22053284 -200 148 C-196.20233706 143.46755861 -192.28412695 139.13662251 -188.10002136 134.95957947 C-187.25656134 134.11166276 -187.25656134 134.11166276 -186.39606172 133.24661642 C-184.53095591 131.37291161 -182.6623611 129.50272812 -180.79370117 127.63256836 C-179.44763945 126.2818724 -178.10177367 124.93098115 -176.75608826 123.57991028 C-173.11385748 119.92461604 -169.46834609 116.27261158 -165.82180572 112.62161708 C-163.54077752 110.3376497 -161.2603341 108.05310001 -158.9800663 105.76837349 C-151.83669751 98.6113487 -144.69134216 91.45631616 -137.54307669 84.30418199 C-129.30694641 76.0635688 -121.0773995 67.8164551 -112.8535158 59.56362051 C-106.48409667 53.17256206 -100.10890227 46.78730216 -93.72932225 40.40638644 C-89.92432373 36.60034195 -86.12177332 32.79192745 -82.32521629 28.97746086 C-78.75394297 25.38966695 -75.17552568 21.80915353 -71.59160805 18.23399162 C-70.28174528 16.92489696 -68.97441798 15.61325935 -67.66990662 14.29883194 C-52.03621382 -1.44665474 -52.03621382 -1.44665474 -41.75 -5.3125 C-40.96109375 -5.61800781 -40.1721875 -5.92351563 -39.359375 -6.23828125 C-25.75354651 -10.63089144 -11.74113566 -7.75315979 0 0 Z " fill="#4596E6" transform="translate(355,8)"/>
<path d="M0 0 C10.67733026 7.80119476 19.89795671 18.04856092 29.24075317 27.36459351 C29.91731083 28.03832378 30.59386848 28.71205406 31.29092789 29.40620041 C34.86020408 32.9606291 38.42670903 36.51780949 41.99075317 40.07748413 C45.64863178 43.72984881 49.31572714 47.37281328 52.98498344 51.01374245 C55.83147225 53.84154741 58.67117248 56.67609679 61.50909805 59.51249313 C62.85808437 60.85847366 64.20954629 62.2019782 65.56362534 63.54283524 C78.94984138 76.80744306 78.94984138 76.80744306 83.49856567 84.82553101 C84.11731567 85.85678101 84.73606567 86.88803101 85.37356567 87.95053101 C88.16925265 95.11552518 87.75434701 104.89038197 84.74856567 111.88803101 C83.76419067 113.79818726 83.76419067 113.79818726 82.49856567 115.82553101 C81.74132202 117.08985962 81.74132202 117.08985962 80.96878052 118.37973022 C77.80797304 123.0955071 73.69570787 126.97350625 69.70950317 130.98568726 C68.8510379 131.853181 67.99257263 132.72067474 67.10809326 133.61445618 C65.29355387 135.44346917 63.47621898 137.26971248 61.65628052 139.09335327 C58.89161198 141.86990712 56.14616647 144.66456625 53.40090942 147.46029663 C51.62992921 149.24074331 49.85782934 151.02007714 48.08450317 152.79818726 C47.27371307 153.62850967 46.46292297 154.45883209 45.62756348 155.3143158 C37.66316913 163.2172167 29.40666684 167.95292504 18.06106567 168.26303101 C17.41202271 168.30879272 16.76297974 168.35455444 16.0942688 168.40170288 C6.06844556 168.62364122 -1.67592789 162.90769825 -8.65486813 156.33932495 C-12.61366963 152.49055965 -16.49970696 148.57311482 -20.37643433 144.64193726 C-22.07496224 142.93982692 -23.77460738 141.2388308 -25.47531128 139.53889465 C-29.02124568 135.98828854 -32.55693707 132.42789833 -36.08493042 128.85946655 C-40.59982354 124.29347067 -45.13435025 119.74760903 -49.67599487 115.20823765 C-53.18050414 111.70291171 -56.6771341 108.18981512 -60.1711731 104.6740551 C-61.84070187 102.99500645 -63.51203024 101.31774516 -65.18521118 99.64233589 C-67.5209169 97.30010427 -69.84647113 94.94824536 -72.16940308 92.59335327 C-72.8561763 91.90793961 -73.54294952 91.22252594 -74.25053406 90.51634216 C-81.44817486 83.17391092 -85.75733634 75.60379326 -85.87643433 65.07553101 C-85.4995192 46.19009921 -69.75588334 34.87076439 -57.30831909 22.3921814 C-54.93381305 20.00788862 -52.57019731 17.61312377 -50.20651245 15.21810913 C-48.67917712 13.68424907 -47.15120418 12.15102359 -45.62252808 10.61849976 C-44.92646957 9.91009445 -44.23041107 9.20168915 -43.51325989 8.47181702 C-32.52975985 -2.46256381 -14.49447573 -9.2836286 0 0 Z " fill="#BCDDFE" transform="translate(175.50143432617188,251.17446899414063)"/>
<path d="M0 0 C5.45274666 2.87315568 9.49428856 7.15308757 13.79620361 11.49627686 C14.70778229 12.40084625 15.61936096 13.30541565 16.55856323 14.23739624 C19.04285914 16.70356097 21.51446001 19.18208479 23.98333073 21.66368008 C26.57792906 24.26845924 29.18233442 26.86340405 31.78515625 29.45996094 C36.15315233 33.82069536 40.51268272 38.18975976 44.86749268 42.56365967 C49.89061684 47.60854967 54.92798808 52.63886849 59.97300076 57.66186213 C64.31689904 61.98756412 68.6528983 66.32106798 72.98248172 70.66109776 C75.56280326 73.24763102 78.14569314 75.83144398 80.73575592 78.40822601 C83.62426342 81.28295254 86.49603364 84.17386425 89.36651611 87.06658936 C90.21853607 87.91051239 91.07055603 88.75443542 91.94839478 89.62393188 C97.38374266 95.13739088 102.18087597 100.48285015 102.8225708 108.54022217 C102.49212722 114.32868217 99.98506295 118.92035802 95.8850708 122.91522217 C91.60181161 125.63143531 87.96731065 126.84313366 82.8850708 126.91522217 C81.97885986 126.94358154 81.07264893 126.97194092 80.13897705 127.00115967 C72.56702163 125.76192147 67.10307561 118.60366141 61.95245361 113.42889404 C61.02820084 112.5081459 60.10394806 111.58739777 59.15168762 110.63874817 C56.62871376 108.1248549 54.11206251 105.6047214 51.59680653 103.0831089 C48.95954683 100.44076976 46.31739283 97.80333178 43.67602539 95.1651001 C39.24422012 90.73692753 34.81663552 86.30456771 30.39141846 81.86981201 C25.27708899 76.7445859 20.15557636 71.62662253 15.03029943 66.51234579 C10.6247971 62.11592014 6.22320508 57.71560813 1.82485652 53.31202555 C-0.79994819 50.68410497 -3.42608043 48.05754934 -6.05574799 45.43449402 C-8.9845454 42.51254816 -11.90509985 39.58249663 -14.82489014 36.65155029 C-16.13244514 35.35006798 -16.13244514 35.35006798 -17.46641541 34.02229309 C-18.65654991 32.82369911 -18.65654991 32.82369911 -19.87072754 31.60089111 C-20.56165371 30.90921089 -21.25257988 30.21753067 -21.96444321 29.50489044 C-26.0384243 24.83233537 -26.16673289 20.6221572 -26.05633545 14.58709717 C-25.28847374 8.41253907 -22.3516674 4.84612797 -17.5524292 1.10272217 C-11.52202015 -2.17467406 -6.30160913 -2.50146198 0 0 Z " fill="#BCDDFE" transform="translate(320.67742919921875,86.45977783203125)"/>
<path d="M0 0 C11.35162772 6.50138678 21.60033114 18.57218077 30.015625 28.515625 C33.36411442 32.22522602 36.96944867 35.68805184 40.56616211 39.15600586 C45.05338855 43.54754733 47.29016734 46.48749528 47.3828125 52.97265625 C47.23970685 59.28614078 45.76335434 63.57565861 41.60546875 68.32421875 C37.2254089 72.15810977 32.81604072 72.28146079 27.16796875 72.2890625 C18.34328575 70.70738261 12.88172327 65.18918093 6.80078125 59.046875 C5.9535701 58.20349075 5.10635895 57.36010651 4.23347473 56.49116516 C2.4528955 54.71329714 0.67731442 52.93041076 -1.09350586 51.14282227 C-3.79956317 48.41532118 -6.52632836 45.70984632 -9.25585938 43.00585938 C-10.98826334 41.27081252 -12.71942626 39.53452544 -14.44921875 37.796875 C-15.26171585 36.99247482 -16.07421295 36.18807465 -16.91133118 35.35929871 C-21.7822205 30.40703887 -25.24366996 26.3091608 -26.390625 19.28125 C-26.32002366 12.89182855 -24.92657199 8.97072472 -20.6796875 4.03515625 C-14.40819445 -1.36124474 -7.77218722 -3.31789193 0 0 Z " fill="#BBDDFE" transform="translate(311.9921875,150.27734375)"/>
<path d="M0 0 C3.47584206 1.49531878 5.75007741 3.48640435 8.4296875 6.13916016 C9.2973877 6.99410065 10.16508789 7.84904114 11.05908203 8.72988892 C12.45296143 10.12042984 12.45296143 10.12042984 13.875 11.5390625 C14.84604631 12.50367595 15.81724007 13.46814099 16.78857422 14.4324646 C18.82291343 16.45483977 20.85308703 18.48129548 22.88085938 20.51025391 C25.4663482 23.09594539 28.06528739 25.66763366 30.6680603 28.23591042 C32.6791063 30.22459497 34.68087055 32.22243043 36.68023682 34.2228508 C38.0943727 35.63351049 39.51755575 37.03508217 40.94091797 38.43643188 C46.64548335 44.18145095 51.81299595 49.55910247 52.5 58 C52.16955642 63.78846 49.66249215 68.38013585 45.5625 72.375 C41.27924081 75.09121315 37.64473985 76.30291149 32.5625 76.375 C31.65628906 76.40335937 30.75007813 76.43171875 29.81640625 76.4609375 C24.1857516 75.53941566 20.11937785 71.37255248 16.17211914 67.47851562 C15.2684108 66.59079468 14.36470245 65.70307373 13.43360901 64.78845215 C12.46698161 63.8281975 11.50084187 62.86745174 10.53515625 61.90625 C9.53249619 60.91256643 8.5297637 59.91895595 7.52696228 58.92541504 C5.4363914 56.85126088 3.35018796 54.77281905 1.26635742 52.69189453 C-1.40756864 50.02338499 -4.09733679 47.37146189 -6.79119015 44.72309113 C-8.86275429 42.68120231 -10.92304026 40.62821811 -12.98031807 38.57194519 C-13.96785065 37.58862376 -14.95951272 36.6094317 -15.9553051 35.63447571 C-17.34120881 34.27531883 -18.71000832 32.89878653 -20.07788086 31.52148438 C-20.86142441 30.74301147 -21.64496796 29.96453857 -22.45225525 29.16247559 C-24 27 -24 27 -23.88418579 24.87774658 C-22.48634607 21.90915245 -20.19587985 19.83061932 -17.87109375 17.578125 C-17.36199966 17.07327576 -16.85290558 16.56842651 -16.3283844 16.04827881 C-14.7050088 14.44166021 -13.071503 12.84580178 -11.4375 11.25 C-10.3332995 10.16085016 -9.22977555 9.07101395 -8.12695312 7.98046875 C-5.4257471 5.3122924 -2.71540937 2.65371709 0 0 Z " fill="#D5EAFE" transform="translate(371,137)"/>
<path d="M0 0 C3.40316954 1.47301368 5.64005372 3.38262568 8.2578125 5.9921875 C9.04800781 6.77980469 9.83820313 7.56742188 10.65234375 8.37890625 C11.46832031 9.20261719 12.28429687 10.02632812 13.125 10.875 C13.94871094 11.69097656 14.77242188 12.50695312 15.62109375 13.34765625 C16.40871094 14.13785156 17.19632812 14.92804688 18.0078125 15.7421875 C19.08506592 16.82282471 19.08506592 16.82282471 20.18408203 17.92529297 C24.16412576 22.47253842 24.44213427 26.28819383 24.30859375 32.1796875 C23.68033241 37.92151901 21.34168956 42.19969471 17 46 C12.15397145 49.0743622 6.50557201 48.98678361 1 48 C-6.07348821 45.57560762 -10.90611723 40.73188536 -16.0625 35.5 C-16.84560547 34.74074219 -17.62871094 33.98148438 -18.43554688 33.19921875 C-19.16966797 32.46316406 -19.90378906 31.72710937 -20.66015625 30.96875 C-21.32668213 30.30294922 -21.99320801 29.63714844 -22.67993164 28.95117188 C-24 27 -24 27 -24.02929688 25.09082031 C-22.53291518 22.05120627 -20.27422956 19.90653266 -17.87109375 17.578125 C-17.36199966 17.07327576 -16.85290558 16.56842651 -16.3283844 16.04827881 C-14.7050088 14.44166021 -13.071503 12.84580178 -11.4375 11.25 C-10.3332995 10.16085016 -9.22977555 9.07101395 -8.12695312 7.98046875 C-5.4257471 5.3122924 -2.71540937 2.65371709 0 0 Z " fill="#D5EAFE" transform="translate(335,174)"/>
</svg>
